<svg width="362" height="211" viewBox="0 0 362 211" fill="none" xmlns="http://www.w3.org/2000/svg">
<path d="M-2.36007e-05 131.88L-2.82118e-05 184.625C-0.00167646 188.09 0.934358 191.522 2.75455 194.724C4.57477 197.926 7.24344 200.834 10.6079 203.284C13.9724 205.734 17.9667 207.676 22.3623 209C26.758 210.324 31.4687 211.004 36.2252 211L325.825 211C330.568 210.996 335.262 210.31 339.64 208.981C344.018 207.652 347.992 205.707 351.336 203.256C354.68 200.806 357.327 197.899 359.126 194.702C360.924 191.505 361.839 188.08 361.817 184.625L361.817 131.875C352.244 131.849 343.076 129.058 336.323 124.114C329.571 119.169 325.787 112.475 325.8 105.5C325.8 102.037 326.736 98.6076 328.556 95.4081C330.375 92.2087 333.042 89.3017 336.404 86.8533C339.765 84.4049 343.756 82.463 348.148 81.1385C352.54 79.8141 357.247 79.133 362 79.1342L362 26.3842C361.975 19.3938 358.154 12.6949 351.371 7.75105C344.587 2.80726 335.394 0.020597 325.8 2.73529e-05L36.2 2.03524e-06C26.6078 0.02057 17.4166 2.80594 10.6339 7.74776C3.85121 12.6896 0.028215 19.3862 -1.43771e-05 26.375L-1.89887e-05 79.125C9.60084 79.125 18.8085 81.9037 25.5973 86.85C32.3861 91.7963 36.2 98.5049 36.2 105.5C36.2 112.495 32.3861 119.204 25.5973 124.15C18.8084 129.096 9.60084 131.875 -2.36003e-05 131.875L-2.36007e-05 131.88ZM162.913 32.9802L199.113 32.9802L199.113 59.3552L162.913 59.3552L162.913 32.9802ZM162.913 151.663L199.113 151.663L199.113 178.034L162.913 178.034L162.913 151.663Z" fill="#96D293" fill-opacity="0.5"/>
<path d="M75.8362 99.7746L74.1862 107.475H80.5362V113.725H72.8362L71.0362 122.225H64.3862L66.1862 113.725H57.0862L55.2862 122.225H48.6862L50.4862 113.725H42.9362V107.475H51.8362L53.4862 99.7746H45.9862V93.5246H54.8362L56.5862 85.2246H63.1862L61.4362 93.5246H70.5362L72.2862 85.2246H78.9362L77.1862 93.5246H83.5862V99.7746H75.8362ZM69.1862 99.7746H60.0862L58.4362 107.475H67.5362L69.1862 99.7746ZM87.7722 92.2246V85.7746H99.8222V122.225H92.6222V92.2246H87.7722ZM108.937 114.325C112.137 111.658 114.687 109.441 116.587 107.675C118.487 105.875 120.071 104.008 121.337 102.075C122.604 100.141 123.237 98.2413 123.237 96.3746C123.237 94.6746 122.837 93.3413 122.037 92.3746C121.237 91.4079 120.004 90.9246 118.337 90.9246C116.671 90.9246 115.387 91.4913 114.487 92.6246C113.587 93.7246 113.121 95.2413 113.087 97.1746H106.287C106.421 93.1746 107.604 90.1413 109.837 88.0746C112.104 86.0079 114.971 84.9746 118.437 84.9746C122.237 84.9746 125.154 85.9913 127.187 88.0246C129.221 90.0246 130.237 92.6746 130.237 95.9746C130.237 98.5746 129.537 101.058 128.137 103.425C126.737 105.791 125.137 107.858 123.337 109.625C121.537 111.358 119.187 113.458 116.287 115.925H131.037V121.725H106.337V116.525L108.937 114.325ZM135.548 95.3746C135.715 92.0413 136.882 89.4746 139.048 87.6746C141.248 85.8413 144.132 84.9246 147.698 84.9246C150.132 84.9246 152.215 85.3579 153.948 86.2246C155.682 87.0579 156.982 88.2079 157.848 89.6746C158.748 91.1079 159.198 92.7413 159.198 94.5746C159.198 96.6746 158.648 98.4579 157.548 99.9246C156.482 101.358 155.198 102.325 153.698 102.825V103.025C155.632 103.625 157.132 104.691 158.198 106.225C159.298 107.758 159.848 109.725 159.848 112.125C159.848 114.125 159.382 115.908 158.448 117.475C157.548 119.041 156.198 120.275 154.398 121.175C152.632 122.041 150.498 122.475 147.998 122.475C144.232 122.475 141.165 121.525 138.798 119.625C136.432 117.725 135.182 114.925 135.048 111.225H141.848C141.915 112.858 142.465 114.175 143.498 115.175C144.565 116.141 146.015 116.625 147.848 116.625C149.548 116.625 150.848 116.158 151.748 115.225C152.682 114.258 153.148 113.025 153.148 111.525C153.148 109.525 152.515 108.091 151.248 107.225C149.982 106.358 148.015 105.925 145.348 105.925H143.898V100.175H145.348C150.082 100.175 152.448 98.5913 152.448 95.4246C152.448 93.9913 152.015 92.8746 151.148 92.0746C150.315 91.2746 149.098 90.8746 147.498 90.8746C145.932 90.8746 144.715 91.3079 143.848 92.1746C143.015 93.0079 142.532 94.0746 142.398 95.3746H135.548ZM165.08 115.125V109.625L181.43 86.2246H189.58V109.025H193.98V115.125H189.58V122.225H182.58V115.125H165.08ZM183.03 93.7246L172.78 109.025H183.03V93.7246ZM222.937 91.8246H206.737V100.375C207.437 99.5079 208.437 98.8079 209.737 98.2746C211.037 97.7079 212.42 97.4246 213.887 97.4246C216.553 97.4246 218.737 98.0079 220.437 99.1746C222.137 100.341 223.37 101.841 224.137 103.675C224.903 105.475 225.287 107.408 225.287 109.475C225.287 113.308 224.187 116.391 221.987 118.725C219.82 121.058 216.72 122.225 212.687 122.225C208.887 122.225 205.853 121.275 203.587 119.375C201.32 117.475 200.037 114.991 199.737 111.925H206.537C206.837 113.258 207.503 114.325 208.537 115.125C209.603 115.925 210.953 116.325 212.587 116.325C214.553 116.325 216.037 115.708 217.037 114.475C218.037 113.241 218.537 111.608 218.537 109.575C218.537 107.508 218.02 105.941 216.987 104.875C215.987 103.775 214.503 103.225 212.537 103.225C211.137 103.225 209.97 103.575 209.037 104.275C208.103 104.975 207.437 105.908 207.037 107.075H200.337V85.6746H222.937V91.8246ZM249.514 94.8746C249.181 93.4746 248.598 92.4246 247.764 91.7246C246.964 91.0246 245.798 90.6746 244.264 90.6746C241.964 90.6746 240.264 91.6079 239.164 93.4746C238.098 95.3079 237.548 98.3079 237.514 102.475C238.314 101.141 239.481 100.108 241.014 99.3746C242.548 98.6079 244.214 98.2246 246.014 98.2246C248.181 98.2246 250.098 98.6913 251.764 99.6246C253.431 100.558 254.731 101.925 255.664 103.725C256.598 105.491 257.064 107.625 257.064 110.125C257.064 112.491 256.581 114.608 255.614 116.475C254.681 118.308 253.298 119.741 251.464 120.775C249.631 121.808 247.448 122.325 244.914 122.325C241.448 122.325 238.714 121.558 236.714 120.025C234.748 118.491 233.364 116.358 232.564 113.625C231.798 110.858 231.414 107.458 231.414 103.425C231.414 97.3246 232.464 92.7246 234.564 89.6246C236.664 86.4913 239.981 84.9246 244.514 84.9246C248.014 84.9246 250.731 85.8746 252.664 87.7746C254.598 89.6746 255.714 92.0413 256.014 94.8746H249.514ZM244.414 103.975C242.648 103.975 241.164 104.491 239.964 105.525C238.764 106.558 238.164 108.058 238.164 110.025C238.164 111.991 238.714 113.541 239.814 114.675C240.948 115.808 242.531 116.375 244.564 116.375C246.364 116.375 247.781 115.825 248.814 114.725C249.881 113.625 250.414 112.141 250.414 110.275C250.414 108.341 249.898 106.808 248.864 105.675C247.864 104.541 246.381 103.975 244.414 103.975ZM285.797 91.0746L272.497 122.225H265.397L278.797 91.8746H261.697V85.8746H285.797V91.0746ZM296.089 102.925C292.756 101.191 291.089 98.5079 291.089 94.8746C291.089 93.0746 291.539 91.4413 292.439 89.9746C293.373 88.4746 294.756 87.2913 296.589 86.4246C298.456 85.5246 300.723 85.0746 303.389 85.0746C306.056 85.0746 308.306 85.5246 310.139 86.4246C312.006 87.2913 313.389 88.4746 314.289 89.9746C315.223 91.4413 315.689 93.0746 315.689 94.8746C315.689 96.7079 315.239 98.3246 314.339 99.7246C313.439 101.091 312.239 102.158 310.739 102.925C312.573 103.725 314.006 104.891 315.039 106.425C316.073 107.958 316.589 109.775 316.589 111.875C316.589 114.141 316.006 116.125 314.839 117.825C313.706 119.491 312.139 120.775 310.139 121.675C308.139 122.575 305.889 123.025 303.389 123.025C300.889 123.025 298.639 122.575 296.639 121.675C294.673 120.775 293.106 119.491 291.939 117.825C290.806 116.125 290.239 114.141 290.239 111.875C290.239 109.775 290.756 107.958 291.789 106.425C292.823 104.858 294.256 103.691 296.089 102.925ZM308.889 95.8746C308.889 94.2413 308.389 92.9746 307.389 92.0746C306.423 91.1746 305.089 90.7246 303.389 90.7246C301.723 90.7246 300.389 91.1746 299.389 92.0746C298.423 92.9746 297.939 94.2579 297.939 95.9246C297.939 97.4246 298.439 98.6246 299.439 99.5246C300.473 100.425 301.789 100.875 303.389 100.875C304.989 100.875 306.306 100.425 307.339 99.5246C308.373 98.5913 308.889 97.3746 308.889 95.8746ZM303.389 105.975C301.489 105.975 299.939 106.458 298.739 107.425C297.573 108.391 296.989 109.775 296.989 111.575C296.989 113.241 297.556 114.608 298.689 115.675C299.856 116.708 301.423 117.225 303.389 117.225C305.356 117.225 306.906 116.691 308.039 115.625C309.173 114.558 309.739 113.208 309.739 111.575C309.739 109.808 309.156 108.441 307.989 107.475C306.823 106.475 305.289 105.975 303.389 105.975Z" fill="#263238"/>
</svg>
