<svg width="40" height="40" viewBox="0 0 40 40" fill="none" xmlns="http://www.w3.org/2000/svg">
<g clip-path="url(#clip0)">
<path d="M19.6138 0.634521C8.79352 0.634521 0 9.43894 0 20.2483C0 31.0577 8.79352 39.8621 19.6138 39.8621C30.4341 39.8621 39.2276 31.0577 39.2276 20.2483C39.2276 9.43894 30.4341 0.634521 19.6138 0.634521Z" fill="#A3E4A0"/>
<path d="M28.7661 30.709H10.4599C9.74076 30.709 9.15234 30.1206 9.15234 29.4014C9.15234 28.6822 9.74076 28.0938 10.4599 28.0938H28.7661C29.4853 28.0938 30.0737 28.6822 30.0737 29.4014C30.0737 30.1206 29.4853 30.709 28.7661 30.709Z" fill="white"/>
<path d="M26.2057 17.5787C25.6935 17.0665 24.8654 17.0665 24.3532 17.5787L20.9208 21.0111V9.35178C20.9208 8.6326 20.3324 8.04419 19.6132 8.04419C18.8941 8.04419 18.3057 8.6326 18.3057 9.35178V21.0111L14.8732 17.5787C14.3611 17.0665 13.533 17.0665 13.0208 17.5787C12.5087 18.0908 12.5087 18.9189 13.0208 19.4311L18.687 25.0973C18.9377 25.3588 19.2754 25.4787 19.6132 25.4787C19.951 25.4787 20.2779 25.3479 20.5394 25.0973L26.2057 19.4311C26.7178 18.9189 26.7178 18.0908 26.2057 17.5787Z" fill="white"/>
</g>
<defs>
<clipPath id="clip0">
<rect y="0.634521" width="39.2276" height="39.2276" fill="white"/>
</clipPath>
</defs>
</svg>
