<svg width="748" height="588" viewBox="0 0 748 588" fill="none" xmlns="http://www.w3.org/2000/svg">
<path opacity="0.24" d="M103.172 95.2529C90.4111 127.481 88.1721 162.679 81.6406 196.694C74.0456 236.186 60.681 274.345 41.976 309.945C28.7971 335.004 12.8802 359.041 5.25817 386.293C-1.30812 409.774 -1.36612 434.809 3.10035 458.777C8.49435 487.511 20.1774 514.696 37.3124 538.385C46.5933 551.146 57.8697 563.211 72.3596 569.569C83.056 574.209 94.8776 575.613 106.49 576.808C262.483 592.852 419.792 591.148 575.4 571.727C595.586 569.209 616.005 566.32 634.81 558.583C662.038 547.387 684.15 526.807 705.578 506.644C718.896 494.149 732.55 481.179 739.987 464.497C751.193 439.38 746.402 409.785 735.845 384.448C725.288 359.111 709.383 336.245 697.561 311.418C681.964 278.493 673.783 242.546 673.593 206.114C673.442 175.615 678.744 143.966 668.164 115.358C657.096 85.4498 630.355 64.1152 602.512 48.5695C557.188 23.3386 506.44 9.42873 454.585 8.02326C380.755 6.09746 308.909 29.3927 235.125 28.0934C174.74 27.0261 129.333 28.8707 103.172 95.2529Z" fill="#96D293"/>
<path opacity="0.24" d="M103.764 95.2529C91.0727 127.481 88.764 162.679 82.2441 196.694C74.6504 236.187 61.2816 274.347 42.568 309.945C29.4006 335.004 13.4837 359.041 5.86169 386.293C-0.7046 409.774 -0.762607 434.809 3.70386 458.777C9.08885 487.512 20.7684 514.698 37.9043 538.385C47.1852 551.146 58.4732 563.211 72.9632 569.569C83.6595 574.209 95.4695 575.613 107.094 576.808C263.086 592.852 420.396 591.148 576.004 571.727C596.19 569.209 616.608 566.32 635.402 558.583C662.642 547.387 684.754 526.807 706.169 506.644C719.488 494.149 733.142 481.179 740.579 464.497C751.785 439.38 746.994 409.785 736.437 384.448C725.88 359.111 709.975 336.245 698.153 311.418C682.543 278.512 674.342 242.581 674.127 206.161C673.976 175.661 679.289 144.013 668.709 115.404C657.642 85.4962 630.901 64.1616 603.058 48.6159C557.754 23.3791 507.027 9.45361 455.189 8.02326C381.358 6.09746 309.512 29.3927 235.728 28.0934C175.309 27.0261 129.925 28.8707 103.764 95.2529Z" fill="#96D293"/>
<path opacity="0.46" d="M392.622 525.867C559.414 525.867 694.625 514.388 694.625 500.228C694.625 486.068 559.414 474.59 392.622 474.59C225.83 474.59 90.6191 486.068 90.6191 500.228C90.6191 514.388 225.83 525.867 392.622 525.867Z" fill="#96D293"/>
<path opacity="0.24" d="M597.953 117.376H196.91V497.676H597.953V117.376Z" fill="#96D293"/>
<path d="M583.533 116.17H182.49V496.469H583.533V116.17Z" fill="white"/>
<path d="M564.855 178.202H200.762V426.05H564.855V178.202Z" fill="#96D293"/>
<path d="M636.155 254.05C636.155 277.345 611.908 296.197 582.012 296.197C576.992 296.214 571.987 295.658 567.093 294.538L543.473 306.627L552.939 289.538C537.858 282.114 527.869 269.027 527.869 254.05C527.869 230.755 552.116 211.891 582 211.891C611.885 211.891 636.155 230.755 636.155 254.05Z" fill="#96D293"/>
<path d="M629.509 253.447C629.509 276.742 605.274 295.594 575.377 295.594C570.357 295.618 565.351 295.061 560.458 293.935L536.827 306.024L546.316 288.947C531.235 281.51 521.246 268.424 521.246 253.447C521.246 230.152 545.481 211.288 575.377 211.288C605.274 211.288 629.509 230.152 629.509 253.447Z" fill="url(#paint0_linear)"/>
<path d="M220.958 275.675V324.853C220.958 327.555 220.425 330.23 219.391 332.727C218.356 335.223 216.84 337.491 214.929 339.401C213.018 341.311 210.749 342.826 208.252 343.859C205.755 344.892 203.079 345.423 200.377 345.421H196.688V367.046L185.458 345.421H100.085C97.3834 345.421 94.7087 344.889 92.2132 343.856C89.7176 342.822 87.4501 341.307 85.5401 339.397C83.6301 337.487 82.115 335.219 81.0813 332.724C80.0477 330.228 79.5156 327.554 79.5156 324.853V275.675C79.5141 272.973 80.0451 270.298 81.0782 267.802C82.1114 265.305 83.6264 263.037 85.5367 261.127C87.447 259.217 89.7152 257.702 92.2114 256.669C94.7076 255.635 97.383 255.104 100.085 255.106H200.377C203.079 255.104 205.755 255.635 208.252 256.668C210.749 257.701 213.018 259.216 214.929 261.126C216.84 263.037 218.356 265.305 219.391 267.801C220.425 270.297 220.958 272.973 220.958 275.675Z" fill="#96D293"/>
<path d="M220.958 275.675V324.853C220.958 327.555 220.425 330.23 219.391 332.727C218.356 335.223 216.84 337.491 214.929 339.401C213.018 341.311 210.749 342.826 208.252 343.859C205.755 344.892 203.079 345.423 200.377 345.421H196.688V367.046L185.458 345.421H100.085C97.3834 345.421 94.7087 344.889 92.2132 343.856C89.7176 342.822 87.4501 341.307 85.5401 339.397C83.6301 337.487 82.115 335.219 81.0813 332.724C80.0477 330.228 79.5156 327.554 79.5156 324.853V275.675C79.5141 272.973 80.0451 270.298 81.0782 267.802C82.1114 265.305 83.6264 263.037 85.5367 261.127C87.447 259.217 89.7152 257.702 92.2114 256.669C94.7076 255.635 97.383 255.104 100.085 255.106H200.377C203.079 255.104 205.755 255.635 208.252 256.668C210.749 257.701 213.018 259.216 214.929 261.126C216.84 263.037 218.356 265.305 219.391 267.801C220.425 270.297 220.958 272.973 220.958 275.675Z" fill="url(#paint1_linear)"/>
<path d="M202.723 272.96H97.3379V278.854H202.723V272.96Z" fill="#96D293"/>
<path d="M202.723 288.506H97.3379V294.399H202.723V288.506Z" fill="#96D293"/>
<path d="M202.723 304.052H97.3379V309.945H202.723V304.052Z" fill="#96D293"/>
<path opacity="0.24" d="M228.107 442.721C228.107 442.721 218.489 430.099 209.475 442.118C200.461 454.137 229.905 468.557 229.905 468.557C229.905 468.557 250.938 453.475 248.525 444.519C246.112 435.563 232.933 433.104 228.107 442.721Z" fill="#96D293"/>
<path opacity="0.24" d="M228.107 442.721C228.107 442.721 218.489 430.099 209.475 442.118C200.461 454.137 229.905 468.557 229.905 468.557C229.905 468.557 250.938 453.475 248.525 444.519C246.112 435.563 232.933 433.104 228.107 442.721Z" fill="#96D293"/>
<path d="M441.474 218.412C441.474 218.412 431.857 205.79 422.842 217.809C413.828 229.828 443.272 244.248 443.272 244.248C443.272 244.248 464.305 229.225 461.892 220.211C459.479 211.196 446.277 208.83 441.474 218.412Z" fill="white"/>
<path opacity="0.24" d="M333.746 451.55C333.746 459.438 325.544 465.807 315.439 465.807C313.741 465.815 312.048 465.628 310.392 465.251L302.353 469.334L305.555 463.534C300.45 461.028 297.074 456.573 297.074 451.526C297.074 443.649 305.276 437.28 315.393 437.28C325.509 437.28 333.746 443.672 333.746 451.55Z" fill="#96D293"/>
<path opacity="0.24" d="M258.35 450.064L288.385 439.844L267.955 458.475L258.35 450.064Z" fill="#96D293"/>
<path opacity="0.24" d="M269.463 459.578L288.988 440.656L276.366 468.882L269.463 459.578Z" fill="#96D293"/>
<path opacity="0.24" d="M225.704 170.788C237.154 170.788 246.435 161.507 246.435 150.057C246.435 138.607 237.154 129.326 225.704 129.326C214.254 129.326 204.973 138.607 204.973 150.057C204.973 161.507 214.254 170.788 225.704 170.788Z" fill="#96D293"/>
<path d="M498.183 149.431C498.067 151.484 497.963 153.735 499.204 155.37C502.452 153.433 503.427 149.245 503.845 145.498C504.656 138.064 504.449 130.555 503.23 123.177C503.093 121.987 502.744 120.832 502.197 119.766C501.157 118.241 499.682 117.064 497.963 116.39C496.932 115.821 495.776 115.518 494.598 115.509C494.012 115.52 493.443 115.713 492.97 116.059C492.497 116.406 492.142 116.89 491.953 117.446C491.85 118.167 491.934 118.902 492.197 119.581C492.727 122.077 493.577 124.495 494.726 126.773C495.889 128.603 496.747 130.609 497.267 132.713C498.459 138.202 498.768 143.845 498.183 149.431Z" fill="url(#paint2_linear)"/>
<path d="M453.865 122.33C456.267 124.186 459.411 124.766 462.438 124.975C463.541 125.045 464.666 125.079 465.78 125.126C467.34 125.193 468.818 125.841 469.926 126.942C471.033 128.043 471.689 129.518 471.766 131.077C471.859 133.397 471.905 135.718 471.905 138.038C471.905 143.583 471.708 149.372 474.144 154.349C474.655 155.393 475.478 156.496 476.638 156.519C477.261 156.479 477.852 156.234 478.321 155.823C479.798 154.58 480.823 152.883 481.232 150.997C481.637 149.118 481.805 147.197 481.731 145.277C481.731 137.934 481.093 130.451 478.251 123.676C477.923 122.904 477.535 122.159 477.091 121.448C475.212 118.737 472.37 116.845 469.144 116.158C465.949 115.489 462.67 115.317 459.422 115.648C457.879 115.752 456.325 115.88 454.782 115.961C453.912 115.961 450.675 115.52 450.072 115.961C448.842 117.017 452.949 121.611 453.865 122.33Z" fill="url(#paint3_linear)"/>
<path d="M518.286 118.629C518.623 125.926 509.295 162.238 507.265 163.595C505.571 164.756 502.52 163.201 500.78 162.145C500.444 161.902 500.2 161.704 499.956 161.565C498.611 160.544 500.78 132.655 500.78 132.655C500.78 132.655 501.465 123.177 494.84 117.666C487.439 111.529 478.981 105.868 479.561 101.517C479.612 100.865 479.886 100.25 480.339 99.7772C484.051 95.3339 492.52 88.5704 496.963 91.8535L509.922 102.144C509.931 102.174 509.931 102.206 509.922 102.237C510.015 102.341 510.165 102.527 510.409 102.77C510.746 103.211 511.279 103.838 511.859 104.557C513.427 106.723 514.83 109.003 516.059 111.378C517.258 113.631 518.015 116.092 518.286 118.629Z" fill="#606161"/>
<path d="M499.77 113.269C501.684 116.332 501.939 115.149 503.343 122.11C504.747 129.07 503.343 157.841 501.8 160.881C501.559 161.374 501.21 161.806 500.779 162.145C500.443 161.902 500.199 161.705 499.955 161.565C498.61 160.544 500.779 132.655 500.779 132.655C500.779 132.655 501.464 123.177 494.839 117.666C494.839 117.666 495.849 111.378 491.255 107.805C487.622 105.25 483.696 103.138 479.561 101.517C480.094 101.32 488.064 91.8884 495.466 92.2365C502.183 92.5265 490.559 98.4895 499.77 113.269Z" fill="url(#paint4_linear)"/>
<path d="M489.375 160.834C488.618 163.028 487.359 165.014 485.698 166.635C483.911 168.132 481.208 168.758 479.271 167.552C476.95 166.148 476.556 163.155 476.324 160.591C475.547 151.507 475.5 135.695 474.723 126.611C474.643 125.589 474.179 124.635 473.424 123.943C472.266 123.053 470.957 122.381 469.56 121.959C466.811 121.042 463.377 120.323 460.813 118.629C459.909 118.055 459.122 117.315 458.493 116.448C453.945 110.218 452.251 97.5498 456.022 91.5055C456.522 90.5855 457.234 89.7981 458.1 89.2089C458.966 88.6197 459.959 88.2457 460.999 88.118C467.576 87.2943 479.421 91.5983 482.182 97.5498C483.053 99.4872 483.435 101.61 484.688 103.35C486.869 106.39 491.173 107.318 493.296 110.404C494.264 112.028 494.858 113.847 495.037 115.729C497.391 130.998 495.43 146.621 489.375 160.834Z" fill="#606161"/>
<path d="M474.631 121.727C474.83 122.171 474.924 122.656 474.906 123.143C474.888 123.629 474.758 124.106 474.527 124.534C474.144 124.337 473.808 124.093 473.367 123.896C472.114 123.223 470.815 122.539 469.504 121.912C467.671 121.089 465.733 120.323 463.796 119.592C462.787 119.256 461.766 118.919 460.756 118.536C459.852 117.962 459.065 117.222 458.436 116.355C453.888 110.125 452.195 97.457 455.965 91.4127C459.643 91.6563 463.216 93.3501 466.557 94.8931C468.541 95.8676 470.513 96.7841 472.358 97.8978C473.61 98.6171 476.174 99.6844 474.191 101.088C471.487 102.968 466.313 99.638 464.237 102.678C463.841 103.386 463.641 104.187 463.657 104.998C463.552 106.158 463.459 107.318 463.367 108.571C463.235 109.637 463.298 110.718 463.552 111.761C464.142 113.086 465.121 114.199 466.36 114.952C468.619 116.33 470.799 117.832 472.891 119.453C473.613 120.091 474.204 120.864 474.631 121.727Z" fill="url(#paint5_linear)"/>
<path d="M478.971 178.318C479.774 179.116 480.684 179.8 481.674 180.348L485.897 182.981C487.417 183.921 489.378 184.861 490.863 183.793C492.348 182.726 492.023 180.87 491.536 179.338C490.786 177.075 489.468 175.041 487.707 173.433C487.333 173.147 487.022 172.788 486.791 172.378C486.624 171.942 486.561 171.473 486.605 171.009V166.658C486.605 162.25 480.549 163.039 478.635 165.649C476.303 168.863 476.222 175.371 478.971 178.318Z" fill="#606161"/>
<path d="M500.142 172.9C501.187 174.524 502.718 175.778 504.516 176.485C506.239 177.302 508.033 177.963 509.875 178.457C510.249 178.616 510.656 178.681 511.06 178.647C511.465 178.613 511.855 178.48 512.196 178.26C512.487 177.933 512.68 177.531 512.753 177.099C513.059 175.723 513.027 174.293 512.657 172.933C512.287 171.573 511.591 170.323 510.63 169.292C509.759 168.543 508.981 167.694 508.309 166.763C507.486 165.313 507.66 163.538 507.509 161.879C507.184 158.236 501.383 159.187 499.98 161.542C498.576 163.897 498.901 170.614 500.142 172.9Z" fill="#606161"/>
<path d="M454.597 87.8977C454.496 89.3804 454.852 90.8584 455.618 92.1322C456.407 93.0223 457.392 93.7172 458.495 94.1624C463.878 96.8655 469.354 99.6034 475.27 100.717C481.187 101.831 487.718 101.146 492.51 97.5035C494.253 96.2788 495.574 94.5442 496.292 92.5382C497.057 90.0904 496.535 87.4569 496.408 84.893C496.071 78.5239 498.206 72.3173 499.691 66.099C501.176 59.8808 502.011 53.0709 499.146 47.3399C496.93 42.827 501.698 39.045 497.498 36.2955C491.582 32.4091 484.632 30.4949 474.934 31.9798C471.187 32.5367 458.367 37.7804 456.987 41.3304C455.606 44.8804 459.643 48.4652 459.179 52.2356C457.706 63.9992 454.597 76.1341 454.597 87.8977Z" fill="#96D293"/>
<path d="M511.778 68.2451C512.938 70.9017 513.912 74.2081 512.079 76.3659C511.403 77.0727 510.553 77.5886 509.614 77.8616C508.675 78.1345 507.68 78.1549 506.731 77.9205C504.854 77.4138 503.051 76.661 501.371 75.6814C500.265 75.241 499.273 74.5547 498.471 73.6744C497.38 72.2475 497.508 70.2753 497.578 68.4771C497.879 59.5906 495.35 50.8896 495.501 42.0147C495.501 40.6806 495.118 37.7222 496.777 37.1654C498.622 36.5505 499.167 39.4044 499.724 40.6458C501.638 44.8918 503.541 49.1495 505.397 53.4071C507.57 58.3338 509.697 63.2797 511.778 68.2451Z" fill="#96D293"/>
<path d="M497.369 64.4863L500.768 55.4373C501.043 54.7135 501.562 54.1086 502.236 53.7272C502.91 53.3459 503.696 53.2121 504.457 53.3491L510.444 54.4048C510.905 54.483 511.345 54.6589 511.733 54.9208C512.12 55.1827 512.448 55.5245 512.693 55.9233C512.938 56.3222 513.095 56.7688 513.153 57.2332C513.211 57.6976 513.17 58.1691 513.031 58.6161L508.216 73.8601C507.954 74.6811 507.382 75.3673 506.621 75.7725C505.861 76.1777 504.972 76.2699 504.144 76.0295L498.019 74.2893C497.6 74.1804 497.208 73.9893 496.864 73.7272C496.52 73.465 496.232 73.1371 496.016 72.7624C495.8 72.3878 495.66 71.9739 495.606 71.5449C495.552 71.1159 495.583 70.6804 495.699 70.2637L497.253 64.7531C497.253 64.6719 497.334 64.5791 497.369 64.4863Z" fill="#606161"/>
<path d="M462.264 88.9648C462.379 88.755 462.547 88.579 462.751 88.4544C463.053 88.3359 463.383 88.3037 463.702 88.3616C465.551 88.5298 467.411 88.5298 469.259 88.3616C469.839 88.3616 498.517 77.3752 496.661 76.4123C495.756 75.9483 482.334 73.9413 473.111 69.2428C465.245 65.2519 461.626 57.9316 458.516 62.7925C457.716 64.0454 455.663 80.67 455.164 82.0621C455.07 82.3864 455.024 82.7223 455.024 83.0598L454.816 87.2827C454.596 88.8526 454.792 90.4526 455.384 91.9232C456.359 93.8142 458.493 94.7655 460.465 95.5659C461.05 95.8724 461.721 95.9706 462.368 95.8444C461.405 93.6053 460.813 91.2271 462.264 88.9648Z" fill="url(#paint6_linear)"/>
<path d="M476.719 92.3525L488.656 92.4337C488.656 92.4337 486.139 96.5986 484.016 96.819L476.719 92.3525Z" fill="#96D293"/>
<path d="M451.93 54.347C452.291 60.3277 453.298 66.2517 454.934 72.0156C456.094 76.0876 457.742 80.3221 461.176 82.7931C464.293 84.8266 468.076 85.5749 471.733 84.8814C475.35 84.1796 478.86 83.0097 482.174 81.401L492.418 76.9693C493.234 76.6743 493.978 76.2075 494.599 75.6004C496.339 73.6166 494.529 70.287 492.047 69.3705C489.564 68.454 486.838 69.0225 484.193 69.0109C481.269 69.0109 475.677 70.6931 473.113 69.2893C472.606 69.0696 472.178 68.7016 471.884 68.2336C471.66 67.7031 471.584 67.1218 471.663 66.5514C471.919 58.7322 470.851 46.4813 464.03 42.0497C455.654 36.6319 451.524 47.6066 451.93 54.347Z" fill="#96D293"/>
<path d="M479.851 44.0334C480.959 44.6244 482.215 44.8798 483.465 44.7686C484.716 44.6573 485.907 44.1842 486.893 43.4069C487.819 42.5833 488.43 41.4639 488.622 40.2398C489.144 36.7594 486.22 33.5575 486.475 30.0655C486.603 28.3253 487.508 26.5851 486.893 24.9146C486.371 23.5224 478.598 21.2602 478.308 22.7219C476.371 33.047 471.382 39.7989 479.851 44.0334Z" fill="#F4A982"/>
<path d="M479.446 23.2323C479.446 23.2323 478.692 38.3835 486.813 37.3162C486.813 37.3162 488.089 37.1422 487.706 35.2744C487.323 33.4066 485.746 31.4808 485.839 29.8218C485.931 28.1628 479.446 23.2323 479.446 23.2323Z" fill="url(#paint7_linear)"/>
<path d="M499.794 13.8239C499.684 15.5901 499.215 17.3153 498.414 18.8936C497.369 21.3939 496.148 23.8169 494.76 26.1444C493.698 28.1744 492.233 29.9666 490.455 31.4113C489.542 32.1035 488.47 32.5555 487.337 32.7258C486.204 32.896 485.047 32.7791 483.97 32.3858C482.045 31.5621 480.826 29.6247 479.91 27.7453C478.48 24.7253 477.784 21.41 477.88 18.0699C478.019 15.5756 478.622 12.0373 480.826 10.4943C481.341 10.1361 481.951 9.93831 482.578 9.92584C483.39 9.92584 484.005 10.4479 484.748 10.5175C485.318 10.4746 485.88 10.3536 486.418 10.1579C487.091 10.0303 487.764 9.93745 488.448 9.86784C489.765 9.7576 491.088 9.7576 492.404 9.86784C493.51 9.94709 494.608 10.1139 495.688 10.3667C496.723 10.5386 497.709 10.9345 498.576 11.5268C498.936 11.7963 499.232 12.142 499.442 12.5391C499.653 12.9362 499.773 13.3749 499.794 13.8239Z" fill="#F4A982"/>
<path d="M504.216 62.6765C505.844 63.1284 507.271 64.1179 508.265 65.4839C508.489 65.7168 508.656 65.9989 508.752 66.3076C508.828 66.7042 508.762 67.1146 508.566 67.4678C507.232 70.2521 503.346 70.5305 501.072 72.6187C500.556 73.1888 500.01 73.731 499.436 74.2429C498.612 74.8119 497.68 75.2067 496.698 75.403C495.689 75.6582 494.657 75.867 493.636 76.0411C491.13 76.4587 489.865 73.976 490.039 71.7602C490.19 69.7764 491.199 69.0571 492.858 68.2798C496.327 66.5397 500.074 61.8412 504.216 62.6765Z" fill="#F4A982"/>
<path d="M478.018 15.1811C477.815 15.0878 477.592 15.0441 477.369 15.0535C477.193 15.0899 477.029 15.1665 476.888 15.2772C476.747 15.3879 476.634 15.5297 476.557 15.6916C476.42 16.0224 476.353 16.3778 476.359 16.7357C476.346 17.2657 476.397 17.7955 476.51 18.3134C476.577 18.7989 476.776 19.2568 477.085 19.6372C477.393 20.0177 477.801 20.3061 478.262 20.4713C478.684 20.5439 479.118 20.4603 479.484 20.2361C479.849 20.0119 480.12 19.6625 480.246 19.2531C480.34 18.4275 480.177 17.5929 479.778 16.8638C479.379 16.1347 478.765 15.5469 478.018 15.1811Z" fill="#F4A982"/>
<path d="M478.471 17.8842C478.321 17.6174 478.471 17.2809 478.471 16.9677C478.471 16.6545 478.054 16.3877 477.625 16.1788C477.594 16.1872 477.566 16.2019 477.542 16.2219C477.518 16.2419 477.499 16.2667 477.485 16.2948C477.31 16.5977 477.202 16.9346 477.168 17.2828C477.134 17.631 477.175 17.9824 477.288 18.3135C477.35 18.562 477.469 18.7926 477.636 18.9863C477.722 19.0826 477.831 19.1563 477.952 19.2008C478.074 19.2453 478.204 19.2593 478.332 19.2416C478.489 19.1921 478.629 19.1031 478.741 18.9832C478.853 18.8633 478.932 18.7165 478.97 18.5571C479.052 18.0698 478.692 18.2555 478.471 17.8842Z" fill="url(#paint8_linear)"/>
<path d="M489.132 0.192317C485.744 0.0995075 481.962 0.609961 479.793 3.20863C477.821 5.52888 477.763 8.93964 478.076 11.9908C478.128 12.7823 478.288 13.5629 478.551 14.311C479.108 15.7032 480.338 16.8401 480.442 18.3366C480.489 17.2793 480.853 16.2604 481.486 15.4122C482.119 14.564 482.992 13.9257 483.992 13.5801C484.858 13.341 485.751 13.2123 486.649 13.1973L494.967 12.7564C495.39 12.7077 495.818 12.7352 496.232 12.8376C496.793 13.1082 497.332 13.4224 497.844 13.7773C498.397 14.0045 498.999 14.0855 499.593 14.0123C500.186 13.9392 500.751 13.7144 501.232 13.3597C502.182 12.6361 502.972 11.7236 503.552 10.6798C504.256 9.76906 504.661 8.6628 504.712 7.51269C504.654 6.35257 503.656 5.19244 502.531 5.38966C502.206 5.38966 501.847 5.57528 501.591 5.38966C499.457 3.8119 501.881 0.459145 498.111 0.0531027C495.117 -0.0496904 492.121 -0.00322805 489.132 0.192317Z" fill="#606161"/>
<path d="M279.872 310.93H284.828L285.5 331.216H279.158L279.872 310.93ZM286.046 304.546C286.046 306.478 284.534 307.99 282.476 307.99C280.334 307.99 278.822 306.478 278.822 304.546C278.822 302.614 280.334 301.102 282.476 301.102C284.534 301.102 286.046 302.614 286.046 304.546ZM306.27 295.306C297.786 295.306 291.318 301.522 291.318 310.3C291.318 319.078 297.786 325.252 306.312 325.252C314.124 325.252 319.458 319.792 320.634 313.828V308.704H304.758V313.198H314.838C313.956 317.356 311.058 319.96 306.522 319.96C301.062 319.96 297.366 316.264 297.366 310.3C297.366 304.462 301.02 300.724 306.27 300.724C309.378 300.724 311.814 302.026 313.158 304.504H319.92C318.03 298.624 312.822 295.306 306.27 295.306ZM340.524 304.798C340.524 307.444 339.054 309.166 335.778 309.166H330.864V300.556H335.778C339.054 300.556 340.524 302.194 340.524 304.798ZM324.984 295.684V325H330.864V313.576H333.636L340.104 325H346.908L339.894 313.114C344.598 311.854 346.572 308.242 346.572 304.672C346.572 299.758 343.044 295.684 335.988 295.684H324.984ZM371.798 325H378.014L367.472 295.642H360.626L350.084 325H356.258L358.19 319.414H369.866L371.798 325ZM368.27 314.71H359.786L364.028 302.446L368.27 314.71ZM380.527 310.3C380.527 319.078 386.953 325.252 395.395 325.252C401.905 325.252 407.197 321.808 409.171 315.76H402.409C401.023 318.616 398.503 320.002 395.353 320.002C390.229 320.002 386.575 316.222 386.575 310.3C386.575 304.336 390.229 300.598 395.353 300.598C398.503 300.598 401.023 301.984 402.409 304.798H409.171C407.197 298.792 401.905 295.306 395.395 295.306C386.953 295.306 380.527 301.522 380.527 310.3ZM414.193 325H420.073V295.684H414.193V325ZM445.79 325H452.006L441.464 295.642H434.618L424.076 325H430.25L432.182 319.414H443.858L445.79 325ZM442.262 314.71H433.778L438.02 302.446L442.262 314.71ZM476.443 316.516C476.443 306.184 461.407 309.46 461.407 303.58C461.407 301.186 463.129 300.052 465.439 300.136C467.959 300.178 469.513 301.69 469.639 303.622H476.107C475.729 298.33 471.613 295.264 465.607 295.264C459.559 295.264 455.275 298.456 455.275 303.748C455.233 314.374 470.353 310.552 470.353 316.894C470.353 318.994 468.715 320.464 465.943 320.464C463.213 320.464 461.659 318.91 461.491 316.558H455.191C455.275 322.102 459.979 325.294 466.069 325.294C472.747 325.294 476.443 321.136 476.443 316.516ZM483.515 315.466H488.471L489.143 295.18H482.801L483.515 315.466ZM489.689 321.85C489.689 319.918 488.177 318.406 486.119 318.406C483.977 318.406 482.465 319.918 482.465 321.85C482.465 323.782 483.977 325.294 486.119 325.294C488.177 325.294 489.689 323.782 489.689 321.85Z" fill="black"/>
<defs>
<linearGradient id="paint0_linear" x1="657.792" y1="257.856" x2="455.931" y2="259.456" gradientUnits="userSpaceOnUse">
<stop stop-color="white" stop-opacity="0"/>
<stop offset="0.95" stop-color="white"/>
</linearGradient>
<linearGradient id="paint1_linear" x1="18632.5" y1="39505.8" x2="19632.4" y2="9168.31" gradientUnits="userSpaceOnUse">
<stop stop-color="white" stop-opacity="0"/>
<stop offset="0.95" stop-color="white"/>
</linearGradient>
<linearGradient id="paint2_linear" x1="491.721" y1="137.504" x2="527.627" y2="122.527" gradientUnits="userSpaceOnUse">
<stop stop-color="#010101" stop-opacity="0"/>
<stop offset="0.95" stop-color="#010101"/>
</linearGradient>
<linearGradient id="paint3_linear" x1="-40978.9" y1="5122.51" x2="-38880.8" y2="4322.45" gradientUnits="userSpaceOnUse">
<stop stop-color="#010101" stop-opacity="0"/>
<stop offset="0.95" stop-color="#010101"/>
</linearGradient>
<linearGradient id="paint4_linear" x1="-30100" y1="8320.92" x2="-31519.1" y2="8048.67" gradientUnits="userSpaceOnUse">
<stop stop-color="#010101" stop-opacity="0"/>
<stop offset="0.95" stop-color="#010101"/>
</linearGradient>
<linearGradient id="paint5_linear" x1="-26673.3" y1="3280.02" x2="-27477.4" y2="3226.81" gradientUnits="userSpaceOnUse">
<stop stop-color="#010101" stop-opacity="0"/>
<stop offset="0.95" stop-color="#010101"/>
</linearGradient>
<linearGradient id="paint6_linear" x1="-53223" y1="2667.63" x2="-56252.1" y2="1817.6" gradientUnits="userSpaceOnUse">
<stop stop-color="#010101" stop-opacity="0"/>
<stop offset="0.95" stop-color="#010101"/>
</linearGradient>
<linearGradient id="paint7_linear" x1="-10227.9" y1="505.894" x2="-9713.73" y2="135.946" gradientUnits="userSpaceOnUse">
<stop stop-color="#010101" stop-opacity="0"/>
<stop offset="0.95" stop-color="#010101"/>
</linearGradient>
<linearGradient id="paint8_linear" x1="-1865.13" y1="71.8722" x2="-1851.92" y2="70.784" gradientUnits="userSpaceOnUse">
<stop stop-color="#010101" stop-opacity="0"/>
<stop offset="0.95" stop-color="#010101"/>
</linearGradient>
</defs>
</svg>
