<svg width="415" height="395" viewBox="0 0 415 395" fill="none" xmlns="http://www.w3.org/2000/svg">
<g clip-path="url(#clip0)">
<path opacity="0.24" d="M144.001 13.3841C125.545 27.639 116.035 50.529 100.151 67.5978C76.9159 92.5922 41.3184 103.824 19.8084 130.277C-5.06223 160.835 -5.17506 206.486 11.9507 241.986C20.7433 260.248 33.9926 278.929 29.9066 298.756C27.9402 308.374 22.0086 316.776 19.6714 326.306C15.5532 343.084 23.5318 361.209 36.4668 372.65C49.4018 384.091 66.5276 389.719 83.5728 392.501C139.721 401.652 196.49 382.825 253.364 381.818C270.135 381.511 286.987 382.761 303.645 380.785C347.108 375.641 386.655 347.672 408.455 309.729C411.824 303.883 414.902 297.546 414.983 290.798C415.096 283.92 412.154 277.414 409.406 271.108C400.541 250.823 393.013 229.715 390.555 207.728C387.96 184.628 391.055 161.23 389.371 138.042C386.308 95.9543 363.92 52.5286 324.744 36.895C292.902 24.1882 254.669 33.6215 224.004 18.254C211.109 11.8039 206.838 1.9351 190.905 0.338686C174.432 -1.32223 157.169 3.18482 144.001 13.3841Z" fill="#96D293" fill-opacity="0.35"/>
<path opacity="0.24" d="M126.4 336.682C108.895 336.586 87.8927 338.456 79.6562 353.921C107.251 372.465 142.445 374.65 175.706 374.658C191.018 374.658 206.419 374.335 221.603 372.239C242.339 369.336 262.447 363.128 282.458 356.92L305.112 349.921C307.264 349.252 309.795 348.18 310.117 345.946C312.446 330.168 247.255 337.037 236.931 337.311C200.173 338.263 163.19 336.9 126.4 336.682Z" fill="#96D293"/>
<path d="M182.783 86.2871C182.783 86.2871 167.583 92.8744 165.794 94.3498C164.183 95.6882 168.534 187.015 168.865 191.481C169.195 195.948 193.51 196.69 204.051 194.674C211.076 193.23 217.948 191.127 224.578 188.393C224.578 188.393 227.907 94.0596 225.835 92.3906C223.764 90.7216 203.64 84.473 203.64 84.473L182.783 86.2871Z" fill="#96D293"/>
<path d="M219.299 91.4471C219.299 91.4471 223.941 91.1408 227.1 93.0597C230.259 94.9786 259.982 120.973 260.723 128.624C261.465 136.276 255.493 141.113 252.89 140.589C250.286 140.065 242.268 132.188 240.47 129.713C238.673 127.237 222.74 123.94 222.74 123.94L219.299 91.4471Z" fill="#96D293"/>
<path d="M167.72 138.396C167.723 138.924 167.928 139.431 168.292 139.813C168.656 140.195 169.152 140.424 169.678 140.452C179.398 142.541 188.891 136.824 198.627 134.808C203.043 133.913 207.694 133.76 211.747 131.785C216.712 129.366 220.04 124.593 223.135 120.013L231.194 108.145C232.476 106.242 233.789 103.767 232.588 101.816C231.654 100.3 229.518 99.9291 227.817 100.469C226.117 101.01 224.763 102.251 223.425 103.428C216.712 109.323 209.34 114.42 201.456 118.618C198.107 120.492 194.561 121.987 190.882 123.077C184.435 124.851 172.894 123.359 166.382 123.642C166.35 123.674 166.914 133.986 167.72 138.396Z" fill="url(#paint0_linear)"/>
<path d="M252.712 116.675C254.565 117.516 256.173 118.815 257.386 120.449C259.49 123.319 263.116 127.487 263.834 130.93C264.688 134.921 261.126 140.565 257.024 141.283C254.503 141.664 251.926 141.379 249.549 140.455C247.172 139.531 245.079 138.002 243.476 136.018C241.908 133.997 240.836 131.636 240.346 129.126C239.856 126.615 239.962 124.024 240.655 121.561C242.324 115.49 248.038 114.547 252.712 116.675Z" fill="#96D293"/>
<path d="M210.491 341.488C210.491 341.488 208.669 353.509 209.685 354.872C210.7 356.235 216.438 355.791 219.993 355.001C223.547 354.211 224.409 349.615 224.409 349.615L224.651 345.834L210.491 341.488Z" fill="#BA816C"/>
<path d="M161.539 335.884C161.539 335.884 157.897 352.195 158.751 353.622C159.605 355.049 166.004 351.51 169.599 351.066C173.193 350.623 173.539 344.818 173.539 344.818L174.152 341.077L161.539 335.884Z" fill="#BA816C"/>
<path d="M182.113 77.3617C182.113 77.3617 183.451 87.0934 182.387 90.6974C181.324 94.3014 186.264 105.089 193.59 105.75C200.915 106.412 202.044 93.9467 202.181 92.4792C202.318 91.0118 200.182 90.0604 201.238 86.4806C202.294 82.9008 183.242 73.0239 182.113 77.3617Z" fill="#BA816C"/>
<path d="M201.238 86.4725C200.432 89.2541 201.504 90.4474 201.979 91.5197C200.22 92.9779 197.984 93.7358 195.701 93.6483C191.301 93.2451 185.031 88.988 182.694 82.1186L182.573 81.7397C182.371 79.2805 182.113 77.3535 182.113 77.3535C183.242 73.0239 202.302 82.8765 201.238 86.4725Z" fill="#A6634C"/>
<path d="M182.654 89.3267C182.654 89.3267 187.313 103.703 192.221 105.621C192.221 105.621 193.526 106.476 189.666 108.347C185.805 110.217 176.529 98.2925 178.721 90.3587C178.964 89.3484 179.462 88.4174 180.168 87.655C180.873 86.8926 181.763 86.3244 182.751 86.0049L182.654 89.3267Z" fill="white"/>
<path d="M201.11 87.94C201.11 87.94 201.819 98.2602 197.08 104.872C197.08 104.872 198.595 107.645 200.062 107.774C201.529 107.903 205.985 99.4374 205.115 92.705C204.599 88.8027 201.94 86.9563 201.11 87.94Z" fill="white"/>
<path d="M169.598 191.562L166.576 253.209L160.781 338.674C160.781 338.674 164.11 342.665 173.676 342.794L190.931 255.854L199.038 211.67L206.034 254.741L208.943 344.503C208.943 344.503 215.721 344.64 224.513 345.439L230.219 256.918L224.578 188.385L169.598 191.562Z" fill="#606161"/>
<path d="M169.598 191.562L166.576 253.209L160.781 338.674C160.781 338.674 164.11 342.665 173.676 342.794L190.931 255.854L199.038 211.67L206.034 254.741L208.943 344.503C208.943 344.503 215.721 344.64 224.513 345.439L230.219 256.918L224.578 188.385L169.598 191.562Z" fill="url(#paint1_linear)"/>
<path d="M208.216 58.2692C208.216 58.2692 207.967 77.4665 206.032 82.4573C204.098 87.4481 199.311 91.4714 194.911 91.0683C190.51 90.6651 184.248 86.408 181.911 79.5467C179.574 72.6853 179.558 56.3986 180.493 54.2862C181.428 52.1738 186.473 45.6188 198.078 47.7393C206.081 49.2067 208.482 55.3344 208.216 58.2692Z" fill="#BA816C"/>
<path d="M200.36 42.7485C198.954 41.1638 197.261 39.859 195.371 38.9026C193.484 38.0869 191.455 37.6486 189.4 37.6125C185.459 37.4271 181.018 38.3785 178.858 41.6439C177.456 43.7966 177.303 46.4815 177.456 49.0858C177.507 49.4325 177.462 49.7865 177.327 50.1097C176.924 50.8676 175.828 50.7144 174.974 50.7064C171.581 50.7064 169.284 54.7377 170.041 58.0354C171.041 62.3812 175.296 63.2439 177.19 66.6302C177.496 67.1785 177.923 67.7912 178.552 67.8074C179.358 67.8074 179.785 66.9205 180.019 66.1948C181.195 62.3247 180.671 58.6884 183.452 55.2779C183.629 55.0104 183.899 54.8179 184.209 54.7377C185.16 54.6329 185.305 56.4067 186.256 56.5438C187.127 55.4311 188.376 54.1733 189.73 54.6007C190.519 54.988 191.163 55.6182 191.567 56.3986C192.676 57.9494 194.085 59.2615 195.71 60.2571C197.335 61.2527 199.143 61.9114 201.028 62.1942C202.913 62.4769 204.835 62.378 206.68 61.9032C208.526 61.4284 210.257 60.5874 211.772 59.4302C212.845 58.6984 213.647 57.6328 214.053 56.3986C214.496 54.7377 213.738 53.0204 212.957 51.4885C212.374 50.1511 211.555 48.9301 210.539 47.8844C210.02 47.3645 209.38 46.9812 208.677 46.7687C207.974 46.5563 207.229 46.5213 206.509 46.667C205.922 46.948 205.273 47.0756 204.623 47.0378C204.197 46.8756 203.826 46.5961 203.551 46.2316C202.472 45.1109 201.44 43.8934 200.36 42.7485Z" fill="#606161"/>
<path d="M180.839 66.8801C180.839 66.8801 180.501 62.4134 177.438 63.6147C174.376 64.8161 177.309 73.2174 178.712 74.0962C179.331 74.5591 180.069 74.8385 180.839 74.9025" fill="#BA816C"/>
<path d="M249.649 129.382C249.649 129.382 245.773 123.48 254.388 117.345C263.003 111.209 289.558 94.245 289.558 94.245L291.242 104.041C291.242 104.041 265.63 137.026 258.957 135.953C257.008 135.64 255.156 134.886 253.542 133.747C251.929 132.608 250.597 131.115 249.649 129.382Z" fill="#BA816C"/>
<path d="M289.559 94.2449C290.223 93.0748 290.947 91.9392 291.727 90.8425C292.218 90.1571 292.839 89.6008 293.338 88.9477C294.088 87.9641 293.798 86.0371 293.854 84.8035C293.852 83.4348 294.178 82.0855 294.805 80.8689C294.918 80.64 295.102 80.4535 295.329 80.3368C295.481 80.2889 295.642 80.2831 295.797 80.32C295.952 80.3569 296.094 80.4352 296.207 80.5464C296.436 80.774 296.613 81.0493 296.723 81.3527C297.303 82.6596 297.657 84.0554 297.771 85.4808C297.843 86.537 298.158 87.3755 299.23 86.9401C300.251 86.5339 301.313 86.2366 302.397 86.0532C303.372 85.8839 306.426 85.247 306.797 86.6982C307.474 89.3106 303.275 98.881 303.009 99.5986C302.743 100.316 291.235 104.089 291.235 104.089L289.559 94.2449Z" fill="#BA816C"/>
<path d="M146.588 355.21C145.927 355.831 145.226 356.613 145.363 357.508C145.5 358.403 146.33 358.927 147.12 359.306C152.6 361.935 159.048 361.491 165.011 360.266C167.22 359.814 169.533 359.185 171.08 357.541C171.941 356.565 172.56 355.399 172.885 354.138C173.364 352.496 173.525 350.777 173.361 349.075C173.372 348.739 173.305 348.406 173.165 348.101C173.025 347.796 172.816 347.527 172.555 347.317C172.206 347.151 171.82 347.076 171.434 347.099C167.461 347.011 161.723 345.697 158.072 347.285C153.797 349.211 149.906 351.897 146.588 355.21Z" fill="#606161"/>
<path d="M212.174 350.534C211.241 350.297 210.263 350.311 209.337 350.574C208.78 350.841 208.302 351.249 207.953 351.759C207.603 352.268 207.394 352.861 207.347 353.477C207.265 354.713 207.407 355.953 207.766 357.138C207.921 358.158 208.319 359.125 208.926 359.959C209.777 360.799 210.872 361.347 212.053 361.524C214.279 361.967 216.538 362.218 218.807 362.273L233.072 363.039C234.131 363.222 235.22 363.019 236.142 362.467C236.626 361.994 236.938 361.373 237.027 360.702C237.116 360.031 236.978 359.349 236.634 358.766C235.912 357.62 234.918 356.67 233.74 356.001C231 354.187 227.124 351.163 223.82 350.663C222.248 350.405 220.29 350.978 218.678 350.986C216.502 351.001 214.327 350.85 212.174 350.534Z" fill="#606161"/>
<path d="M146.588 355.21C145.927 355.831 145.226 356.613 145.363 357.508C145.5 358.403 146.33 358.927 147.12 359.306C152.6 361.935 159.048 361.491 165.011 360.266C167.22 359.814 169.533 359.185 171.08 357.541C171.941 356.565 172.56 355.399 172.885 354.138C173.364 352.496 173.525 350.777 173.361 349.075C173.372 348.739 173.305 348.406 173.165 348.101C173.025 347.796 172.816 347.527 172.555 347.317C172.206 347.151 171.82 347.076 171.434 347.099C167.461 347.011 161.723 345.697 158.072 347.285C153.797 349.211 149.906 351.897 146.588 355.21Z" fill="url(#paint2_linear)"/>
<path d="M212.174 350.534C211.241 350.297 210.263 350.311 209.337 350.574C208.78 350.841 208.302 351.249 207.953 351.759C207.603 352.268 207.394 352.861 207.347 353.477C207.265 354.713 207.407 355.953 207.766 357.138C207.921 358.158 208.319 359.125 208.926 359.959C209.777 360.799 210.872 361.347 212.053 361.524C214.279 361.967 216.538 362.218 218.807 362.273L233.072 363.039C234.131 363.222 235.22 363.019 236.142 362.467C236.626 361.994 236.938 361.373 237.027 360.702C237.116 360.031 236.978 359.349 236.634 358.766C235.912 357.62 234.918 356.67 233.74 356.001C231 354.187 227.124 351.163 223.82 350.663C222.248 350.405 220.29 350.978 218.678 350.986C216.502 351.001 214.327 350.85 212.174 350.534Z" fill="url(#paint3_linear)"/>
<path d="M338.575 154.764C338.517 154.428 338.526 154.084 338.602 153.751C338.678 153.419 338.82 153.105 339.019 152.829C340.937 150.659 342.402 148.128 343.328 145.383C344.254 142.639 344.622 139.737 344.41 136.848C344.162 131.786 341.954 127.019 338.253 123.558C334.552 120.096 329.65 118.212 324.585 118.304L279.55 119.038C279.545 118.609 279.569 118.181 279.622 117.756C280.283 113.394 280.904 109.04 281.613 104.702C282.612 98.9486 282.379 93.0483 280.928 87.3917C278.929 79.587 275.786 72.2257 272.393 64.937C270.669 61.212 268.227 58.3982 264.447 56.705C256.863 53.3106 249.473 53.1735 242.381 57.8983C237.844 60.9137 235.224 64.8806 235.579 70.6696C235.95 77.1198 235.789 83.4974 235.966 89.9314C236.086 91.4954 235.852 93.0663 235.281 94.5272C234.66 95.922 233.669 97.0508 233.065 98.4859C232.509 99.6229 231.893 100.729 231.219 101.8C229.978 104.073 228.729 106.331 227.415 108.556C223.555 115.176 219.912 121.94 215.141 127.979C213.239 130.398 211.184 132.704 209.129 135.018C208.573 135.647 207.936 136.034 207.001 135.316C204.991 133.874 202.548 133.166 200.078 133.309C182.434 133.578 164.795 133.86 147.162 134.155C140.086 134.268 135.161 139.719 135.726 146.79C136.282 153.24 136.91 159.69 137.515 166.076C138.039 171.937 138.514 177.799 139.127 183.636C139.787 190.659 140.521 197.681 141.206 204.696C141.689 209.469 142.076 214.234 142.576 219.007C142.747 219.701 143.019 220.367 143.382 220.983L142.689 221.096C143.043 223.514 142.963 226.175 143.857 228.416C146.557 235.117 151.771 236.173 157.63 235.6C157.751 235.6 157.816 235.246 157.904 235.052C158.67 235.316 159.461 235.495 160.266 235.584C174.273 235.375 188.304 235.173 202.311 234.891C204.437 234.938 206.527 234.337 208.303 233.168C210.079 231.998 211.458 230.316 212.256 228.344C212.877 226.686 213.381 224.986 213.763 223.256C214.394 223.515 215.007 223.814 215.6 224.151C217.422 225.216 219.283 226.352 220.984 227.521C221.342 227.787 221.725 228.016 222.128 228.207C222.953 228.478 223.804 228.659 224.667 228.747C225.647 228.976 226.65 229.098 227.657 229.11C238.698 228.997 249.715 228.795 260.699 228.618C274.231 228.392 287.835 228.215 301.398 227.908L305.758 227.804C307.753 227.749 309.706 227.221 311.456 226.264C314.503 224.47 317.376 222.397 320.039 220.072C326.487 214.428 329.356 207.421 327.244 198.786C327.207 198.048 327.43 197.321 327.873 196.73C328.969 195.117 330.202 193.602 331.266 191.973C331.524 191.586 331.346 190.925 331.354 190.401C332.41 190.997 332.322 189.933 332.483 189.506C334.175 185.321 334.095 181.016 333.152 176.686C333.085 176.352 333.087 176.008 333.159 175.675C333.231 175.342 333.372 175.027 333.571 174.751C338.995 169.043 340.357 162.318 338.575 154.764ZM200.82 155.401L201.9 221.249C201.94 223.482 201.94 223.482 199.659 223.514C185.241 223.756 170.831 223.966 156.422 224.248C154.81 224.296 154.326 223.829 154.181 222.265C153.558 214.739 152.873 207.214 152.126 199.689C151.497 193.094 150.772 186.498 150.168 179.903C149.62 174.259 149.168 168.615 148.653 162.915C148.185 157.747 147.718 152.571 147.162 147.402C146.992 145.935 147.492 145.612 148.886 145.621C160.806 145.467 172.701 145.25 184.621 145.056C188.65 144.992 192.68 144.943 196.758 144.951C197.029 144.931 197.302 144.959 197.564 145.032C198.038 145.217 198.438 145.555 198.7 145.991C199.588 146.993 200.15 148.242 200.312 149.571C200.333 149.982 200.406 150.388 200.53 150.781C200.602 151.111 200.675 151.418 200.755 151.772C200.869 152.981 200.896 154.196 200.836 155.409L200.82 155.401ZM327.164 148.144C326.463 148.588 325.681 148.91 325.004 149.37C323.521 150.369 323.392 151.345 324.698 152.538C328.389 156.013 330.113 162.802 324.939 167.503C323.287 168.953 321.485 170.224 319.564 171.292C317.686 172.373 317.444 173.493 319.145 174.791C320.008 175.399 320.736 176.179 321.283 177.083C321.829 177.986 322.182 178.993 322.32 180.04C322.433 180.846 322.659 181.653 322.836 182.459C321.925 187.99 318.323 191.207 313.495 193.4C311.626 194.206 311.456 195.126 312.971 196.424C314.704 197.791 315.937 199.693 316.477 201.834C317.525 206.115 315.486 209.09 312.609 211.783C311.996 212.364 311.319 212.847 310.707 213.396C307.991 215.814 304.92 216.701 301.213 216.709C285.353 216.782 269.492 217.137 253.607 217.419C253.092 217.419 252.568 217.556 252.044 217.612C251.47 217.523 250.892 217.469 250.311 217.451L241.253 217.596L236.675 217.677C235.321 217.829 233.953 217.808 232.605 217.612C232.339 217.564 232.066 217.564 231.799 217.612C230.886 217.792 229.963 217.916 229.035 217.983C228.185 217.966 227.345 217.8 226.553 217.491C225.011 216.801 223.533 215.976 222.136 215.024C220.79 214.218 219.493 213.331 218.107 212.605C217.572 212.287 216.964 212.114 216.342 212.106C214.416 212.106 212.514 212.106 210.596 212.178C209.435 212.243 209.096 211.848 209.072 210.687C209.072 204.317 208.887 197.923 208.782 191.562C208.565 178.073 208.371 164.6 208.097 151.111C208.097 149.539 208.363 148.563 209.919 147.806C215.906 144.879 220.146 140.033 224.03 134.768C229.116 127.715 233.746 120.344 237.892 112.7L240.527 108.024C242.647 104.194 244.742 100.356 246.822 96.4703C247.192 95.6811 247.379 94.8184 247.37 93.9466C247.359 93.598 247.297 93.2528 247.184 92.9227C247.131 92.5625 247.109 92.1982 247.12 91.8342L247.079 89.2219C247.079 87.4911 247.058 85.7576 247.015 84.0214L246.846 73.5883C246.805 72.4031 246.781 71.2179 246.765 70.0488C246.735 69.6164 246.811 69.1832 246.987 68.7869C247.163 68.3907 247.432 68.0433 247.773 67.7751C251.891 64.1469 257.25 64.9854 261.07 67.6541C262.126 68.3959 262.513 70.1294 263.149 71.4436C266.052 77.4934 268.407 83.7914 270.185 90.262C271.475 95.0996 271.176 99.9372 270.354 104.775C269.07 112.236 267.775 119.702 266.47 127.173C266.293 128.197 266.172 129.245 266.027 130.398C266.363 130.445 266.702 130.469 267.042 130.471C286.183 130.156 305.347 129.914 324.504 129.511C330.25 129.366 334.175 134.478 333.248 139.936C332.596 143.726 330.331 146.257 327.18 148.16L327.164 148.144Z" fill="#96D293"/>
<path opacity="0.54" d="M338.293 153.062C338.23 152.727 338.237 152.383 338.312 152.05C338.386 151.718 338.528 151.404 338.728 151.127C340.646 148.956 342.112 146.423 343.039 143.678C343.966 140.932 344.336 138.029 344.127 135.139C343.885 130.07 341.68 125.295 337.98 121.825C334.279 118.354 329.373 116.461 324.302 116.546L279.251 117.296C279.255 116.862 279.282 116.429 279.332 115.998C280 111.636 280.605 107.299 281.33 102.961C282.327 97.2038 282.09 91.3009 280.637 85.6421C278.638 77.8374 275.487 70.46 272.111 63.1713C270.378 59.4463 267.952 56.6405 264.164 54.9635C256.564 51.553 249.19 51.4078 242.082 56.1487C237.545 59.1561 234.942 63.1149 235.288 68.9281C235.667 75.3218 235.49 81.7397 235.667 88.1818C235.789 89.7438 235.564 91.3135 235.006 92.7776C234.369 94.1724 233.394 95.2931 232.774 96.7444C232.214 97.8737 231.598 98.9743 230.928 100.042C229.687 102.324 228.438 104.581 227.116 106.807C223.272 113.426 219.629 120.191 214.858 126.23C212.948 128.649 210.901 130.946 208.846 133.26C208.741 133.44 208.596 133.592 208.424 133.708C208.251 133.823 208.054 133.897 207.849 133.925C207.643 133.953 207.433 133.934 207.236 133.869C207.039 133.804 206.859 133.695 206.71 133.551C204.699 132.124 202.265 131.419 199.803 131.551C182.143 131.815 164.493 132.083 146.855 132.357C139.803 132.478 134.862 137.937 135.443 144.992C135.991 151.442 136.627 157.892 137.232 164.342C137.756 170.18 138.215 176.049 138.795 181.887C139.456 188.917 140.182 195.916 140.875 202.938C141.366 207.711 141.745 212.477 142.261 217.25C142.435 217.948 142.706 218.618 143.067 219.241L142.374 219.33C142.72 221.821 142.664 224.417 143.558 226.675C146.242 233.351 151.448 234.423 157.315 233.843C157.428 233.843 157.485 233.496 157.606 233.294C158.36 233.564 159.145 233.74 159.943 233.818C173.958 233.617 188.005 233.415 201.996 233.149C204.122 233.194 206.212 232.59 207.987 231.417C209.762 230.245 211.138 228.56 211.933 226.586C212.571 224.934 213.075 223.232 213.44 221.499C214.07 221.764 214.686 222.063 215.285 222.394C217.107 223.466 218.96 224.595 220.661 225.78C221.03 226.03 221.418 226.251 221.821 226.441C222.645 226.714 223.496 226.898 224.36 226.989C225.338 227.221 226.337 227.348 227.342 227.368C238.375 227.255 249.392 227.054 260.433 226.876C273.956 226.643 287.536 226.473 301.124 226.151L305.484 226.07C307.477 226.004 309.426 225.468 311.173 224.506C314.208 222.735 317.071 220.683 319.724 218.378C326.172 212.734 329.057 205.744 326.977 197.101C326.935 196.361 327.161 195.631 327.614 195.045C328.686 193.432 329.927 191.925 330.999 190.272C331.257 189.901 331.088 189.232 331.088 188.716C332.151 189.32 332.039 188.248 332.208 187.821C333.755 183.723 333.988 179.246 332.877 175.009C332.813 174.674 332.819 174.329 332.894 173.996C332.968 173.664 333.111 173.35 333.312 173.074C338.696 167.317 340.049 160.609 338.293 153.062ZM199.368 221.821C184.95 222.047 170.557 222.248 156.131 222.539C154.519 222.595 154.027 222.103 153.882 220.547C153.27 213.025 152.577 205.543 151.827 198.02C151.223 191.433 150.473 184.838 149.861 178.25C149.345 172.55 148.877 166.914 148.362 161.246C147.894 156.07 147.435 150.894 146.887 145.717C146.709 144.274 147.201 143.96 148.595 143.96C160.523 143.782 172.402 143.581 184.338 143.379C188.367 143.323 192.397 143.266 196.475 143.29C196.745 143.253 197.019 143.272 197.281 143.347C197.744 143.548 198.136 143.882 198.409 144.306C199.316 145.3 199.893 146.551 200.061 147.886C200.081 148.298 200.148 148.707 200.263 149.104C200.343 149.45 200.432 149.741 200.488 150.111C200.608 151.304 200.627 152.504 200.545 153.699L201.649 219.531C201.649 221.757 201.649 221.757 199.368 221.821ZM332.933 138.203C332.272 142.017 330.016 144.532 326.865 146.443C326.172 146.878 325.39 147.193 324.697 147.66C323.222 148.668 323.085 149.652 324.407 150.837C328.082 154.304 329.814 161.101 324.64 165.785C322.986 167.24 321.184 168.518 319.265 169.599C317.387 170.671 317.153 171.8 318.862 173.098C319.721 173.705 320.444 174.483 320.986 175.384C321.529 176.284 321.878 177.288 322.013 178.331C322.126 179.137 322.36 179.984 322.529 180.75C321.634 186.297 318.024 189.506 313.196 191.707C311.318 192.513 311.149 193.408 312.68 194.714C314.409 196.079 315.637 197.979 316.17 200.116C317.218 204.422 315.195 207.373 312.302 210.09C311.697 210.67 311.028 211.13 310.424 211.702C307.708 214.121 304.613 215 300.914 215C285.045 215.089 269.209 215.436 253.316 215.726C252.793 215.726 252.277 215.863 251.753 215.895C251.229 215.927 250.568 215.75 250.02 215.75L240.946 215.895L236.384 215.984C235.027 216.14 233.655 216.111 232.306 215.895C232.039 215.854 231.767 215.854 231.5 215.895C230.585 216.078 229.659 216.205 228.728 216.274C227.886 216.256 227.054 216.09 226.27 215.782C224.73 215.101 223.25 214.292 221.845 213.363C220.491 212.557 219.186 211.654 217.816 210.945C217.293 210.608 216.681 210.437 216.059 210.453C214.149 210.396 212.239 210.396 210.305 210.509C209.144 210.566 208.797 210.162 208.797 209.001C208.797 202.648 208.596 196.254 208.515 189.893C208.282 176.388 208.08 162.915 207.822 149.442C207.822 147.886 208.08 146.903 209.636 146.12C215.624 143.202 219.871 138.372 223.739 133.083C228.838 126.039 233.474 118.67 237.617 111.023C238.48 109.459 239.374 107.927 240.244 106.363C242.356 102.517 244.467 98.6714 246.547 94.8013C246.913 94.0137 247.1 93.1545 247.095 92.2857C247.084 91.9325 247.024 91.5826 246.917 91.2457C246.863 90.8909 246.836 90.5323 246.837 90.1733V87.5449C246.837 85.8114 246.837 84.0779 246.78 82.3364L246.603 71.9274C246.547 70.7422 246.547 69.5086 246.523 68.3718C246.47 67.9408 246.528 67.5035 246.692 67.1013C246.855 66.6991 247.119 66.3455 247.457 66.0739C251.56 62.4295 256.935 63.2681 260.755 65.9288C261.819 66.6786 262.198 68.4121 262.834 69.7102C265.745 75.7501 268.105 82.0403 269.886 88.5043C271.184 93.342 270.869 98.1796 270.055 103.017C268.758 110.475 267.46 117.909 266.155 125.399C265.986 126.439 265.865 127.479 265.72 128.624C266.056 128.677 266.395 128.704 266.735 128.705C285.868 128.391 305.024 128.157 324.189 127.754C325.497 127.723 326.796 127.987 327.988 128.527C329.18 129.066 330.236 129.868 331.076 130.872C331.916 131.876 332.519 133.056 332.841 134.325C333.162 135.595 333.194 136.92 332.933 138.203Z" fill="url(#paint4_linear)"/>
<path d="M199.263 224.103C184.846 224.337 170.452 224.538 156.034 224.829C154.422 224.885 153.922 224.393 153.777 222.829C153.173 215.315 152.48 207.824 151.722 200.31C151.118 193.715 150.368 187.127 149.756 180.532C149.24 174.84 148.781 169.204 148.257 163.536C147.797 158.36 147.33 153.183 146.782 148.007C146.613 146.564 147.104 146.241 148.491 146.241C160.426 146.072 172.297 145.871 184.233 145.669C188.263 145.604 192.292 145.548 196.378 145.58C196.648 145.533 196.924 145.553 197.184 145.637C197.645 145.838 198.037 146.168 198.312 146.588C199.218 147.586 199.795 148.839 199.965 150.176C199.984 150.588 200.051 150.997 200.166 151.393C200.26 151.725 200.335 152.061 200.392 152.401C200.518 153.593 200.54 154.794 200.456 155.989L201.552 221.821C201.568 224.022 201.568 224.022 199.263 224.103Z" fill="white"/>
<path d="M140.819 161.165C147.363 164.116 154.03 166.777 160.822 169.147C162.525 169.814 164.307 170.259 166.124 170.47C170.219 170.768 174.079 168.769 177.697 166.833C179.535 165.842 181.663 164.318 181.348 162.254C181.176 161.576 180.814 160.962 180.304 160.483C179.794 160.005 179.158 159.682 178.471 159.553C177.098 159.32 175.703 159.244 174.313 159.327C169.316 159.246 164.642 157.045 160.249 154.602C155.269 151.821 150.417 148.596 146.799 144.193C146.352 143.513 145.739 142.958 145.017 142.581C144.37 142.374 143.678 142.352 143.019 142.516C133.259 144.347 132.099 157.247 140.819 161.165Z" fill="url(#paint5_linear)"/>
<path d="M333.247 139.96C332.578 143.774 330.329 146.29 327.178 148.201C326.485 148.628 325.704 148.95 325.01 149.41C323.536 150.426 323.399 151.409 324.72 152.595C328.395 156.062 330.128 162.859 324.954 167.543C323.298 168.995 321.496 170.273 319.579 171.357C317.701 172.429 317.467 173.55 319.176 174.856C320.035 175.461 320.759 176.238 321.3 177.14C321.842 178.041 322.188 179.045 322.319 180.089C322.44 180.895 322.665 181.701 322.842 182.507C321.948 188.063 318.337 191.271 313.51 193.465C311.632 194.271 311.455 195.174 312.986 196.472C314.716 197.841 315.945 199.742 316.484 201.882C317.523 206.188 315.501 209.138 312.615 211.856C312.003 212.436 311.342 212.896 310.73 213.468C308.014 215.887 304.927 216.758 301.228 216.758C285.359 216.846 269.523 217.193 253.63 217.483C253.106 217.483 252.59 217.628 252.067 217.661C251.492 217.582 250.914 217.533 250.334 217.516C247.296 217.572 244.29 217.596 241.259 217.661L236.69 217.741C235.336 217.905 233.966 217.878 232.62 217.661C232.353 217.616 232.081 217.616 231.814 217.661C230.896 217.842 229.967 217.966 229.033 218.032C228.205 218.011 227.387 217.844 226.616 217.54C225.069 216.856 223.588 216.033 222.191 215.081C220.829 214.274 219.532 213.379 218.162 212.662C217.632 212.334 217.02 212.163 216.397 212.17C214.495 212.114 212.585 212.114 210.65 212.226C209.49 212.291 209.143 211.88 209.143 210.727C209.143 204.365 208.942 197.98 208.853 191.618C208.628 178.116 208.397 164.632 208.16 151.168C208.16 149.603 208.418 148.62 209.982 147.846C215.961 144.919 220.217 140.089 224.085 134.8C229.185 127.758 233.818 120.389 237.955 112.741C238.825 111.185 239.72 109.645 240.59 108.089C242.694 104.243 244.805 100.397 246.885 96.5186C247.255 95.7323 247.442 94.8722 247.433 94.003C247.424 93.6502 247.367 93.3002 247.263 92.9629C247.206 92.6111 247.176 92.2552 247.175 91.8987V89.2622C247.175 87.5287 247.175 85.7952 247.11 84.0617L246.941 73.6528C246.885 72.4675 246.885 71.234 246.852 70.0971C246.82 69.6659 246.895 69.2334 247.073 68.839C247.25 68.4446 247.524 68.101 247.868 67.8396C251.97 64.1952 257.345 65.0337 261.157 67.6944C262.229 68.4443 262.608 70.1858 263.237 71.4839C266.112 77.5216 268.437 83.8064 270.184 90.2619C271.489 95.0996 271.167 99.9372 270.361 104.775C269.063 112.233 267.758 119.659 266.46 127.149C266.283 128.189 266.17 129.229 266.025 130.374C266.361 130.429 266.7 130.459 267.041 130.463C286.165 130.148 305.33 129.914 324.487 129.511C325.796 129.478 327.097 129.74 328.291 130.279C329.485 130.818 330.543 131.619 331.385 132.623C332.226 133.627 332.831 134.809 333.154 136.079C333.476 137.349 333.508 138.676 333.247 139.96Z" fill="white"/>
<path d="M140.722 138.332L166.696 153.498L172.056 165.471L132.396 149.837L140.722 138.332Z" fill="#BA816C"/>
<path d="M166.688 153.498C167.844 152.505 169.084 151.615 170.395 150.837C171.604 150.289 184.378 155.425 184.434 156.803C184.491 158.182 183.806 163.165 182.427 163.633C181.049 164.1 172.055 165.471 172.055 165.471C172.055 165.471 162.989 156.158 166.688 153.498Z" fill="#BA816C"/>
<path d="M166.535 93.8821C166.535 93.8821 155.872 97.9134 153.011 105.041C150.15 112.168 125.981 144.725 130.647 150.321C133.008 153.151 138.319 155.449 138.319 155.449L153.898 145.701L150.569 142.476L165.97 120.65C165.97 120.65 170.411 99.5905 166.535 93.8821Z" fill="#96D293"/>
<path d="M163.11 200.544C170.065 200.673 177.1 200.721 183.894 199.205C190.688 197.69 197.313 194.432 201.665 188.998L204.268 192.82C227.026 198.838 250.617 201.08 274.101 199.455C277.415 199.29 280.709 198.848 283.949 198.133C289.454 196.795 294.531 194.102 299.544 191.481L317.806 181.854C320.546 182.37 321.594 185.886 321.191 188.595C320.788 191.304 319.506 194.029 319.796 196.795C320.046 199.165 321.408 201.253 322.005 203.567C323.052 207.695 321.392 212.186 318.539 215.347C315.686 218.507 311.769 220.539 307.78 222.047C297.448 225.957 286.238 226.828 275.197 227.296C265.768 227.691 256.33 227.82 246.901 227.957C241.356 228.029 235.707 228.094 230.404 226.473C225.568 224.998 221.224 222.176 216.502 220.33C215.109 219.671 213.561 219.409 212.029 219.572C210.91 219.84 209.854 220.322 208.918 220.991C203.535 224.417 198.562 228.61 192.663 231.061C184.273 234.544 174.852 234.173 165.777 233.746C158.524 233.407 149.989 232.359 146.33 226.054C145.298 224.045 144.58 221.888 144.203 219.66C143.324 215.702 137.127 198.697 141.688 196.883C143.88 196.021 148.861 199.052 151.198 199.536C155.13 200.23 159.117 200.567 163.11 200.544Z" fill="url(#paint6_linear)"/>
</g>
<defs>
<linearGradient id="paint0_linear" x1="198.135" y1="103.332" x2="213.332" y2="224.085" gradientUnits="userSpaceOnUse">
<stop stop-color="#010101" stop-opacity="0"/>
<stop offset="0.95" stop-color="#010101" stop-opacity="0.44"/>
</linearGradient>
<linearGradient id="paint1_linear" x1="19286.8" y1="59152.5" x2="19645.4" y2="45047" gradientUnits="userSpaceOnUse">
<stop stop-color="#010101" stop-opacity="0"/>
<stop offset="0.95" stop-color="#010101" stop-opacity="0.44"/>
</linearGradient>
<linearGradient id="paint2_linear" x1="6132.58" y1="6857.51" x2="7110.8" y2="6857.51" gradientUnits="userSpaceOnUse">
<stop stop-color="#010101" stop-opacity="0"/>
<stop offset="0.95" stop-color="#010101" stop-opacity="0.44"/>
</linearGradient>
<linearGradient id="paint3_linear" x1="8832.05" y1="6025.14" x2="9929.05" y2="6025.14" gradientUnits="userSpaceOnUse">
<stop stop-color="#010101" stop-opacity="0"/>
<stop offset="0.95" stop-color="#010101" stop-opacity="0.44"/>
</linearGradient>
<linearGradient id="paint4_linear" x1="238.528" y1="263.788" x2="241.246" y2="-3.77331" gradientUnits="userSpaceOnUse">
<stop stop-color="white" stop-opacity="0"/>
<stop offset="0.15" stop-color="white" stop-opacity="0.22"/>
<stop offset="0.32" stop-color="white" stop-opacity="0.45"/>
<stop offset="0.48" stop-color="white" stop-opacity="0.65"/>
<stop offset="0.64" stop-color="white" stop-opacity="0.8"/>
<stop offset="0.78" stop-color="white" stop-opacity="0.91"/>
<stop offset="0.91" stop-color="white" stop-opacity="0.98"/>
<stop offset="1" stop-color="white"/>
</linearGradient>
<linearGradient id="paint5_linear" x1="155.309" y1="177.331" x2="169.425" y2="77.2102" gradientUnits="userSpaceOnUse">
<stop stop-color="#010101" stop-opacity="0"/>
<stop offset="0.95" stop-color="#010101"/>
</linearGradient>
<linearGradient id="paint6_linear" x1="58682.9" y1="9879.44" x2="58547.3" y2="33165.7" gradientUnits="userSpaceOnUse">
<stop stop-color="#010101" stop-opacity="0"/>
<stop offset="0.95" stop-color="#010101" stop-opacity="0.44"/>
</linearGradient>
<clipPath id="clip0">
<rect width="415" height="395" fill="white"/>
</clipPath>
</defs>
</svg>
