<svg width="142" height="133" viewBox="0 0 142 133" fill="none" xmlns="http://www.w3.org/2000/svg">
<path d="M141.258 76.3802C140.299 72.9531 136.798 69.8177 131.306 70.4375V33.9062C134.254 33.7969 136.613 31.3906 136.613 28.4375V17.7552C136.613 14.7292 134.144 12.2865 131.085 12.2865H121.98L117.005 3.75521C115.973 2.00521 114.351 0.765625 112.36 0.255208C110.37 -0.255208 108.306 0 106.574 1.02083L86.8172 12.3229H80.625L60.8318 1.02083C59.0626 0 56.9985 -0.255208 55.045 0.255208C53.0546 0.765625 51.4328 2.04167 50.4008 3.75521L45.4249 12.2865H36.3207C33.2615 12.2865 30.7919 14.7292 30.7919 17.7552V28.4375C30.7919 31.3906 33.1509 33.7604 36.0996 33.9062V71.3125C27.3641 73.3542 20.4346 78.349 15.0532 86.4792C13.5052 85.3125 11.6622 84.6198 9.67186 84.5469C7.16546 84.4375 4.8065 85.3125 2.96357 86.9896C-0.796026 90.4531 -1.01718 96.2865 2.52126 100.005L30.9025 130.083C32.7454 132.016 35.215 133 37.7214 133C40.0066 133 42.2919 132.198 44.0611 130.521C45.8672 128.844 46.9361 126.547 47.0098 124.104C47.0835 121.661 46.1989 119.292 44.5034 117.505L43.4713 116.411L50.3639 105.948L66.3238 106.677C78.1186 107.224 81.8782 106.641 93.1938 102.594C101.929 99.4583 112.876 95.1927 121.649 91.7656C127.952 89.3229 133.37 87.2083 135.397 86.5156C135.397 86.5156 135.397 86.5156 135.434 86.5156C140.668 84.8021 142.29 80.099 141.258 76.3802ZM131.085 28.4375H96.2899V17.7552H131.085V28.4375ZM76.6442 33.9062H90.7611V53.375L84.4951 51.4792C83.9791 51.3333 83.3894 51.3333 82.8733 51.4792L76.6074 53.375V33.9062H76.6442ZM76.6442 28.4375V17.7552H90.7611V28.4375H76.6442ZM109.338 5.76042C109.817 5.46875 110.407 5.39583 110.96 5.54167C111.513 5.6875 111.955 6.01562 112.25 6.52604L115.641 12.3229H97.9117L109.338 5.76042ZM55.1556 6.52604C55.4504 6.05208 55.8927 5.6875 56.4456 5.54167C56.9985 5.39583 57.5514 5.46875 58.0674 5.76042L69.5305 12.3229H51.8014L55.1556 6.52604ZM36.3207 17.7552H71.1154V28.4375H68.4984C66.9872 28.4375 65.734 29.6771 65.734 31.1719C65.734 32.6667 66.9872 33.9062 68.4984 33.9062H71.1154V57.0938C71.1154 57.9688 71.5208 58.7708 72.2212 59.2812C72.9215 59.7917 73.8429 59.9375 74.6907 59.6823L83.7211 56.9479L92.7515 59.6823C93.0095 59.7552 93.3044 59.7917 93.5624 59.7917C94.1521 59.7917 94.7419 59.6094 95.221 59.2448C95.9213 58.7344 96.3268 57.8958 96.3268 57.0573V33.9062H125.814V71.6406L104.657 76.526C103.772 72.5521 100.013 69.7812 95.8476 70.1458C94.3733 70.2917 89.3973 70.8021 84.1265 71.349C79.1137 71.8958 73.9167 72.4427 72.516 72.5521C69.5305 72.8073 65.6603 72.2604 61.1267 71.6042C55.1187 70.7292 48.4473 69.7812 41.6653 70.401V33.9062H43.6556C45.1668 33.9062 46.42 32.6667 46.42 31.1719C46.42 29.6771 45.1668 28.4375 43.6556 28.4375H36.3207V17.7552ZM40.2646 126.547C38.7534 127.969 36.3207 127.859 34.9201 126.365L6.53887 96.2865C5.10138 94.7917 5.21195 92.3854 6.72316 91C7.46034 90.3073 8.41866 89.9427 9.45071 89.9792C10.4459 90.0156 11.4042 90.4531 12.1045 91.1823L40.4858 121.26C41.1861 121.99 41.5178 122.937 41.5178 123.958C41.4441 124.943 41.0387 125.891 40.2646 126.547ZM133.665 81.4115C131.49 82.1406 126.256 84.1823 119.658 86.7344C110.923 90.1615 100.013 94.3906 91.3509 97.4896C80.6987 101.281 77.7131 101.755 66.6186 101.245L49.0739 100.443C48.1155 100.406 47.1572 100.88 46.6412 101.682L39.638 112.292L19.034 90.4531C30.1653 72.6615 46.8623 75.0313 60.3158 76.9635C64.96 77.6198 69.3462 78.276 72.9583 77.9479C74.4327 77.8021 79.4086 77.2917 84.6794 76.7448C89.6922 76.1979 94.8893 75.651 96.3268 75.5417C97.838 75.3958 99.1649 76.526 99.3123 77.9844C99.3492 78.4583 99.4598 79.6979 95.9951 81.1198C88.5864 84.1823 80.7355 86.7344 74.4327 88.1562C72.9583 88.4844 72 89.9427 72.3317 91.4375C72.6635 92.8958 74.1378 93.8438 75.649 93.5156C82.2467 92.0208 90.4294 89.3594 98.1329 86.224C100.787 85.1302 102.482 83.7812 103.477 82.4323L131.232 76.0521C134.181 75.4323 135.618 76.599 135.987 77.9115C136.282 79.1146 135.729 80.6823 133.665 81.4115Z" fill="#263238"/>
<path d="M56.0476 33.9053C57.5588 33.9053 58.812 32.6657 58.812 31.1709C58.812 29.6761 57.5957 28.4365 56.0476 28.4365C54.5364 28.4365 53.2832 29.6761 53.2832 31.1709C53.2832 32.6657 54.5364 33.9053 56.0476 33.9053Z" fill="#263238"/>
</svg>
