<svg width="33" height="33" viewBox="0 0 33 33" fill="none" xmlns="http://www.w3.org/2000/svg">
<path d="M20.9997 18.9999H19.9463L19.573 18.6399C20.8797 17.1199 21.6663 15.1465 21.6663 12.9999C21.6663 8.21319 17.7863 4.33319 12.9997 4.33319C8.21301 4.33319 4.33301 8.21319 4.33301 12.9999C4.33301 17.7865 8.21301 21.6665 12.9997 21.6665C15.1463 21.6665 17.1197 20.8799 18.6397 19.5732L18.9997 19.9465V20.9999L25.6663 27.6532L27.653 25.6665L20.9997 18.9999ZM12.9997 18.9999C9.67967 18.9999 6.99967 16.3199 6.99967 12.9999C6.99967 9.67986 9.67967 6.99986 12.9997 6.99986C16.3197 6.99986 18.9997 9.67986 18.9997 12.9999C18.9997 16.3199 16.3197 18.9999 12.9997 18.9999Z" fill="#96D293"/>
</svg>
