<svg width="516" height="18" viewBox="0 0 516 18" fill="none" xmlns="http://www.w3.org/2000/svg">
<path d="M257.816 4.652C258.704 4.652 259.504 4.8 260.216 5.096C260.928 5.392 261.536 5.812 262.04 6.356C262.544 6.9 262.928 7.56 263.192 8.336C263.464 9.104 263.6 9.964 263.6 10.916C263.6 11.876 263.464 12.74 263.192 13.508C262.928 14.276 262.544 14.932 262.04 15.476C261.536 16.02 260.928 16.44 260.216 16.736C259.504 17.024 258.704 17.168 257.816 17.168C256.92 17.168 256.112 17.024 255.392 16.736C254.68 16.44 254.072 16.02 253.568 15.476C253.064 14.932 252.676 14.276 252.404 13.508C252.14 12.74 252.008 11.876 252.008 10.916C252.008 9.964 252.14 9.104 252.404 8.336C252.676 7.56 253.064 6.9 253.568 6.356C254.072 5.812 254.68 5.392 255.392 5.096C256.112 4.8 256.92 4.652 257.816 4.652ZM257.816 15.5C259.016 15.5 259.912 15.1 260.504 14.3C261.096 13.492 261.392 12.368 261.392 10.928C261.392 9.48 261.096 8.352 260.504 7.544C259.912 6.736 259.016 6.332 257.816 6.332C257.208 6.332 256.676 6.436 256.22 6.644C255.772 6.852 255.396 7.152 255.092 7.544C254.796 7.936 254.572 8.42 254.42 8.996C254.276 9.564 254.204 10.208 254.204 10.928C254.204 12.368 254.5 13.492 255.092 14.3C255.692 15.1 256.6 15.5 257.816 15.5Z" fill="#96D293"/>
<line x1="-8.74228e-08" y1="10" x2="225" y2="9.99998" stroke="#96D293" stroke-width="2"/>
<line x1="288" y1="10" x2="516" y2="10" stroke="#96D293" stroke-width="2"/>
</svg>
