<svg width="473" height="276" viewBox="0 0 473 276" fill="none" xmlns="http://www.w3.org/2000/svg">
<path d="M-2.14698e-05 172.506L-2.75015e-05 241.5C-0.00219465 246.033 1.22086 250.522 3.59918 254.71C5.97751 258.898 9.46451 262.703 13.8606 265.907C18.2567 269.111 23.4758 271.652 29.2193 273.384C34.9628 275.116 41.118 276.005 47.3329 276L425.733 276C431.93 275.994 438.064 275.097 443.784 273.359C449.504 271.621 454.697 269.076 459.066 265.871C463.435 262.666 466.894 258.863 469.244 254.681C471.594 250.499 472.79 246.02 472.761 241.5L472.761 172.5C460.253 172.467 448.273 168.816 439.45 162.348C430.628 155.88 425.682 147.124 425.7 138C425.7 133.47 426.924 128.984 429.301 124.799C431.678 120.614 435.162 116.812 439.555 113.609C443.947 110.406 449.162 107.866 454.9 106.134C460.639 104.401 466.789 103.51 473 103.512L473 34.512C472.967 25.3682 467.974 16.6056 459.111 10.1388C450.248 3.67206 438.236 0.026944 425.7 2.63825e-05L47.3 -6.6983e-06C34.7666 0.0269087 22.7571 3.67034 13.8946 10.1345C5.0321 16.5987 0.0368871 25.3583 -9.40498e-06 34.5L-1.54371e-05 103.5C12.5447 103.5 24.5757 107.135 33.4462 113.605C42.3166 120.075 47.3 128.85 47.3 138C47.3 147.15 42.3166 155.925 33.4461 162.395C24.5757 168.865 12.5447 172.5 -2.14693e-05 172.5L-2.14698e-05 172.506ZM212.866 43.14L260.166 43.14L260.166 77.64L212.866 77.64L212.866 43.14ZM212.866 198.384L260.166 198.384L260.166 232.878L212.866 232.878L212.866 198.384Z" fill="#96D293" fill-opacity="0.5"/>
</svg>
