<svg width="87" height="80" viewBox="0 0 87 80" fill="none" xmlns="http://www.w3.org/2000/svg">
<path d="M86.0258 50.2871C84.1906 47.3191 80.3391 46.3676 77.0539 48.0668L61.9422 55.8152C60.6961 54.4785 58.9289 53.6402 56.9578 53.6402H46.6945C46.0828 53.6402 45.9242 53.5949 45.8789 53.5723C45.7883 53.527 45.5164 53.2777 45.2672 53.0512L45.1766 52.9605C36.9523 45.2121 29.9969 45.7105 22.0898 48.8371C20.7758 49.3582 20.7305 49.3582 19.4391 49.4035H17.1508V48.7691C17.1508 46.1184 14.9984 43.9434 12.325 43.9434H4.82578C2.15234 43.966 0 46.1184 0 48.7918V72.6262C0 75.277 2.15234 77.4519 4.82578 77.4519H12.3703C15.0211 77.4519 17.1961 75.2996 17.1961 72.6262V71.9918H21.3875C21.7953 71.9918 21.7953 71.9918 22.2484 72.1277C22.407 72.173 27.6406 73.5777 27.6406 73.5777C27.7766 73.623 27.9352 73.6457 28.0711 73.6457C28.8188 73.6457 29.4984 73.1473 29.7023 72.3769C29.9516 71.4707 29.4078 70.5418 28.5016 70.2926C28.5016 70.2926 23.2906 68.8879 23.1547 68.8652C22.4523 68.6613 22.2258 68.616 21.3875 68.616H17.1734V52.8473H19.3937C19.4164 52.8473 19.4391 52.8473 19.4617 52.8473H19.5977C21.1383 52.7793 21.5688 52.734 23.3359 52.0316C30.4047 49.2449 35.8875 48.9051 42.843 55.4754L42.9336 55.566C44.0891 56.6535 44.7461 57.084 46.6945 57.084H56.9578C58.8156 57.084 60.3336 58.602 60.3336 60.4824C60.3336 62.3402 58.8156 63.8582 56.9578 63.8582H40.3281C39.3992 63.8582 38.6289 64.6285 38.6289 65.5574C38.6289 66.4863 39.3992 67.2566 40.3281 67.2566H56.9578C60.6961 67.2566 63.732 64.2207 63.732 60.4824C63.732 59.916 63.6641 59.3949 63.5281 58.8738L78.5719 51.148C80.0445 50.3777 82.0836 50.4684 83.1031 52.1223C84.0094 53.5723 83.5109 55.498 81.9703 56.6082L57.932 73.7363C52.925 77.0668 50.7953 76.4551 45.675 74.9824C44.9047 74.7559 44.0891 74.5293 43.2055 74.2801C42.2992 74.0309 41.3703 74.5746 41.1211 75.4809C40.8719 76.3871 41.4156 77.316 42.3219 77.5652C43.1828 77.7918 43.9758 78.0184 44.7461 78.2449C47.2156 78.9699 49.3 79.559 51.475 79.559C53.9219 79.559 56.482 78.7887 59.8578 76.5457C59.8805 76.5457 59.8805 76.523 59.9031 76.523L83.9641 59.3949C87 57.1746 87.8836 53.3004 86.0258 50.2871ZM13.775 72.6262C13.775 73.4191 13.1406 74.0535 12.3477 74.0535H4.82578C4.03281 74.0535 3.39844 73.4191 3.39844 72.6262V48.7918C3.39844 47.9988 4.03281 47.3645 4.82578 47.3645H12.3703C13.1633 47.3645 13.7977 47.9988 13.7977 48.7918V72.6262H13.775Z" fill="#263238"/>
<path d="M25.9188 25.5917L44.7008 43.7167C45.0406 44.0339 45.4484 44.1925 45.8789 44.1925C46.3094 44.1925 46.7398 44.0339 47.057 43.7167L53.8992 37.1238L60.7414 43.7167C61.0812 44.0339 61.4891 44.1925 61.9195 44.1925C62.35 44.1925 62.7805 44.0339 63.0977 43.7167L73.95 33.2496C73.9727 33.2269 73.9727 33.2269 73.9953 33.2042C77.6203 29.466 77.6203 23.3714 73.9953 19.6105C72.9078 18.4777 71.5258 17.73 70.0078 17.4128C70.8914 12.4511 69.3961 7.37612 65.907 3.75112C63.4148 1.16831 60.0164 -0.145752 56.3234 0.0128415C52.8344 0.148779 49.4586 1.59878 46.8078 4.04565L46.6266 4.20425C46.3773 4.45347 46.0828 4.70269 45.8562 4.90659C45.6297 4.72534 45.3578 4.45347 45.0859 4.20425L44.9047 4.04565C42.3219 1.57612 38.9461 0.148779 35.4344 0.0128415C31.7414 -0.145752 28.343 1.19097 25.8734 3.75112C20.0734 9.75503 20.0734 19.5425 25.8734 25.5464C25.8961 25.5464 25.9188 25.5691 25.9188 25.5917ZM71.5258 21.9667C73.882 24.391 73.882 28.3558 71.5484 30.8027L61.8969 40.0917L52.2453 30.8027C49.9117 28.3558 49.9117 24.391 52.268 21.9667C54.307 19.8597 57.6148 20.4488 59.518 22.2386L59.6086 22.3292C60.3109 22.9863 60.9227 23.5753 61.8742 23.5753C62.8258 23.5753 63.4148 23.0316 64.1398 22.3292L64.2305 22.2386C66.1789 20.4488 69.4867 19.8597 71.5258 21.9667ZM28.343 6.10737C31.968 2.34644 38.3797 2.55034 42.6391 6.53784L42.8203 6.69643C43.9758 7.78394 44.7461 8.50893 45.9016 8.50893C47.057 8.50893 47.8273 7.78394 48.9828 6.69643L49.1641 6.53784C53.4008 2.55034 59.8125 2.34644 63.4375 6.10737C66.3148 9.07534 67.4477 13.3121 66.5187 17.3902C64.8422 17.73 63.2562 18.5457 61.9422 19.7464L61.8969 19.7917L61.8516 19.7464C60.1977 18.2058 58.0906 17.2996 55.893 17.2089C53.5594 17.1183 51.407 17.9566 49.8211 19.5878C46.1961 23.3261 46.1961 29.4207 49.8211 33.1816C49.8437 33.2042 49.8438 33.2042 49.8664 33.2269L51.4297 34.7449L45.8562 40.1144L28.3203 23.1675C23.7891 18.455 23.7891 10.7972 28.343 6.10737Z" fill="#263238"/>
<path d="M35.4121 72.1953C34.4832 72.1953 33.7129 72.9656 33.7129 73.8945C33.7129 74.8234 34.4832 75.5938 35.4121 75.5938C36.341 75.5938 37.1113 74.8234 37.1113 73.8945C37.1113 72.943 36.3637 72.1953 35.4121 72.1953Z" fill="#263238"/>
</svg>
