<svg width="242" height="222" viewBox="0 0 242 222" fill="none" xmlns="http://www.w3.org/2000/svg">
<g clip-path="url(#clip0)">
<path d="M171.303 54.4046L78.7828 50.668C76.0248 50.5566 73.6989 52.7047 73.5876 55.466L71.3941 109.908C71.2829 112.669 73.4284 114.997 76.1864 115.109L168.706 118.845C171.464 118.957 173.79 116.809 173.901 114.047L176.095 59.6059C176.206 56.8447 174.06 54.516 171.303 54.4046Z" fill="#96D293"/>
<path opacity="0.24" d="M6.39179 177.178C-0.647312 161.841 -2.48628 143.606 3.9985 128.022C9.82775 114.015 22.001 102.475 23.84 87.4109C24.8474 79.1477 22.5509 70.8317 22.7401 62.5113C23.0701 48.1388 31.099 34.5372 42.454 25.7763C53.809 17.0154 68.2567 12.7825 82.5945 12.0777C88.283 11.7958 94.033 12.0381 99.6247 10.9501C106.945 9.52304 113.624 5.89358 120.654 3.39173C139.84 -3.43552 163.984 -0.286176 176.404 15.8702C185.951 28.2914 187.178 46.0114 198.031 57.3049C204.331 63.8547 213.069 67.3564 221.542 70.6291C227.204 72.8314 233.148 75.1835 236.94 79.9185C239.668 83.319 241.01 87.6399 241.612 91.9565C243.473 105.219 238.436 119.266 228.581 128.308C221.102 135.158 211.463 139.02 202.884 144.407C194.305 149.794 186.214 157.762 185.286 167.858C184.266 179.037 192.29 190.124 189.298 200.946C187.451 207.636 181.555 212.645 175.04 215.041C168.524 217.437 161.402 217.521 154.486 217.168C133.206 216.089 111.723 210.966 90.8346 215.164C74.8163 218.38 55.1992 227.374 39.6516 217.573C25.9077 208.892 13.0481 191.665 6.39179 177.178Z" fill="#96D293"/>
<path d="M105.363 47.3637C104.952 47.0937 104.469 46.9554 103.977 46.9673C100.167 46.6942 96.3441 46.6766 92.5385 46.6589C92.2402 46.6374 91.9406 46.6779 91.6586 46.7779C91.4479 46.8906 91.2588 47.0397 91.0999 47.2183C90.5676 47.7337 90.0132 48.4032 90.154 49.13C90.237 49.409 90.38 49.6664 90.5731 49.884C90.7662 50.1017 91.0046 50.2743 91.2715 50.3897C92.9301 51.3015 94.901 51.3719 96.7884 51.4248L103.093 51.5966C104.633 51.6406 105.627 51.5481 105.856 49.8347C105.952 49.0287 106.054 47.9319 105.363 47.3637Z" fill="#96D293"/>
<path d="M105.363 47.3637C104.952 47.0937 104.469 46.9554 103.977 46.9673C100.167 46.6942 96.3441 46.6766 92.5385 46.6589C92.2402 46.6374 91.9406 46.6779 91.6586 46.7779C91.4479 46.8906 91.2588 47.0397 91.0999 47.2183C90.5676 47.7337 90.0132 48.4032 90.154 49.13C90.237 49.409 90.38 49.6664 90.5731 49.884C90.7662 50.1017 91.0046 50.2743 91.2715 50.3897C92.9301 51.3015 94.901 51.3719 96.7884 51.4248L103.093 51.5966C104.633 51.6406 105.627 51.5481 105.856 49.8347C105.952 49.0287 106.054 47.9319 105.363 47.3637Z" fill="url(#paint0_linear)"/>
<path d="M109.124 44.6281C109.131 44.543 109.16 44.461 109.207 44.3903C109.259 44.3409 109.319 44.3028 109.386 44.2785C109.453 44.2543 109.524 44.2443 109.595 44.2493C111.353 44.1519 113.116 44.1519 114.874 44.2493C115.015 44.2393 115.154 44.2852 115.261 44.377C115.331 44.4743 115.365 44.5924 115.358 44.7118C115.469 46.5089 115.513 48.3075 115.49 50.1075C115.49 50.2132 110.739 50.2441 110.303 50.2397C109.735 50.2397 109.04 50.4026 108.878 49.7243C108.79 49.0061 108.79 48.2798 108.878 47.5616C108.903 46.5798 108.985 45.6003 109.124 44.6281Z" fill="#96D293"/>
<path d="M109.124 44.6281C109.131 44.543 109.16 44.461 109.207 44.3903C109.259 44.3409 109.319 44.3028 109.386 44.2785C109.453 44.2543 109.524 44.2443 109.595 44.2493C111.353 44.1519 113.116 44.1519 114.874 44.2493C115.015 44.2393 115.154 44.2852 115.261 44.377C115.331 44.4743 115.365 44.5924 115.358 44.7118C115.469 46.5089 115.513 48.3075 115.49 50.1075C115.49 50.2132 110.739 50.2441 110.303 50.2397C109.735 50.2397 109.04 50.4026 108.878 49.7243C108.79 49.0061 108.79 48.2798 108.878 47.5616C108.903 46.5798 108.985 45.6003 109.124 44.6281Z" fill="url(#paint1_linear)"/>
<path d="M45.3409 167.752C44.659 170.13 45.3893 172.659 45.3849 175.134C45.3849 181.578 40.4619 187.212 40.2816 193.656C40.3186 194.647 40.2759 195.64 40.154 196.624C39.8817 197.706 39.4596 198.743 38.9001 199.708C37.0624 203.308 35.6155 207.096 34.5843 211.006C34.3863 211.754 34.2499 212.679 34.8219 213.208C35.231 213.582 41.2626 219.419 41.8082 219.546C58.526 223.484 79.5026 220.529 86.5373 212.384C83.6688 198.598 90.576 184.075 87.2808 170.381C87.2197 169.984 87.0542 169.61 86.8013 169.298C86.4285 168.982 85.9675 168.79 85.4814 168.747C77.8704 167.272 70.1098 166.743 62.4811 165.369C57.3646 164.422 47.5802 159.929 45.3409 167.752Z" fill="#96D293"/>
<path d="M59.1288 174.949C64.848 177.592 71.368 177.945 77.6064 177.337C79.8061 177.125 82.041 176.777 83.9152 175.632C85.7894 174.487 87.2192 172.355 86.9332 170.175C86.9033 169.808 86.7689 169.458 86.5461 169.166C86.2267 168.859 85.8298 168.644 85.3978 168.545L80.7344 167.043C79.2122 166.554 77.6856 166.061 76.1194 165.722C74.0478 165.316 71.9523 165.043 69.8458 164.907C63.4974 164.369 57.1446 163.889 50.783 163.537C50.0527 163.497 49.2388 163.484 48.6889 163.977C46.4144 165.99 50.4838 168.382 51.5705 169.518C53.7257 171.789 56.2901 173.632 59.1288 174.949Z" fill="url(#paint2_linear)"/>
<path d="M89.8799 133.955C84.319 145.165 83.4655 158.031 82.2865 170.514C82.1105 172.404 81.8466 174.478 80.4123 175.747C79.1673 176.861 77.3635 177.042 75.6961 177.037C70.6232 177.024 65.6244 175.817 61.1032 173.513C59.8494 172.875 58.5559 172.056 58.0236 170.747C57.6144 169.695 57.786 168.514 57.962 167.4C60.147 153.578 62.3365 139.755 64.5304 125.93C65.0803 122.459 65.8502 118.609 68.7098 116.565C70.9403 114.971 73.8836 114.914 76.6288 114.914C79.902 114.914 96.1403 112.923 97.8033 115.676C100.051 119.349 91.4813 130.731 89.8799 133.955Z" fill="#F1B475"/>
<path d="M76.6904 118.75C76.62 120.789 75.7841 122.714 74.9658 124.573C75.4366 125.454 76.5364 125.85 77.5351 125.78C78.5295 125.646 79.4862 125.31 80.3463 124.793C82.9479 123.451 85.482 121.983 87.9486 120.388C89.021 119.741 90.0222 118.982 90.9358 118.124C92.4316 116.635 93.416 114.709 93.747 112.623C93.6634 113.169 81.2878 111.742 80.1088 111.795C75.3046 112.024 76.818 115.164 76.6904 118.75Z" fill="url(#paint3_linear)"/>
<path d="M172.084 57.2035L127.408 55.79L127.008 68.478L171.684 69.8915L172.084 57.2035Z" fill="url(#paint4_linear)"/>
<path d="M147.238 57.6658L131.684 56.9805L131.255 66.7362L146.809 67.4216L147.238 57.6658Z" fill="#96D293"/>
<path d="M170.733 58.5527L150.919 57.6831L150.474 67.8482L170.288 68.7177L170.733 58.5527Z" fill="url(#paint5_linear)"/>
<path d="M152.833 65.3301C156.84 64.4879 161.006 64.837 164.817 66.3343C165.52 66.5754 166.173 66.9425 166.744 67.4179C167.365 68.0494 167.854 68.798 168.183 69.6202C170.712 75.0556 171.847 81.0724 174.342 86.5122C174.756 85.6154 175.006 84.6517 175.081 83.6667C175.969 76.5711 176.252 69.4125 175.926 62.2688C175.899 61.5288 175.807 60.6787 175.204 60.2559C174.859 60.0536 174.469 59.9429 174.069 59.9344C167.381 59.314 160.702 61.2076 155.332 65.2464" fill="url(#paint6_linear)"/>
<path d="M175.36 73.0256L68.8994 68.875L67.7292 98.9625L174.19 103.113L175.36 73.0256Z" fill="url(#paint7_linear)"/>
<path d="M96.3082 63.4275C92.7913 62.2233 89.5426 60.3441 86.7439 57.8953C83.9719 61.0708 80.6812 63.7517 77.0123 65.8237C78.2661 68.6294 81.7505 69.4355 84.4298 70.9287C88.8292 73.3777 91.4117 78.1435 93.0922 82.8874C94.7728 87.6312 95.8199 92.6481 98.2616 97.0484C97.0844 97.3537 95.8585 97.4233 94.6544 97.2533C93.4502 97.0832 92.2914 96.6768 91.2445 96.0574C91.8296 96.3128 91.3897 97.2598 90.8045 97.4801C90.2194 97.7003 89.4363 97.7135 89.0932 98.2553C88.75 98.7971 89.0272 99.4225 88.9172 100.017C88.7588 100.867 87.8393 101.405 86.977 101.422C86.1109 101.372 85.2672 101.126 84.5089 100.704C83.2903 102.224 83.0439 104.294 82.9691 106.245C82.8944 108.197 82.9383 110.21 82.1464 111.998C81.3545 113.786 79.4144 115.244 77.527 114.76C75.6397 114.275 74.7158 112.258 74.2054 110.417C72.1113 102.827 73.5587 94.78 73.7259 86.9044C73.8931 79.1522 72.802 71.4132 72.846 63.6566C72.846 62.3043 72.9076 60.9036 73.5059 59.6924C74.1043 58.4811 75.1293 57.6266 76.1456 56.8029C78.0696 55.2613 80.0479 53.793 82.0804 52.3982C83.4003 51.5173 84.7861 50.6055 86.3655 50.4249C89.7091 50.0329 92.4983 52.8475 94.5045 55.552C95.8639 57.3755 99.1723 59.6043 100.026 61.4807C101.332 64.3613 98.2528 64.0882 96.3082 63.4275Z" fill="url(#paint8_linear)"/>
<path d="M78.4678 36.6337C79.2398 35.7302 80.1519 34.9569 81.1691 34.3433C82.401 33.6914 83.8088 33.5284 85.2078 33.4139C95.6653 32.533 106.712 33.8984 115.45 39.717C116.241 40.2456 117.117 41.1485 116.708 42.0118C116.504 42.3584 116.196 42.6314 115.828 42.7915C111.266 45.3638 105.516 44.4917 100.641 42.5712C99.506 42.1308 94.4598 42.5712 93.2456 42.4435C90.4651 42.1396 87.9002 43.8001 85.5465 45.3109C80.5664 48.4999 79.2641 50.3719 73.8748 52.7989C72.0403 53.6226 69.6822 54.3317 68.2655 52.4377C67.7754 51.7595 67.4911 50.9541 67.4466 50.1182C67.4021 49.2823 67.5994 48.4512 68.0148 47.7247C69.097 45.8924 71.1296 44.3287 72.5858 42.7959L78.4678 36.6337Z" fill="#F1B475"/>
<path d="M78.4678 36.6337C79.2398 35.7302 80.1519 34.9569 81.1691 34.3433C82.401 33.6914 83.8088 33.5284 85.2078 33.4139C95.6653 32.533 106.712 33.8984 115.45 39.717C116.241 40.2456 117.117 41.1485 116.708 42.0118C116.504 42.3584 116.196 42.6314 115.828 42.7915C111.266 45.3638 105.516 44.4917 100.641 42.5712C99.506 42.1308 94.4598 42.5712 93.2456 42.4435C90.4651 42.1396 87.9002 43.8001 85.5465 45.3109C80.5664 48.4999 79.2641 50.3719 73.8748 52.7989C72.0403 53.6226 69.6822 54.3317 68.2655 52.4377C67.7754 51.7595 67.4911 50.9541 67.4466 50.1182C67.4021 49.2823 67.5994 48.4512 68.0148 47.7247C69.097 45.8924 71.1296 44.3287 72.5858 42.7959L78.4678 36.6337Z" fill="url(#paint9_linear)"/>
<path d="M50.04 117.226C46.1817 102.426 40.4932 86.7016 45.7242 72.3292C49.8377 61.0312 59.8816 53.1424 69.4548 45.8791C71.6897 44.1833 74.0478 42.4303 76.8194 41.9898C79.2479 41.6066 81.7116 42.2805 84.0565 43.0337C88.7551 44.5445 93.4317 46.4517 97.202 49.6407C100.972 52.8297 105.306 57.6 105.24 62.542C98.0247 68.1183 91.2144 53.1204 83.9157 54.4418C79.6424 59.0432 75.1872 63.4626 70.5502 67.6999C76.353 67.1699 82.1882 67.0933 88.0028 67.4708C93.1258 76.5188 97.2841 86.0811 100.409 95.9999C97.0744 97.5504 93.1941 94.9956 91.1132 91.9564C89.0323 88.9172 87.796 85.2305 85.0464 82.7859L90.6161 98.9995C90.8668 99.7351 91.1044 100.594 90.6865 101.246C90.1761 102.034 89.0279 102.034 88.104 101.854C86.0596 101.444 84.1198 100.622 82.4029 99.4376C80.686 98.2533 79.2279 96.7315 78.1173 94.9648C73.7838 98.8409 74.8397 105.708 75.5348 111.482C77.8929 131.088 73.2911 157.291 64.589 174.91C59.1821 172.447 52.7897 169.087 52.9217 164.669C53.036 160.96 54.8574 157.551 55.2974 153.873C56.6876 142.192 52.9789 128.498 50.04 117.226Z" fill="#F1B475"/>
<path d="M130.154 100.774C141.197 100.774 150.149 91.8114 150.149 80.7551C150.149 69.6988 141.197 60.7358 130.154 60.7358C119.11 60.7358 110.158 69.6988 110.158 80.7551C110.158 91.8114 119.11 100.774 130.154 100.774Z" fill="#96D293"/>
<path d="M130.154 100.774C141.197 100.774 150.149 91.8114 150.149 80.7551C150.149 69.6988 141.197 60.7358 130.154 60.7358C119.11 60.7358 110.158 69.6988 110.158 80.7551C110.158 91.8114 119.11 100.774 130.154 100.774Z" fill="url(#paint10_linear)"/>
<path d="M119.172 61.3261C121.038 61.3261 122.55 59.8116 122.55 57.9433C122.55 56.0751 121.038 54.5605 119.172 54.5605C117.306 54.5605 115.793 56.0751 115.793 57.9433C115.793 59.8116 117.306 61.3261 119.172 61.3261Z" fill="url(#paint11_linear)"/>
<path d="M116.472 49.381C116.736 49.3858 116.997 49.4411 117.241 49.544C117.451 49.6673 117.628 49.8386 117.759 50.0437C117.89 50.2489 117.97 50.4822 117.994 50.7244C118.04 51.2166 118.009 51.713 117.901 52.1956C117.896 52.305 117.851 52.4086 117.774 52.4863C117.703 52.5231 117.624 52.5384 117.545 52.5303L112.512 52.5039C111.087 52.5039 109.063 52.8783 107.699 52.4466C106.626 52.1075 106.771 50.9226 106.912 49.9668C107.087 48.7864 107.519 48.9669 108.557 48.9669C109.393 48.9669 110.233 48.9934 111.069 49.0286C112.86 49.1035 114.668 49.381 116.472 49.381Z" fill="#96D293"/>
<path d="M116.472 49.381C116.736 49.3858 116.997 49.4411 117.241 49.544C117.451 49.6673 117.628 49.8386 117.759 50.0437C117.89 50.2489 117.97 50.4822 117.994 50.7244C118.04 51.2166 118.009 51.713 117.901 52.1956C117.896 52.305 117.851 52.4086 117.774 52.4863C117.703 52.5231 117.624 52.5384 117.545 52.5303L112.512 52.5039C111.087 52.5039 109.063 52.8783 107.699 52.4466C106.626 52.1075 106.771 50.9226 106.912 49.9668C107.087 48.7864 107.519 48.9669 108.557 48.9669C109.393 48.9669 110.233 48.9934 111.069 49.0286C112.86 49.1035 114.668 49.381 116.472 49.381Z" fill="url(#paint12_linear)"/>
<path d="M154.575 35.9773C154.575 35.9773 173.492 42.3773 188.01 22.9307C188.01 22.9307 186.29 51.7284 216.778 34.2507C216.778 34.2507 196.369 53.944 217.025 67.9773C217.025 67.9773 182.603 51.4818 182.85 86.1906C182.85 86.1906 178.178 55.9129 152.934 65.2684C152.934 65.2684 178.912 56.4062 154.575 35.9773Z" fill="#96D293"/>
<path d="M156.294 34.3347C156.294 34.3347 175.212 40.7347 189.73 21.2881C189.73 21.2881 188.01 50.0903 218.498 32.6125C218.498 32.6125 198.089 52.3058 218.744 66.3347C218.744 66.3347 184.323 49.8436 184.57 84.5524C184.57 84.5524 179.897 54.2747 154.653 63.6258C154.653 63.6258 180.636 54.768 156.294 34.3347Z" fill="url(#paint13_linear)"/>
<path d="M130.171 94.8634C137.966 94.8634 144.284 88.5371 144.284 80.7332C144.284 72.9293 137.966 66.603 130.171 66.603C122.376 66.603 116.058 72.9293 116.058 80.7332C116.058 88.5371 122.376 94.8634 130.171 94.8634Z" fill="url(#paint14_linear)"/>
</g>
<defs>
<linearGradient id="paint0_linear" x1="90.1232" y1="49.1256" x2="105.922" y2="49.1256" gradientUnits="userSpaceOnUse">
<stop stop-color="#010101" stop-opacity="0.46"/>
<stop offset="0.95" stop-color="#010101"/>
</linearGradient>
<linearGradient id="paint1_linear" x1="2392.57" y1="688.29" x2="2401.09" y2="852.314" gradientUnits="userSpaceOnUse">
<stop stop-color="#010101" stop-opacity="0.35"/>
<stop offset="0.95" stop-color="#010101"/>
</linearGradient>
<linearGradient id="paint2_linear" x1="9244.74" y1="6119.79" x2="9365.77" y2="3518.98" gradientUnits="userSpaceOnUse">
<stop stop-color="#010101" stop-opacity="0.55"/>
<stop offset="0.95" stop-color="#010101"/>
</linearGradient>
<linearGradient id="paint3_linear" x1="5350.8" y1="4264.16" x2="5204.64" y2="1996.46" gradientUnits="userSpaceOnUse">
<stop stop-color="#010101" stop-opacity="0.39"/>
<stop offset="0.95" stop-color="#010101"/>
</linearGradient>
<linearGradient id="paint4_linear" x1="16931.5" y1="1936" x2="21511.3" y2="1936" gradientUnits="userSpaceOnUse">
<stop stop-color="#010101" stop-opacity="0.61"/>
<stop offset="0.95" stop-color="#010101"/>
</linearGradient>
<linearGradient id="paint5_linear" x1="161.378" y1="40.7805" x2="159.464" y2="95.9202" gradientUnits="userSpaceOnUse">
<stop stop-color="white"/>
<stop offset="0.95" stop-color="white"/>
</linearGradient>
<linearGradient id="paint6_linear" x1="10802.1" y1="4818.43" x2="12261.2" y2="3540.49" gradientUnits="userSpaceOnUse">
<stop stop-color="#010101" stop-opacity="0.62"/>
<stop offset="0.95" stop-color="#010101"/>
</linearGradient>
<linearGradient id="paint7_linear" x1="25768.2" y1="6111.67" x2="51832.4" y2="6111.67" gradientUnits="userSpaceOnUse">
<stop stop-color="#010101" stop-opacity="0.89"/>
<stop offset="0.95" stop-color="#010101"/>
</linearGradient>
<linearGradient id="paint8_linear" x1="5240.14" y1="11765.1" x2="21654.8" y2="12668.4" gradientUnits="userSpaceOnUse">
<stop stop-color="#010101" stop-opacity="0.48"/>
<stop offset="0.95" stop-color="#010101"/>
</linearGradient>
<linearGradient id="paint9_linear" x1="14831" y1="1833.49" x2="14722.3" y2="4191.13" gradientUnits="userSpaceOnUse">
<stop stop-color="#010101" stop-opacity="0.43"/>
<stop offset="0.95" stop-color="#010101"/>
</linearGradient>
<linearGradient id="paint10_linear" x1="10123.5" y1="7401.39" x2="13758.7" y2="7401.39" gradientUnits="userSpaceOnUse">
<stop stop-color="white" stop-opacity="0.76"/>
<stop offset="0.95" stop-color="white"/>
</linearGradient>
<linearGradient id="paint11_linear" x1="1894.37" y1="944.572" x2="1998.17" y2="944.572" gradientUnits="userSpaceOnUse">
<stop stop-color="#010101" stop-opacity="0.76"/>
<stop offset="1" stop-color="#010101"/>
</linearGradient>
<linearGradient id="paint12_linear" x1="3941.89" y1="486.927" x2="3943.62" y2="530.885" gradientUnits="userSpaceOnUse">
<stop stop-color="#010101"/>
<stop offset="1" stop-color="#010101" stop-opacity="0"/>
</linearGradient>
<linearGradient id="paint13_linear" x1="34984.9" y1="2605.64" x2="32324.1" y2="9699.63" gradientUnits="userSpaceOnUse">
<stop stop-color="white"/>
<stop offset="0.95" stop-color="white"/>
</linearGradient>
<linearGradient id="paint14_linear" x1="7562.29" y1="5246.45" x2="9373.6" y2="5246.45" gradientUnits="userSpaceOnUse">
<stop stop-color="#371F1F"/>
<stop offset="1" stop-color="#010101"/>
</linearGradient>
<clipPath id="clip0">
<rect width="242" height="222" fill="white"/>
</clipPath>
</defs>
</svg>
