<svg width="41" height="41" viewBox="0 0 41 41" fill="none" xmlns="http://www.w3.org/2000/svg">
<path d="M28.773 13.1786H12.2266L20.4998 20.2712L28.773 13.1786Z" fill="#98CB93"/>
<path d="M20.5003 21.9643C20.3264 21.9643 20.1525 21.9003 20.0244 21.7904L10.9824 14.0389V27.8215H30.0181V14.0389L20.9762 21.7904C20.848 21.9003 20.6742 21.9643 20.5003 21.9643Z" fill="#98CB93"/>
<path d="M20.5 0C9.17924 0 0 9.17924 0 20.5C0 31.8208 9.17924 41 20.5 41C31.8208 41 41 31.8208 41 20.5C40.9908 9.17924 31.8208 0.00915179 20.5 0ZM31.4821 28.5536C31.4821 28.9563 31.1527 29.2857 30.75 29.2857H10.25C9.84732 29.2857 9.51786 28.9563 9.51786 28.5536V12.4464C9.51786 12.0437 9.84732 11.7143 10.25 11.7143H30.75C31.1527 11.7143 31.4821 12.0437 31.4821 12.4464V28.5536Z" fill="#98CB93"/>
</svg>
