<svg width="32" height="33" viewBox="0 0 32 33" fill="none" xmlns="http://www.w3.org/2000/svg">
<path d="M15.9997 16.3332C17.4663 16.3332 18.6663 15.1332 18.6663 13.6665C18.6663 12.1999 17.4663 10.9999 15.9997 10.9999C14.533 10.9999 13.333 12.1999 13.333 13.6665C13.333 15.1332 14.533 16.3332 15.9997 16.3332ZM15.9997 2.99988C21.5997 2.99988 26.6663 7.29321 26.6663 13.9332C26.6663 18.1732 23.3997 23.1599 16.8797 28.9065C16.373 29.3465 15.613 29.3465 15.1063 28.9065C8.59967 23.1599 5.33301 18.1732 5.33301 13.9332C5.33301 7.29321 10.3997 2.99988 15.9997 2.99988Z" fill="#96D293"/>
</svg>
