<svg width="356" height="341" viewBox="0 0 356 341" fill="none" xmlns="http://www.w3.org/2000/svg">
<path d="M355.247 195.778C352.837 186.994 344.03 178.957 330.216 180.546V86.9087C337.633 86.6284 343.566 80.4607 343.566 72.8912V45.5103C343.566 37.7539 337.355 31.4927 329.66 31.4927H306.761L294.245 9.62538C291.649 5.13976 287.57 1.96246 282.564 0.654152C277.558 -0.654152 272.366 0 268.009 2.61661L218.317 31.5862H202.742L152.958 2.61661C148.508 0 143.316 -0.654152 138.403 0.654152C133.396 1.96246 129.317 5.23321 126.721 9.62538L114.206 31.4927H91.3067C83.6119 31.4927 77.4004 37.7539 77.4004 45.5103V72.8912C77.4004 80.4607 83.3337 86.5349 90.7504 86.9087V182.789C68.7785 188.022 51.3494 200.825 37.8139 221.664C33.9202 218.674 29.2848 216.898 24.2785 216.711C17.9744 216.431 12.041 218.674 7.4056 222.972C-2.05065 231.85 -2.6069 246.802 6.2931 256.334L77.6785 333.43C82.314 338.383 88.5254 340.906 94.8296 340.906C100.578 340.906 106.325 338.851 110.775 334.552C115.318 330.253 118.007 324.366 118.192 318.105C118.378 311.843 116.153 305.769 111.888 301.19L109.292 298.387L126.629 271.566L166.771 273.435C196.438 274.837 205.894 273.342 234.356 262.969C256.328 254.932 283.862 243.999 305.927 235.214C321.78 228.953 335.408 223.533 340.507 221.757C340.507 221.757 340.507 221.757 340.599 221.757C353.764 217.365 357.843 205.31 355.247 195.778ZM329.66 72.8912H242.143V45.5103H329.66V72.8912ZM192.73 86.9087H228.237V136.811L212.476 131.952C211.179 131.578 209.695 131.578 208.397 131.952L192.637 136.811V86.9087H192.73ZM192.73 72.8912V45.5103H228.237V72.8912H192.73ZM274.962 14.7651C276.167 14.0175 277.65 13.8306 279.041 14.2044C280.432 14.5782 281.544 15.4193 282.286 16.7276L290.815 31.5862H246.222L274.962 14.7651ZM138.681 16.7276C139.422 15.5127 140.535 14.5782 141.925 14.2044C143.316 13.8306 144.707 14.0175 146.005 14.7651L174.837 31.5862H130.244L138.681 16.7276ZM91.3067 45.5103H178.823V72.8912H172.241C168.44 72.8912 165.288 76.0685 165.288 79.9C165.288 83.7314 168.44 86.9087 172.241 86.9087H178.823V146.343C178.823 148.586 179.843 150.642 181.605 151.95C183.366 153.258 185.684 153.632 187.816 152.978L210.53 145.969L233.243 152.978C233.892 153.165 234.634 153.258 235.283 153.258C236.766 153.258 238.249 152.791 239.455 151.857C241.216 150.548 242.236 148.399 242.236 146.25V86.9087H316.403V183.63L263.188 196.152C260.963 185.966 251.507 178.864 241.031 179.798C237.322 180.172 224.807 181.48 211.549 182.882C198.941 184.284 185.869 185.686 182.346 185.966C174.837 186.62 165.103 185.218 153.699 183.536C138.588 181.293 121.808 178.864 104.749 180.452V86.9087H109.756C113.557 86.9087 116.709 83.7314 116.709 79.9C116.709 76.0685 113.557 72.8912 109.756 72.8912H91.3067V45.5103ZM101.226 324.366C97.4254 328.01 91.3067 327.73 87.7837 323.899L16.3983 246.802C12.7827 242.971 13.0608 236.803 16.8619 233.252C18.716 231.476 21.1264 230.542 23.7223 230.635C26.2254 230.729 28.6358 231.85 30.3973 233.719L101.783 310.816C103.544 312.685 104.379 315.114 104.379 317.731C104.193 320.254 103.173 322.684 101.226 324.366ZM336.149 208.674C330.68 210.543 317.515 215.777 300.92 222.318C278.948 231.102 251.507 241.943 229.72 249.886C202.928 259.605 195.418 260.82 167.513 259.511L123.384 257.455C120.973 257.362 118.563 258.577 117.265 260.633L99.6504 287.827L47.8264 231.85C75.8244 186.246 117.821 192.321 151.66 197.273C163.341 198.956 174.373 200.638 183.459 199.797C187.167 199.423 199.683 198.115 212.94 196.713C225.548 195.311 238.62 193.909 242.236 193.629C246.037 193.255 249.374 196.152 249.745 199.89C249.838 201.105 250.116 204.282 241.401 207.927C222.767 215.777 203.02 222.318 187.167 225.963C183.459 226.804 181.048 230.542 181.883 234.373C182.717 238.111 186.425 240.541 190.226 239.7C206.821 235.868 227.403 229.047 246.779 221.01C253.454 218.206 257.718 214.749 260.221 211.291L330.031 194.937C337.447 193.349 341.063 196.339 341.99 199.703C342.732 202.787 341.341 206.805 336.149 208.674Z" fill="#2E2C2C"/>
<path d="M140.917 86.9094C144.718 86.9094 147.87 83.7321 147.87 79.9006C147.87 76.0691 144.81 72.8918 140.917 72.8918C137.116 72.8918 133.964 76.0691 133.964 79.9006C133.964 83.7321 137.116 86.9094 140.917 86.9094Z" fill="#2E2C2C"/>
</svg>
 