<svg width="83" height="83" viewBox="0 0 83 83" fill="none" xmlns="http://www.w3.org/2000/svg">
<g clip-path="url(#clip0)">
<path d="M27.44 82.3498C27.44 73.2898 27.44 64.5298 27.44 55.2598C18.16 55.2598 9.26 55.2598 0 55.2598C0 45.8698 0 36.9898 0 27.7198C8.86 27.7198 17.78 27.7198 27.31 27.7198C27.31 18.3198 27.31 9.27977 27.31 0.00976562C36.69 0.00976562 45.46 0.00976562 54.69 0.00976562C54.69 8.90977 54.69 17.8398 54.69 27.2098C64.03 27.2098 72.93 27.2098 82.19 27.2098C82.19 36.5398 82.19 45.4398 82.19 54.9398C73.47 54.9398 64.59 54.9398 55.12 54.9398C55.12 64.3898 55.12 73.2698 55.12 82.3598C45.75 82.3498 36.97 82.3498 27.44 82.3498Z" fill="#C33A3D"/>
</g>
<defs>
<clipPath id="clip0">
<rect width="82.19" height="82.35" fill="white"/>
</clipPath>
</defs>
</svg>
