<svg xmlns="http://www.w3.org/2000/svg" width="522" height="522" viewBox="0 0 522 522"><g transform="translate(-806 -463)"><circle cx="261" cy="261" r="261" transform="translate(806 463)" fill="#fff"/><g transform="translate(889.048 554)"><path d="M355.247,195.778c-2.41-8.784-11.217-16.821-25.031-15.232V86.909a13.962,13.962,0,0,0,13.35-14.018V45.51A13.943,13.943,0,0,0,329.66,31.493h-22.9L294.245,9.625a19.134,19.134,0,0,0-26.236-7.009l-49.692,28.97H202.742L152.958,2.617A18.936,18.936,0,0,0,138.4.654a19.209,19.209,0,0,0-11.682,8.971L114.206,31.493h-22.9A13.944,13.944,0,0,0,77.4,45.51V72.891A14.025,14.025,0,0,0,90.75,86.909v95.88c-21.972,5.233-39.4,18.036-52.936,38.875a23.535,23.535,0,0,0-13.535-4.953,23.071,23.071,0,0,0-16.873,6.261,23.665,23.665,0,0,0-1.113,33.362l71.385,77.1a23.378,23.378,0,0,0,17.151,7.476,22.783,22.783,0,0,0,15.945-6.354,23.723,23.723,0,0,0,1.113-33.362l-2.6-2.8,17.337-26.821,40.142,1.869c29.667,1.4,39.123-.093,67.585-10.466,21.972-8.037,49.506-18.97,71.571-27.755,15.853-6.261,29.481-11.681,34.58-13.457h.092C353.764,217.365,357.843,205.31,355.247,195.778ZM329.66,72.891H242.143V45.51H329.66ZM192.73,86.909h35.507v49.9l-15.761-4.859a7.555,7.555,0,0,0-4.079,0l-15.76,4.859v-49.9Zm0-14.018V45.51h35.507V72.891Zm82.232-58.126a5.3,5.3,0,0,1,7.324,1.963l8.529,14.859H246.222ZM138.681,16.728a5.5,5.5,0,0,1,3.244-2.523,5.242,5.242,0,0,1,4.08.561l28.832,16.821H130.244ZM91.307,45.51h87.516V72.891h-6.582a7.009,7.009,0,0,0,0,14.018h6.582v59.434a6.888,6.888,0,0,0,8.993,6.635l22.714-7.009,22.713,7.009a7.663,7.663,0,0,0,2.04.28,6.814,6.814,0,0,0,4.172-1.4,7.059,7.059,0,0,0,2.781-5.607V86.909H316.4V183.63l-53.215,12.522A20.853,20.853,0,0,0,241.031,179.8c-3.709.374-16.224,1.682-29.482,3.084-12.608,1.4-25.68,2.8-29.2,3.084-7.509.654-17.243-.748-28.647-2.43-15.111-2.243-31.891-4.672-48.95-3.084V86.909h5.007a7.009,7.009,0,0,0,0-14.018H91.307Zm9.919,278.856a9.464,9.464,0,0,1-13.442-.467L16.4,246.8a9.647,9.647,0,0,1,.464-13.55,9.315,9.315,0,0,1,6.86-2.617,9.735,9.735,0,0,1,6.675,3.084l71.386,77.1a9.871,9.871,0,0,1,2.6,6.915A9.584,9.584,0,0,1,101.226,324.366ZM336.149,208.674c-5.469,1.869-18.634,7.1-35.229,13.644-21.972,8.784-49.413,19.625-71.2,27.568-26.792,9.719-34.3,10.934-62.207,9.625l-44.129-2.056a7,7,0,0,0-6.119,3.178L99.65,287.827,47.826,231.85c28-45.6,69.995-39.529,103.834-34.577,11.681,1.683,22.713,3.365,31.8,2.524,3.708-.374,16.224-1.682,29.481-3.084,12.608-1.4,25.68-2.8,29.3-3.084a6.954,6.954,0,0,1,7.509,6.261c.093,1.215.371,4.392-8.344,8.037-18.634,7.85-38.381,14.391-54.234,18.036a7.037,7.037,0,0,0,3.059,13.737c16.6-3.832,37.177-10.653,56.553-18.69,6.675-2.8,10.939-6.261,13.442-9.719l69.81-16.354c7.416-1.588,11.032,1.4,11.959,4.766C342.732,202.787,341.341,206.8,336.149,208.674Z" fill="#2e2c2c"/><path d="M140.917,86.909a7.009,7.009,0,1,0-6.953-7.009A7.032,7.032,0,0,0,140.917,86.909Z" fill="#2e2c2c"/></g></g></svg>
