<svg width="93" height="93" viewBox="0 0 93 93" fill="none" xmlns="http://www.w3.org/2000/svg">
<g clip-path="url(#clip0)">
<path d="M37.4529 92.0562C35.4659 91.6148 35.2581 91.5386 33.4385 91.0313C34.5333 87.3222 34.4776 84.1561 34.5282 79.7722C37.1994 78.8538 39.3435 79.4931 41.1226 81.198C39.2066 84.6026 38.0358 88.2457 37.4529 92.0562Z" fill="#E4B120"/>
<path d="M51.3408 0.274359C26.2762 -2.46049 2.53957 15.5063 0.177567 42.7431C-2.08306 68.8028 17.4567 87.8503 33.4382 91.0317C34.6091 87.485 34.386 83.4918 34.5128 79.9046C37.1434 79.0014 39.1658 79.6001 41.026 81.3151C39.2013 84.7654 38 88.2968 37.4425 92.0515C62.5476 97.2269 88.3978 80.8128 92.4984 53.1853C96.2239 28.0795 78.8586 3.27812 51.3408 0.274359ZM48.9078 11.5537C49.2677 10.7977 49.6782 10.0467 50.1648 9.36683C51.7209 7.18505 53.3277 5.04385 55.1473 2.5627C55.8671 6.98209 57.3826 10.8535 57.2711 15.0395C57.2204 17.064 56.6122 18.8804 55.4058 20.4381C53.1351 23.3658 49.6073 22.8026 48.2691 19.3675C47.2047 16.6631 47.7014 14.0704 48.9078 11.5537ZM38.6995 17.8149C38.8313 16.6428 38.6843 15.2374 39.8703 14.0551C39.9768 17.5917 41.989 19.7278 44.2395 21.7117C45.4408 22.7671 46.7435 23.726 47.5646 25.1467C48.852 27.3691 48.3097 30.2105 46.3684 31.4689C44.5031 32.6765 41.913 32.027 40.4532 29.8148C38.0203 26.1108 38.2332 21.935 38.6995 17.8149ZM34.4367 26.0347C35.4454 30.0025 37.5337 33.1534 40.6053 35.7107C41.7052 36.624 42.8152 37.5424 43.7986 38.5774C45.9071 40.8049 45.9071 43.7884 43.8898 45.5287C41.8573 47.2843 38.588 46.8429 36.7227 44.5393C35.0703 42.4996 34.4114 40.0235 34.1073 37.5271C33.646 33.7115 33.722 29.8655 34.4367 26.0347ZM30.9241 42.2712C32.1862 46.3964 34.8625 49.1921 38.2636 51.4449C38.9631 51.9066 39.5865 52.4952 40.1846 53.0838C42.5567 55.4381 42.653 58.3911 40.4532 60.4105C38.441 62.2524 35.0399 61.7754 33.1087 59.3146C31.4918 57.2596 30.9545 54.7785 30.6048 52.2618C30.1436 48.9384 30.1689 45.62 30.9241 42.2712ZM36.6416 75.7084C34.7915 77.0936 31.5881 76.505 29.8546 74.3791C28.2023 72.3495 27.665 69.8734 27.3 67.3517C26.7881 63.8354 27.0669 60.3344 27.6498 56.7878C29.0031 60.7556 31.5983 63.668 34.7003 66.2303C35.6025 66.9711 36.3932 67.8895 37.0826 68.8383C38.7248 71.1064 38.4815 74.3283 36.6416 75.7084ZM49.3184 77.1342C47.9194 78.2149 46.2569 78.8949 44.3865 78.7528C42.5162 78.6056 40.9246 78.0272 40.2657 76.0484C39.5916 74.0188 40.3569 72.4154 41.8725 71.1267C43.0383 70.1372 44.4828 69.6146 45.9071 69.1225C49.8455 67.7626 53.8548 66.5601 57.1545 63.7187C55.7454 68.9449 53.6977 73.7499 49.3184 77.1342ZM52.9222 62.1002C51.9084 62.8917 50.7832 63.4244 49.5211 63.6883C47.0881 64.2008 44.9897 63.323 44.1889 61.4202C43.3069 59.3247 43.9861 56.9958 45.968 55.6208C47.9447 54.2457 50.2915 53.7789 52.537 53.0838C55.7201 52.1045 58.7917 50.973 60.9459 48.1672C59.3645 53.4694 57.4586 58.5433 52.9222 62.1002ZM55.9735 47.3503C54.6557 48.3194 53.201 48.8217 51.5182 48.8014C49.4045 48.776 47.8434 47.8932 47.2858 45.8991C46.7029 43.8036 47.2098 41.8603 49.2525 40.6527C49.9671 40.2315 50.7426 39.8611 51.5334 39.6176C56.1965 38.1766 60.9053 36.8421 64.2253 32.7475C62.9024 38.5115 60.8597 43.7478 55.9735 47.3503ZM59.0654 32.0067C58.5079 32.5039 57.8489 32.9251 57.1697 33.2447C54.382 34.5437 51.5891 33.813 50.6007 31.5805C49.6681 29.4799 50.9555 27.0748 53.7788 25.8165C55.0764 25.2381 56.4601 24.8474 57.8033 24.3704C60.363 23.4673 62.7757 22.3358 64.7373 20.22C64.053 24.751 62.5628 28.8761 59.0654 32.0067Z" fill="#6AA062"/>
<path d="M64.1947 32.7422C62.8718 38.5011 60.8342 43.7374 55.9429 47.3399C54.6251 48.309 53.1704 48.8113 51.4876 48.791C49.3739 48.7657 47.8128 47.8828 47.2552 45.8887C46.6723 43.7932 47.1792 41.8499 49.2219 40.6423C49.9366 40.2212 50.7121 39.8508 51.5028 39.6072C56.166 38.1713 60.8748 36.8318 64.1947 32.7422Z" fill="#E4B120"/>
<path d="M60.9149 48.1572C59.3385 53.4646 57.4327 58.5334 52.8963 62.0902C51.8825 62.8818 50.7573 63.4145 49.4952 63.6784C47.0622 64.1908 44.9638 63.3131 44.1629 61.4103C43.281 59.3148 43.9602 56.9859 45.942 55.6108C47.9188 54.2358 50.2656 53.769 52.511 53.0739C55.684 52.0946 58.7556 50.9631 60.9149 48.1572Z" fill="#E4B120"/>
<path d="M34.4111 26.0244C35.4198 29.9922 37.508 33.1431 40.5797 35.7004C41.6796 36.6137 42.7896 37.5321 43.7729 38.5672C45.8815 40.7946 45.8815 43.7781 43.8642 45.5184C41.8316 47.274 38.5623 46.8326 36.6971 44.529C35.0447 42.4893 34.3857 40.0132 34.0816 37.5169C33.6153 33.7013 33.6964 29.8552 34.4111 26.0244Z" fill="#E4B120"/>
<path d="M55.1118 2.55762C55.8316 6.97701 57.3471 10.8484 57.2356 15.0344C57.1849 17.0589 56.5766 18.8754 55.3703 20.4331C53.0995 23.3607 49.5717 22.7975 48.2336 19.3625C47.1743 16.653 47.671 14.0653 48.8723 11.5435C49.2321 10.7875 49.6427 10.0366 50.1293 9.35668C51.6904 7.17996 53.2922 5.03369 55.1118 2.55762Z" fill="#E4B120"/>
<path d="M57.1335 63.7139C55.7194 68.9349 53.6716 73.7399 49.2923 77.1293C47.8933 78.2101 46.2308 78.89 44.3605 78.7479C42.4901 78.6008 40.8986 78.0223 40.2396 76.0435C39.5655 74.0139 40.3309 72.4106 41.8464 71.1218C43.0122 70.1324 44.4568 69.6098 45.8811 69.1176C49.8245 67.7578 53.8338 66.5553 57.1335 63.7139Z" fill="#E4B120"/>
<path d="M30.8983 42.2607C32.1604 46.3858 34.8367 49.1816 38.2378 51.4344C38.9373 51.8961 39.5607 52.4847 40.1588 53.0733C42.5309 55.4276 42.6272 58.3806 40.4274 60.4C38.4152 62.2419 35.0141 61.7649 33.0829 59.3041C31.466 57.2491 30.9288 54.768 30.579 52.2513C30.1127 48.9279 30.138 45.6095 30.8983 42.2607Z" fill="#E4B120"/>
<path d="M27.6196 56.7822C28.9729 60.75 31.5681 63.6625 34.6701 66.2248C35.5723 66.9656 36.363 67.884 37.0524 68.8328C38.6997 71.1009 38.4564 74.3279 36.6165 75.7029C34.7664 77.0881 31.563 76.4995 29.8295 74.3735C28.1771 72.344 27.6399 69.8679 27.2749 67.3461C26.7579 63.8248 27.0367 60.3238 27.6196 56.7822Z" fill="#E4B120"/>
<path d="M64.7066 20.21C64.0223 24.741 62.5372 28.8661 59.0347 31.9967C58.4772 32.4939 57.8183 32.9151 57.139 33.2347C54.3513 34.5337 51.5584 33.803 50.57 31.5705C49.6374 29.4699 50.9249 27.0648 53.7481 25.8065C55.0457 25.2281 56.4294 24.8374 57.7726 24.3604C60.3323 23.4573 62.7501 22.3258 64.7066 20.21Z" fill="#E4B120"/>
<path d="M39.8395 14.0449C39.946 17.5814 41.9583 19.7176 44.2087 21.7015C45.41 22.7569 46.7127 23.7158 47.5338 25.1365C48.8212 27.3589 48.2789 30.2003 46.3376 31.4586C44.4723 32.6662 41.8822 32.0168 40.4224 29.8045C37.9895 26.1107 38.1973 21.9349 38.6636 17.8149C38.8005 16.6326 38.6535 15.2322 39.8395 14.0449Z" fill="#E4B120"/>
</g>
<defs>
<clipPath id="clip0">
<rect width="93" height="93" fill="white"/>
</clipPath>
</defs>
</svg>
