<svg width="94" height="94" viewBox="0 0 94 94" fill="none" xmlns="http://www.w3.org/2000/svg">
<path d="M63.5234 58.5664C62.5137 58.5664 61.6875 59.3926 61.6875 60.4023V73.0703C61.6875 78.1375 57.575 82.25 52.5078 82.25H32.6797C31.6699 82.25 30.8438 83.0762 30.8438 84.0859V87.7395L26.4559 83.3516C26.1805 82.709 25.5195 82.25 24.7668 82.25H12.8516C7.78438 82.25 3.67188 78.1375 3.67188 73.0703V44.7969C3.67188 39.7297 7.78438 35.6172 12.8516 35.6172H31.3945C32.4043 35.6172 33.2305 34.791 33.2305 33.7812C33.2305 32.7715 32.4043 31.9453 31.3945 31.9453H12.8516C5.76484 31.9453 0 37.7102 0 44.7969V73.0703C0 80.157 5.76484 85.9219 12.8516 85.9219H23.8488L31.3945 93.4676C31.7434 93.8164 32.2207 94 32.6981 94C32.9367 94 33.1754 93.9633 33.3957 93.8531C34.075 93.5777 34.534 92.8984 34.534 92.1641V85.9219H52.5262C59.6129 85.9219 65.3777 80.157 65.3777 73.0703V60.4023C65.3594 59.3926 64.5332 58.5664 63.5234 58.5664Z" fill="#263238"/>
<path d="M67.3238 0H62.6789C47.9547 0 35.9844 11.9703 35.9844 26.6762C35.9844 41.382 47.9547 53.3523 62.6605 53.3523H67.3055C69.6004 53.3523 71.877 53.0586 74.0801 52.4895L80.9465 59.3559C81.2953 59.7047 81.7727 59.8883 82.25 59.8883C82.4887 59.8883 82.7273 59.8516 82.9477 59.7414C83.6269 59.466 84.0859 58.7867 84.0859 58.0523V47.4223C86.9867 45.0723 89.4102 42.098 91.0992 38.775C93.027 35.0113 94 30.9355 94 26.6578C94 11.9703 82.0297 0 67.3238 0ZM81.1484 45.0723C80.6895 45.4211 80.4141 45.9535 80.4141 46.541V53.6277L75.916 49.1297C75.5672 48.7809 75.0898 48.5973 74.6125 48.5973C74.4289 48.5973 74.2453 48.6156 74.0801 48.6707C71.8953 49.35 69.6188 49.6805 67.3055 49.6805H62.6605C49.9742 49.6805 39.6562 39.3625 39.6562 26.6762C39.6562 13.9898 49.9742 3.67188 62.6605 3.67188H67.3055C80.0102 3.67188 90.3281 13.9898 90.3281 26.6762C90.3281 33.9832 86.9867 40.6844 81.1484 45.0723Z" fill="#263238"/>
<path d="M73.2535 20.0852C72.9965 16.2481 69.8938 13.1454 66.0383 12.87C63.8535 12.7231 61.7789 13.4575 60.1816 14.9446C58.6211 16.4134 57.7031 18.488 57.7031 20.636C57.7031 21.6458 58.5293 22.472 59.5391 22.472C60.5488 22.472 61.375 21.6458 61.375 20.636C61.375 19.4794 61.834 18.4145 62.6785 17.6434C63.523 16.854 64.6246 16.4684 65.7629 16.5602C67.7824 16.7071 69.4164 18.3227 69.5633 20.3606C69.7102 22.3985 68.3699 24.2161 66.3688 24.6567C64.7531 25.0239 63.6332 26.4192 63.6332 28.0532V32.4595C63.6332 33.4692 64.4594 34.2954 65.4691 34.2954C66.4789 34.2954 67.3051 33.4692 67.3051 32.4595V28.2001C71.032 27.3005 73.5289 23.904 73.2535 20.0852Z" fill="#263238"/>
<path d="M66.8094 38.426C66.4605 38.0772 66.0016 37.8936 65.5059 37.8936C65.0102 37.8936 64.5512 38.0955 64.2023 38.426C63.8535 38.7748 63.6699 39.2338 63.6699 39.7295C63.6699 40.2068 63.8719 40.6842 64.2023 41.033C64.5512 41.3818 65.0102 41.5654 65.5059 41.5654C66.0016 41.5654 66.4605 41.3635 66.8094 41.033C67.1582 40.6842 67.3418 40.2252 67.3418 39.7295C67.3418 39.2338 67.1398 38.7564 66.8094 38.426Z" fill="#263238"/>
<path d="M50.4883 56.9141H11.75C10.7402 56.9141 9.91406 57.7402 9.91406 58.75C9.91406 59.7598 10.7402 60.5859 11.75 60.5859H50.4883C51.498 60.5859 52.3242 59.7598 52.3242 58.75C52.3242 57.7402 51.498 56.9141 50.4883 56.9141Z" fill="#263238"/>
<path d="M51.7918 67.7277C51.443 67.3789 50.984 67.1953 50.4883 67.1953C49.9926 67.1953 49.5336 67.3973 49.1848 67.7277C48.8359 68.0766 48.6523 68.5355 48.6523 69.0312C48.6523 69.527 48.8543 69.9859 49.1848 70.3348C49.5336 70.6836 49.9926 70.8672 50.4883 70.8672C50.984 70.8672 51.443 70.6652 51.7918 70.3348C52.1406 69.9859 52.3242 69.527 52.3242 69.0312C52.3242 68.5539 52.1223 68.0766 51.7918 67.7277Z" fill="#263238"/>
<path d="M43.273 67.1953H11.75C10.7402 67.1953 9.91406 68.0215 9.91406 69.0312C9.91406 70.041 10.7402 70.8672 11.75 70.8672H43.273C44.2828 70.8672 45.109 70.041 45.109 69.0312C45.109 68.0215 44.2828 67.1953 43.273 67.1953Z" fill="#263238"/>
<path d="M38.5547 46.6328H11.75C10.7402 46.6328 9.91406 47.459 9.91406 48.4688C9.91406 49.4785 10.7402 50.3047 11.75 50.3047H38.5547C39.5645 50.3047 40.3906 49.4785 40.3906 48.4688C40.3906 47.459 39.5645 46.6328 38.5547 46.6328Z" fill="#263238"/>
</svg>
