<svg width="87" height="87" viewBox="0 0 87 87" fill="none" xmlns="http://www.w3.org/2000/svg">
<path d="M43.3527 11.0562C44.3075 11.0562 45.0804 10.2859 45.0804 9.33438V1.72187C45.0804 0.770313 44.3075 0 43.3527 0C42.3979 0 41.625 0.770313 41.625 1.72187V9.35703C41.625 10.2859 42.3979 11.0562 43.3527 11.0562Z" fill="#263238"/>
<path d="M85.3177 58.7925L82.2942 55.7792C81.2258 54.7143 79.7708 54.1026 78.2477 54.1026C77.2702 54.1026 76.3381 54.3518 75.497 54.805L69.791 49.1182L70.0638 48.8464C72.3825 46.5354 72.3825 42.7745 70.0638 40.4636C69.2454 39.6253 68.1996 39.0815 67.0857 38.855C67.2448 38.3112 67.313 37.7675 67.313 37.2011C67.313 35.6151 66.6992 34.1198 65.5626 33.0097C64.7442 32.194 63.6985 31.6276 62.5845 31.4011C62.7437 30.8573 62.8119 30.3136 62.8119 29.7472C62.8119 28.1612 62.1981 26.6659 61.0614 25.5558C60.2203 24.7175 59.1745 24.1737 58.0834 23.9472C58.6744 21.9308 58.1743 19.6651 56.583 18.0792C55.2644 16.7651 53.4685 16.1987 51.7408 16.38L40.4196 14.2503C38.6919 13.9331 36.5323 13.7065 35.1683 14.9526C35.0773 15.0206 34.9864 15.1112 34.9182 15.2245C32.804 14.4542 30.3488 14.9073 28.6438 16.6065C27.5299 17.7167 26.8934 19.212 26.8934 20.7979C26.8934 21.3644 26.9843 21.9308 27.1207 22.4745C26.0068 22.7011 24.9611 23.2675 24.1427 24.0831C23.0287 25.1933 22.3922 26.6886 22.3922 28.2745C22.3922 28.8409 22.4831 29.4073 22.6195 29.9511C21.4829 30.1776 20.4599 30.7214 19.6415 31.5597C18.5276 32.6698 17.891 34.1651 17.891 35.7511C17.891 36.9745 18.2548 38.13 18.9368 39.1042C18.0729 39.3987 17.3 39.8745 16.6407 40.5315C14.3219 42.8425 14.3219 46.6034 16.6407 48.9143L16.9135 49.1862L11.2075 54.8729C9.09328 53.8761 6.45623 54.2612 4.70577 56.0057L1.68226 58.9511C0.591063 60.0159 0 61.4432 0 62.9839C0 64.5018 0.591063 65.9518 1.68226 67.0167L5.45597 70.7776C6.11523 71.4346 7.20643 71.4346 7.88842 70.7776C8.54769 70.0979 8.54769 69.0331 7.88842 68.3534L4.09198 64.5925C3.66005 64.162 3.43271 63.5956 3.43271 62.9839C3.43271 62.3722 3.66005 61.8057 4.09198 61.3753L7.13823 58.362C7.88842 57.6143 9.04782 57.5011 9.93441 58.0222C10.0026 58.1128 10.0708 58.2034 10.139 58.294C10.2754 58.43 10.4573 58.5432 10.6391 58.6339L28.0528 75.9659C28.1437 76.1471 28.2574 76.3057 28.3938 76.4643C28.5302 76.6003 28.712 76.7135 28.8712 76.8042C29.2349 77.212 29.4395 77.7557 29.4395 78.3221C29.4395 78.9339 29.2122 79.5003 28.7802 79.9307L25.7567 82.9214C24.8701 83.805 23.3925 83.805 22.5059 82.9214L18.7094 79.1378C18.0502 78.4581 16.959 78.4581 16.277 79.1378C15.6177 79.7948 15.6177 80.8823 16.277 81.562L20.0734 85.3456C21.1874 86.4557 22.665 86.9995 24.1199 86.9995C25.5976 86.9995 27.0525 86.4557 28.1664 85.3456L31.19 82.3323C32.2812 81.2674 32.8722 79.8175 32.8722 78.2995C32.8722 77.212 32.5767 76.1698 32.0084 75.2636L38.4419 68.8518L38.4646 68.8292C39.1921 68.0589 41.2608 68.2175 43.2386 68.3534C44.648 68.444 46.2166 68.5573 47.7625 68.3761L54.8098 75.3995C54.3551 76.2378 54.105 77.1667 54.105 78.1409C54.105 79.6589 54.6961 81.1089 55.7873 82.1737L58.8108 85.187C59.8793 86.2518 61.3342 86.8635 62.8573 86.8635C64.3804 86.8635 65.8354 86.2745 66.9038 85.187L85.3177 66.8581C86.4089 65.7932 87 64.3432 87 62.8253C87 61.3073 86.3862 59.8573 85.3177 58.7925ZM39.7377 17.5808L47.1941 18.9854L42.7384 23.4261C42.0564 23.0862 41.1016 22.4745 40.0559 21.5003C38.6465 20.1409 37.6235 18.5776 37.5325 17.6034C37.5325 17.5354 37.5325 17.4675 37.5325 17.4448C37.7599 17.3769 38.3509 17.3089 39.7377 17.5808ZM31.0536 18.9628C31.9174 18.1019 33.2814 17.9886 34.2589 18.6683C34.8273 21.0019 36.8051 23.1089 37.7144 23.9698C38.3737 24.6042 40.5106 26.5073 42.6702 27.0284C42.9658 27.4362 43.1249 27.9347 43.1249 28.4558C43.1249 29.1354 42.8748 29.7698 42.3974 30.2229C41.92 30.6987 41.2835 30.9479 40.6242 30.9479C39.9422 30.9479 39.3057 30.6987 38.8283 30.2229L31.0763 22.5198C30.5989 22.044 30.3488 21.4097 30.3488 20.7526C30.3034 20.0729 30.5762 19.4386 31.0536 18.9628ZM26.5524 26.4393C27.0298 25.9636 27.6663 25.7143 28.3256 25.7143C29.0076 25.7143 29.6441 25.9862 30.1215 26.4393L36.3504 32.6472C37.3279 33.6214 37.3279 35.23 36.3504 36.2042C35.873 36.68 35.2365 36.9292 34.5545 36.9292C33.8725 36.9292 33.236 36.68 32.7586 36.2042L28.0528 31.4917L28.03 31.469L26.5524 29.9964C26.075 29.5206 25.8249 28.8862 25.8249 28.2292C25.8249 27.5495 26.075 26.9151 26.5524 26.4393ZM22.0512 33.8933C22.5286 33.4175 23.1651 33.1683 23.8471 33.1683C24.5291 33.1683 25.1429 33.4175 25.6203 33.8933L30.3716 38.6284C30.849 39.1042 31.099 39.7386 31.099 40.3956C31.099 41.0753 30.849 41.687 30.3716 42.1628C29.8942 42.6386 29.2576 42.8878 28.5984 42.8878C27.9164 42.8878 27.2799 42.6386 26.8025 42.1628L25.0747 40.4409L22.0512 37.4503C21.5738 36.9745 21.3238 36.3401 21.3238 35.6831C21.3238 35.0034 21.5965 34.369 22.0512 33.8933ZM19.0732 42.8651C19.5506 42.3893 20.1871 42.1401 20.8691 42.1401C21.5511 42.1401 22.1876 42.3893 22.665 42.8651L24.3927 44.587C24.8701 45.0628 25.1202 45.6745 25.1202 46.3542C25.1202 47.0339 24.8701 47.6456 24.3927 48.1214C23.9153 48.5972 23.2788 48.8464 22.6195 48.8464C21.9375 48.8464 21.301 48.5972 20.8236 48.1214L20.619 47.9175L19.1414 46.4448C18.0956 45.4479 18.0956 43.8393 19.0732 42.8651ZM54.0596 62.3268C53.4003 61.6472 52.3091 61.6472 51.6271 62.3268L50.104 63.8448C48.6491 65.2948 46.012 65.1136 43.4886 64.9323C40.7379 64.7511 37.8735 64.5472 36.0321 66.4276L29.6896 72.7261L13.8673 56.98L19.4596 51.4292C20.3917 51.9956 21.4602 52.2901 22.5741 52.2901C24.1654 52.2901 25.6658 51.6784 26.7797 50.5682C27.8937 49.4581 28.5302 47.9628 28.5302 46.3768C28.5302 46.3542 28.5302 46.3542 28.5302 46.3315C28.5529 46.3315 28.5529 46.3315 28.5756 46.3315C30.167 46.3315 31.6674 45.7198 32.7813 44.6097C33.8952 43.4995 34.5317 42.0042 34.5317 40.4182C34.5317 40.3956 34.5317 40.3956 34.5317 40.3729C34.5545 40.3729 34.5545 40.3729 34.5772 40.3729C36.1685 40.3729 37.6689 39.7612 38.7829 38.6511C39.9423 37.4729 40.5333 35.955 40.5106 34.4143C40.5333 34.4143 40.5333 34.4143 40.556 34.4143C42.1474 34.4143 43.6478 33.8026 44.7617 32.6698C45.8756 31.5597 46.5121 30.0643 46.5121 28.4784C46.5121 27.3683 46.2166 26.3034 45.6483 25.3745L50.5587 20.4808C50.9224 20.1183 51.3771 19.8917 51.8545 19.8011C51.8999 19.8011 51.9454 19.7784 52.0136 19.7784C52.7638 19.6651 53.5594 19.9144 54.1505 20.4808C55.128 21.455 55.128 23.0636 54.1505 24.0378L52.6501 25.5104C52.6501 25.5104 52.6501 25.5104 52.6274 25.5331L50.8997 27.255C50.2177 27.912 50.2177 28.9995 50.8997 29.6792C51.5589 30.3362 52.6501 30.3589 53.3321 29.6792L54.8325 28.1839L55.0598 27.9573C56.0374 26.9831 57.6287 26.9831 58.6289 27.9573C59.1063 28.4331 59.3564 29.0448 59.3564 29.7245C59.3564 30.4042 59.1063 31.0159 58.6289 31.4917L57.1286 32.987L55.4008 34.6862C54.7188 35.3433 54.7188 36.4308 55.4008 37.1104C56.0601 37.7901 57.1513 37.7901 57.8333 37.1104L59.561 35.3886C60.0384 34.9128 60.6749 34.6636 61.3342 34.6636C62.0162 34.6636 62.6527 34.9128 63.1301 35.3886C63.6075 35.8643 63.8576 36.4987 63.8576 37.1558C63.8576 37.8354 63.6075 38.4472 63.1301 38.9229L60.1293 41.9136C59.4701 42.5706 59.4701 43.6581 60.1293 44.3378C60.4703 44.6776 60.9023 44.8362 61.3342 44.8362C61.7661 44.8362 62.2208 44.6776 62.5391 44.3378L64.0167 42.8651L64.0395 42.8425C64.5169 42.3667 65.1534 42.1175 65.8126 42.1175C66.4946 42.1175 67.1312 42.3667 67.5858 42.8425C68.5634 43.8167 68.5634 45.4026 67.5858 46.3995L66.0854 47.8948L63.7212 50.2511C63.0392 50.9081 63.0392 51.9956 63.7212 52.6753C64.0622 53.0151 64.4941 53.1737 64.926 53.1737C65.358 53.1737 65.8126 53.0151 66.1309 52.6753L67.2903 51.5198L72.8372 57.0479L57.0149 72.794L51.3543 67.1526C51.7408 66.9034 52.1273 66.6089 52.491 66.2464L54.0141 64.7284C54.7416 64.0714 54.7416 62.9839 54.0596 62.3268ZM82.8853 64.4339L64.4714 82.7628C64.0395 83.1932 63.4711 83.4198 62.8573 83.4198C62.2435 83.4198 61.6752 83.1932 61.2433 82.7628L58.197 79.7495C57.7651 79.319 57.5378 78.7526 57.5378 78.1409C57.5378 77.5292 57.7651 76.9628 58.197 76.5323L76.6109 58.2034C77.0428 57.7729 77.6112 57.5464 78.225 57.5464C78.8388 57.5464 79.4071 57.7729 79.839 58.2034L82.8625 61.2167C83.2945 61.6472 83.5218 62.2136 83.5218 62.8253C83.5218 63.437 83.3172 64.0034 82.8853 64.4339Z" fill="#263238"/>
<path d="M20.5508 9.60625C20.8918 9.94609 21.3237 10.1047 21.7557 10.1047C22.1876 10.1047 22.6423 9.94609 22.9605 9.60625C23.6198 8.92656 23.6198 7.86172 22.9605 7.18203L16.7089 0.974219C16.0269 0.317188 14.9584 0.317188 14.2764 0.974219C13.5944 1.63125 13.6172 2.71875 14.2764 3.39844L20.5508 9.60625Z" fill="#263238"/>
<path d="M64.9256 10.1054C65.3576 10.1054 65.8122 9.94681 66.1305 9.60697L72.4049 3.39916C73.0641 2.74213 73.0869 1.65463 72.4049 0.974938C71.7456 0.317907 70.6544 0.295251 69.9724 0.974938L63.7208 7.20541C63.0615 7.86244 63.0388 8.94994 63.7208 9.62963C64.0618 9.94681 64.4937 10.1054 64.9256 10.1054Z" fill="#263238"/>
<path d="M10.5483 73.6103C9.88902 74.29 9.88902 75.3775 10.571 76.0345C10.912 76.3517 11.3439 76.533 11.7759 76.533C12.2305 76.533 12.6625 76.3517 13.0035 76.0119C13.6627 75.3322 13.6627 74.2447 12.9807 73.5876C12.2987 72.9306 11.2303 72.9306 10.5483 73.6103Z" fill="#263238"/>
<path d="M58.2653 59.8572C58.5153 59.8572 58.7881 59.7892 59.0382 59.6759C59.8793 59.2454 60.2203 58.2259 59.7884 57.3876C59.3565 56.5493 58.3335 56.2095 57.4923 56.64C56.6512 57.0704 56.3102 58.09 56.7422 58.9282C57.0377 59.5173 57.6287 59.8572 58.2653 59.8572Z" fill="#263238"/>
</svg>
