<svg width="744" height="569" viewBox="0 0 744 569" fill="none" xmlns="http://www.w3.org/2000/svg">
<g clip-path="url(#clip0)">
<path opacity="0.24" d="M743.972 344.827C743.706 379.375 739.169 414.589 725.012 445.434C716.014 464.941 703.305 482.506 687.597 497.149C650.728 532.056 599.555 550.955 550.072 556.882C480.112 565.259 409.34 553.366 338.981 557.055C295.073 559.372 251.471 567.71 207.51 568.868C163.549 570.027 117.871 563.261 80.5497 537.89C66.3708 528.134 53.8009 516.222 43.2945 502.583C29.6644 484.986 19.028 465.258 11.8138 444.195C-16.234 363.193 6.93073 264.278 67.1911 207.968C90.9679 185.726 119.295 170.13 147.436 155.054C206.313 123.636 305.172 -95.331 536.806 48.5071C582.045 76.6755 605.476 134.357 645.472 170.863C681.091 203.36 721.486 235.151 736.548 283.11C742.775 302.834 744.118 324.011 743.972 344.827Z" fill="#96D293"/>
<path opacity="0.24" d="M687.598 497.147C650.729 532.055 599.556 550.954 550.073 556.88C480.113 565.257 409.342 553.364 338.983 557.053C295.075 559.371 251.473 567.708 207.512 568.867C163.55 570.025 117.873 563.26 80.5511 537.888C66.3722 528.132 53.8023 516.22 43.2959 502.581C46.8788 501.667 50.5133 500.969 54.1797 500.49C127.972 490.502 202.655 489.303 277.112 488.144L480.379 484.934C502.906 484.575 525.538 484.215 547.984 486.399C576.698 489.17 604.892 496.029 633.618 498.612C651.833 500.277 669.649 497.614 687.598 497.147Z" fill="#96D293"/>
<path d="M559.56 501.463C422.144 493.86 284.416 493.736 146.986 501.09C123.768 502.328 100.137 503.873 78.4492 512.277C89.0936 522.013 104.927 522.785 119.35 523.025C225.04 524.73 330.738 525.2 436.445 524.437C442.646 524.437 451.214 521.68 449.99 515.58C449.618 513.742 448.274 512.091 448.38 510.253C448.58 506.857 452.917 505.631 456.363 505.472C465.535 504.997 474.731 505.488 483.799 506.937C487.086 507.483 490.598 508.268 492.767 510.799C494.47 512.77 495.042 515.447 496.28 517.724C500.351 525.169 510.517 526.794 518.899 525.156C527.281 523.518 535.078 519.562 543.554 519.136C551.018 518.75 558.31 521.161 565.601 522.852C589.431 528.366 614.272 526.328 638.635 524.264C663.915 522.12 664.447 504.632 639.247 503.234C612.796 501.809 586.065 502.941 559.56 501.463Z" fill="url(#paint0_linear)"/>
<path d="M653.683 320.133L642.28 257.803H657.941C657.941 257.803 661.533 307.667 663.263 321.186L653.683 320.133Z" fill="#F5C7C8"/>
<path d="M662.464 316.71C662.464 316.71 664.66 326.433 663.369 331.853C662.079 337.274 656.717 343.587 653.683 343.96C650.649 344.333 648.786 342.841 649.013 340.777C649.239 338.712 656.996 331.374 655.798 329.043C654.601 326.712 651.541 333.798 650.476 332.08C649.412 330.362 649.864 327.698 652.539 324.329C655.213 320.959 652.539 316.258 652.539 316.258C652.539 316.258 660.575 312.688 662.464 316.71Z" fill="#F5C7C8"/>
<path d="M631.902 128.589C635.161 126.178 641.787 127.004 645.074 128.322C647.445 129.291 649.562 130.791 651.262 132.707C652.962 134.624 654.2 136.906 654.88 139.377C655.472 141.693 655.643 144.098 655.386 146.475C654.907 151.709 652.658 156.997 648.414 160.113C639.526 166.613 634.044 160.579 631.409 152.468C629.731 147.881 629.192 142.954 629.839 138.111C630.318 134.449 628.642 131.559 631.476 128.935L631.902 128.589Z" fill="#606161"/>
<path d="M631.902 128.589C635.161 126.178 641.787 127.004 645.074 128.322C647.445 129.291 649.562 130.791 651.262 132.707C652.962 134.624 654.2 136.906 654.88 139.377C655.472 141.693 655.643 144.098 655.386 146.475C654.907 151.709 652.658 156.997 648.414 160.113C639.526 166.613 634.044 160.579 631.409 152.468C629.731 147.881 629.192 142.954 629.839 138.111C630.318 134.449 628.642 131.559 631.476 128.935L631.902 128.589Z" fill="url(#paint1_linear)"/>
<path d="M613.274 174.284C626.884 174.284 637.916 160.51 637.916 143.519C637.916 126.527 626.884 112.753 613.274 112.753C599.665 112.753 588.633 126.527 588.633 143.519C588.633 160.51 599.665 174.284 613.274 174.284Z" fill="#606161"/>
<path d="M535.078 228.396C535.078 228.396 530.555 220.405 528.599 219.22C526.643 218.035 523.17 214.745 522.159 215.491C520.336 216.823 528.186 223.802 521.188 223.282C520.083 223.189 514.468 223.282 511.754 225.826C511.221 226.332 510.802 226.945 510.523 227.625C510.244 228.306 510.113 229.037 510.137 229.772C510.16 230.506 510.339 231.228 510.662 231.888C510.984 232.549 511.443 233.133 512.007 233.604C513.843 234.856 520.15 235.442 523.556 235.335C526.962 235.229 530.954 235.721 533.269 237.12" fill="#F5C7C8"/>
<path d="M583.364 194.488C583.364 194.488 580.13 204.663 579.811 210.164C579.492 215.664 576.91 238.772 576.046 239.904C575.181 241.036 533.774 226.945 533.774 226.945C533.774 226.945 531.273 230.474 533.269 237.12C533.269 237.12 564.018 264.969 582.632 266.061C601.246 267.153 598.851 223.029 598.851 223.029" fill="#F5C7C8"/>
<path d="M619.781 484.868L616.361 492.606C618.384 491.913 628.07 499.704 632.434 499.718C635.304 499.597 638.066 498.587 640.338 496.828L637.597 482.804L632.714 413.375L606.462 417.184L619.781 484.868Z" fill="#F5C7C8"/>
<path d="M569.18 484.295L564.138 489.023C566.267 488.863 573.704 498.826 577.935 499.931C580.748 500.53 583.676 500.241 586.318 499.105L587.143 484.828L592.465 420.567L566.586 423.111L569.18 484.295Z" fill="#F5C7C8"/>
<path d="M622.907 164.042L623.958 186.39C622.788 188.095 621.185 189.457 619.314 190.335C617.442 191.213 615.371 191.575 613.314 191.385C602.536 190.186 603.002 186.99 603.002 186.99C603.002 186.99 603.002 170.861 602.576 167.252" fill="#F5C7C8"/>
<path d="M620.339 171.314L622.827 166.812L602.59 169.063C602.75 170.395 602.856 173.645 602.909 177.054C606.053 177.988 609.406 177.939 612.521 176.913C615.636 175.887 618.364 173.934 620.339 171.314Z" fill="#DBB4AF"/>
<path d="M638.847 325.807C638.847 325.807 642.094 387.284 646.418 437.042C646.418 437.042 587.022 445.606 562.767 436.083C562.767 436.083 567.982 336.941 569.073 322.717L638.847 325.807Z" fill="#606161"/>
<path d="M638.847 325.807C638.847 325.807 642.094 387.284 646.418 437.042C646.418 437.042 587.022 445.606 562.767 436.083C562.767 436.083 567.982 336.941 569.073 322.717L638.847 325.807Z" fill="url(#paint2_linear)"/>
<path d="M638.86 193.196C638.86 193.196 638.754 188.801 623.546 188.668C612.462 188.561 608.59 187.655 600.713 189.16C586.344 191.904 584.747 192.796 582.552 194.661C577.349 199.149 568.528 319.853 568.528 319.853C568.528 319.853 559.706 334.344 605.384 339.005C622.282 340.737 638.647 329.016 638.647 329.016L638.86 193.196Z" fill="#96D293"/>
<path d="M631.317 127.856C631.317 127.856 630.425 156.477 622.109 166.266C613.341 176.601 608.351 177.866 597.707 173.645C588.659 170.035 587.582 145.25 587.276 138.111C586.491 119.585 614.858 103.63 631.317 127.856Z" fill="#F5C7C8"/>
<path d="M637.93 212.801L638.595 328.963L628.097 335.023L626.221 232.419L637.93 212.801Z" fill="url(#paint3_linear)"/>
<path d="M629.095 183.7L629.294 188.934C629.309 189.351 629.203 189.763 628.991 190.121C628.779 190.48 628.469 190.771 628.097 190.958C628.097 190.958 619.901 193.742 605.704 194.488L595.272 191.824C594.897 191.667 594.573 191.408 594.338 191.076C594.103 190.744 593.965 190.353 593.942 189.946L593.795 187.349C593.764 186.792 593.946 186.243 594.305 185.815C594.663 185.387 595.171 185.112 595.725 185.045L626.607 181.542C626.915 181.501 627.229 181.525 627.527 181.615C627.826 181.704 628.102 181.855 628.337 182.059C628.572 182.263 628.762 182.515 628.892 182.798C629.023 183.081 629.092 183.388 629.095 183.7Z" fill="#96D293"/>
<path d="M629.095 183.7L629.294 188.934C629.309 189.351 629.203 189.763 628.991 190.121C628.779 190.48 628.469 190.771 628.097 190.958C628.097 190.958 619.901 193.742 605.704 194.488L595.272 191.824C594.897 191.667 594.573 191.408 594.338 191.076C594.103 190.744 593.965 190.353 593.942 189.946L593.795 187.349C593.764 186.792 593.946 186.243 594.305 185.815C594.663 185.387 595.171 185.112 595.725 185.045L626.607 181.542C626.915 181.501 627.229 181.525 627.527 181.615C627.826 181.704 628.102 181.855 628.337 182.059C628.572 182.263 628.762 182.515 628.892 182.798C629.023 183.081 629.092 183.388 629.095 183.7Z" fill="url(#paint4_linear)"/>
<path d="M628.017 146.009C628.017 146.009 628.469 141.694 632.714 143.559C636.958 145.423 632.966 152.881 631.317 154.972C629.667 157.063 626.5 156.397 626.5 156.397" fill="#F5C7C8"/>
<path d="M634.723 126.125L636.412 132.891H633.645L631.316 122.569L634.723 126.125Z" fill="#4EAE93"/>
<path d="M638.289 191.997C638.289 191.997 644.542 197.884 656.051 225.52C660.748 236.814 664.673 257.843 664.673 257.843C664.673 257.843 648.627 266.087 639.167 266.087C634.936 241.515 624.77 231.992 622.881 220.658C620.991 209.324 632.567 189.813 638.289 191.997Z" fill="#96D293"/>
<path d="M556.287 490.395C551.652 491.706 547.557 494.469 544.605 498.28C543.43 499.78 542.714 501.588 542.543 503.487C542.472 504.435 542.661 505.383 543.09 506.231C543.52 507.078 544.172 507.792 544.978 508.295C546.099 508.793 547.318 509.03 548.544 508.988C559.913 509.467 571.3 509.267 582.645 508.388C583.122 508.414 583.599 508.336 584.042 508.159C584.486 507.982 584.885 507.71 585.213 507.363C585.514 506.762 585.626 506.084 585.533 505.418L585.213 498.28C585.269 497.481 585.063 496.687 584.628 496.015C583.364 494.471 580.902 495.762 578.92 495.656C574.928 495.443 573.917 490.475 570.631 489.103C566.879 487.532 560.04 489.25 556.287 490.395Z" fill="#96D293"/>
<path d="M611.678 489.982C607.037 491.283 602.94 494.048 599.995 497.867C598.815 499.365 598.093 501.174 597.92 503.074C597.851 504.021 598.043 504.968 598.475 505.814C598.906 506.659 599.561 507.37 600.368 507.869C601.488 508.371 602.707 508.613 603.934 508.575C615.303 509.056 626.691 508.852 638.036 507.962C638.44 508.054 638.861 508.041 639.258 507.924C639.656 507.807 640.017 507.59 640.307 507.293C640.597 506.996 640.805 506.63 640.913 506.23C641.021 505.829 641.025 505.407 640.923 505.005L640.604 497.853C640.659 497.059 640.453 496.269 640.018 495.602C638.754 494.057 636.293 495.349 634.297 495.243C630.305 495.03 629.307 490.062 626.021 488.677C622.202 487.105 615.377 488.823 611.678 489.982Z" fill="#96D293"/>
<path d="M556.287 490.395C551.652 491.706 547.557 494.469 544.605 498.28C543.43 499.78 542.714 501.588 542.543 503.487C542.472 504.435 542.661 505.383 543.09 506.231C543.52 507.078 544.172 507.792 544.978 508.295C546.099 508.793 547.318 509.03 548.544 508.988C559.913 509.467 571.3 509.267 582.645 508.388C583.122 508.414 583.599 508.336 584.042 508.159C584.486 507.982 584.885 507.71 585.213 507.363C585.514 506.762 585.626 506.084 585.533 505.418L585.213 498.28C585.269 497.481 585.063 496.687 584.628 496.015C583.364 494.471 580.902 495.762 578.92 495.656C574.928 495.443 573.917 490.475 570.631 489.103C566.879 487.532 560.04 489.25 556.287 490.395Z" fill="url(#paint5_linear)"/>
<path d="M611.678 489.982C607.037 491.283 602.94 494.048 599.995 497.867C598.815 499.365 598.093 501.174 597.92 503.074C597.851 504.021 598.043 504.968 598.475 505.814C598.906 506.659 599.561 507.37 600.368 507.869C601.488 508.371 602.707 508.613 603.934 508.575C615.303 509.056 626.691 508.852 638.036 507.962C638.44 508.054 638.861 508.041 639.258 507.924C639.656 507.807 640.017 507.59 640.307 507.293C640.597 506.996 640.805 506.63 640.913 506.23C641.021 505.829 641.025 505.407 640.923 505.005L640.604 497.853C640.659 497.059 640.453 496.269 640.018 495.602C638.754 494.057 636.293 495.349 634.297 495.243C630.305 495.03 629.307 490.062 626.021 488.677C622.202 487.105 615.377 488.823 611.678 489.982Z" fill="url(#paint6_linear)"/>
<path d="M587.874 121.197C587.435 121.983 587.023 122.809 586.61 123.688C585.489 126.008 584.954 128.57 585.054 131.146C585.054 132.211 587.116 137.299 586.917 137.712C589.66 132.234 593.725 127.528 598.745 124.021C600.634 128.296 605.225 130.586 609.389 132.598C613.554 134.609 618.171 137.072 619.794 141.468C620.925 144.477 620.499 148.127 622.455 150.671C627.285 150.018 628.336 142.213 633.1 141.348C633.965 141.188 634.869 141.348 635.761 141.108C636.838 140.791 637.787 140.141 638.473 139.251C639.159 138.361 639.546 137.277 639.579 136.154C640.325 126.072 628.11 116.709 619.954 113.339C616.178 111.738 612.119 110.914 608.019 110.914C603.918 110.914 599.86 111.738 596.084 113.339C592.517 114.922 589.614 117.701 587.874 121.197Z" fill="#606161"/>
<path d="M587.874 121.197C587.435 121.983 587.023 122.809 586.61 123.688C585.489 126.008 584.954 128.57 585.054 131.146C585.054 132.211 587.116 137.299 586.917 137.712C589.66 132.234 593.725 127.528 598.745 124.021C600.634 128.296 605.225 130.586 609.389 132.598C613.554 134.609 618.171 137.072 619.794 141.468C620.925 144.477 620.499 148.127 622.455 150.671C627.285 150.018 628.336 142.213 633.1 141.348C633.965 141.188 634.869 141.348 635.761 141.108C636.838 140.791 637.787 140.141 638.473 139.251C639.159 138.361 639.546 137.277 639.579 136.154C640.325 126.072 628.11 116.709 619.954 113.339C616.178 111.738 612.119 110.914 608.019 110.914C603.918 110.914 599.86 111.738 596.084 113.339C592.517 114.922 589.614 117.701 587.874 121.197Z" fill="url(#paint7_linear)"/>
<path d="M377.05 73.6504H132.429C120.686 73.6504 111.167 83.179 111.167 94.9331V491.66C111.167 503.414 120.686 512.943 132.429 512.943H377.05C388.792 512.943 398.312 503.414 398.312 491.66V94.9331C398.312 83.179 388.792 73.6504 377.05 73.6504Z" fill="#96D293"/>
<path d="M385.206 73.6504H140.585C128.843 73.6504 119.323 83.179 119.323 94.9331V491.66C119.323 503.414 128.843 512.943 140.585 512.943H385.206C396.948 512.943 406.468 503.414 406.468 491.66V94.9331C406.468 83.179 396.948 73.6504 385.206 73.6504Z" fill="#96D293"/>
<path d="M385.206 73.6504H140.585C128.843 73.6504 119.323 83.179 119.323 94.9331V491.66C119.323 503.414 128.843 512.943 140.585 512.943H385.206C396.948 512.943 406.468 503.414 406.468 491.66V94.9331C406.468 83.179 396.948 73.6504 385.206 73.6504Z" fill="url(#paint8_linear)"/>
<path d="M141.264 326.353L148.781 94.9866L366.126 99.5814C366.126 99.5814 337.705 339.738 357.77 401.722C377.834 463.705 381.174 486.959 381.174 486.959L146.28 493.618L141.264 326.353Z" fill="url(#paint9_linear)"/>
<path d="M420.252 466.502L182.643 469.019C182.643 469.019 158.215 326.952 153.97 279.326C149.806 233.444 148.848 94.9866 148.848 94.9866H375.745C375.745 94.9866 376.317 229.169 380.336 273.626C384.78 322.677 420.252 466.502 420.252 466.502Z" fill="white"/>
<path d="M526.297 92.4692L510.131 55.7372L508.8 52.6207C508.754 52.5208 508.674 52.4406 508.574 52.3943C508.49 52.3079 508.385 52.2437 508.27 52.2074C508.155 52.1712 508.033 52.1639 507.915 52.1863C507.796 52.2087 507.685 52.2601 507.591 52.3359C507.497 52.4117 507.423 52.5095 507.376 52.6207L489.866 92.4692C489.508 93.311 489.327 94.2178 489.334 95.1329V479.9H526.829V95.1462C526.838 94.2266 526.657 93.3152 526.297 92.4692ZM526.523 479.674H489.547V471.509H526.523V479.674Z" fill="#96D293"/>
<path d="M520.376 95.1462V471.51H497.397V95.0929C497.381 94.1954 497.484 93.2996 497.703 92.4293L508.441 52.5808C508.44 52.4982 508.468 52.4179 508.521 52.3543C508.747 51.9948 509.146 52.088 509.279 52.5808L510.131 55.6973L520.016 92.4293C520.257 93.3147 520.378 94.2285 520.376 95.1462Z" fill="url(#paint10_linear)"/>
<path d="M497.397 479.674H520.376V507.402C520.376 511.052 518.54 513.995 516.318 513.995H501.402C499.167 513.995 497.411 511.052 497.411 507.402L497.397 479.674Z" fill="url(#paint11_linear)"/>
<path d="M526.829 95.1463C520.989 97.9972 514.578 99.4789 508.081 99.4789C501.585 99.4789 495.173 97.9972 489.334 95.1463L500.378 70.9868L508.747 52.6741L515.958 69.655L526.829 95.1463Z" fill="url(#paint12_linear)"/>
<path d="M515.958 69.6017C511.087 71.8857 505.564 72.3579 500.377 70.9336L508.746 52.6208L515.958 69.6017Z" fill="#96D293"/>
<path d="M515.958 69.6018C510.636 72.2655 503.984 71.8126 499.486 70.7472L507.895 51.0493L515.958 69.6018Z" fill="url(#paint13_linear)"/>
<path d="M286.719 141.84H174.714C172.634 141.84 170.948 143.525 170.948 145.603C170.948 147.681 172.634 149.365 174.714 149.365H286.719C288.798 149.365 290.484 147.681 290.484 145.603C290.484 143.525 288.798 141.84 286.719 141.84Z" fill="#96D293"/>
<path d="M286.719 154.812H174.714C172.634 154.812 170.948 156.497 170.948 158.575C170.948 160.653 172.634 162.337 174.714 162.337H286.719C288.798 162.337 290.484 160.653 290.484 158.575C290.484 156.497 288.798 154.812 286.719 154.812Z" fill="#96D293"/>
<path d="M286.719 167.785H174.714C172.634 167.785 170.948 169.469 170.948 171.547C170.948 173.625 172.634 175.31 174.714 175.31H286.719C288.798 175.31 290.484 173.625 290.484 171.547C290.484 169.469 288.798 167.785 286.719 167.785Z" fill="#96D293"/>
<path d="M287.398 180.757H213.153C211.448 180.757 210.066 182.14 210.066 183.846V185.192C210.066 186.898 211.448 188.281 213.153 188.281H287.398C289.102 188.281 290.484 186.898 290.484 185.192V183.846C290.484 182.14 289.102 180.757 287.398 180.757Z" fill="#96D293"/>
<path d="M287.97 224.055H175.965C173.885 224.055 172.199 225.739 172.199 227.817C172.199 229.895 173.885 231.58 175.965 231.58H287.97C290.049 231.58 291.735 229.895 291.735 227.817C291.735 225.739 290.049 224.055 287.97 224.055Z" fill="#96D293"/>
<path d="M287.97 237.027H175.965C173.885 237.027 172.199 238.711 172.199 240.789C172.199 242.867 173.885 244.551 175.965 244.551H287.97C290.049 244.551 291.735 242.867 291.735 240.789C291.735 238.711 290.049 237.027 287.97 237.027Z" fill="#96D293"/>
<path d="M287.97 249.985H175.965C173.885 249.985 172.199 251.67 172.199 253.748C172.199 255.826 173.885 257.51 175.965 257.51H287.97C290.049 257.51 291.735 255.826 291.735 253.748C291.735 251.67 290.049 249.985 287.97 249.985Z" fill="#96D293"/>
<path d="M288.648 262.958H214.403C212.698 262.958 211.316 264.341 211.316 266.047V267.393C211.316 269.099 212.698 270.482 214.403 270.482H288.648C290.352 270.482 291.734 269.099 291.734 267.393V266.047C291.734 264.341 290.352 262.958 288.648 262.958Z" fill="#96D293"/>
<path d="M296.498 310.025H184.48C183.442 309.993 182.448 309.599 181.67 308.911C180.892 308.222 180.38 307.283 180.222 306.256C180.141 305.786 180.165 305.305 180.293 304.846C180.42 304.387 180.649 303.962 180.961 303.603C181.273 303.243 181.661 302.958 182.097 302.767C182.533 302.576 183.006 302.485 183.482 302.5H295.487C296.526 302.525 297.523 302.915 298.303 303.602C299.084 304.288 299.599 305.228 299.758 306.256C299.839 306.726 299.814 307.208 299.687 307.667C299.559 308.126 299.331 308.552 299.019 308.912C298.707 309.273 298.319 309.56 297.883 309.752C297.447 309.944 296.974 310.037 296.498 310.025Z" fill="#96D293"/>
<path d="M298.228 322.97H186.209C185.157 322.946 184.147 322.548 183.36 321.848C182.573 321.148 182.06 320.191 181.912 319.148C181.833 318.679 181.859 318.198 181.988 317.74C182.116 317.283 182.345 316.859 182.656 316.5C182.968 316.141 183.355 315.856 183.79 315.664C184.225 315.472 184.697 315.38 185.171 315.392H297.19C298.226 315.423 299.218 315.815 299.996 316.501C300.773 317.187 301.287 318.123 301.448 319.148C301.537 319.618 301.52 320.103 301.398 320.566C301.277 321.029 301.054 321.459 300.746 321.825C300.437 322.191 300.051 322.484 299.616 322.682C299.18 322.88 298.706 322.978 298.228 322.97Z" fill="#96D293"/>
<path d="M299.958 335.915H187.939C186.903 335.885 185.911 335.492 185.133 334.806C184.356 334.121 183.842 333.184 183.682 332.16C183.601 331.69 183.625 331.208 183.753 330.748C183.88 330.289 184.108 329.863 184.42 329.503C184.732 329.142 185.12 328.856 185.556 328.663C185.992 328.471 186.465 328.378 186.941 328.391H299C300.038 328.422 301.032 328.816 301.809 329.505C302.587 330.193 303.099 331.132 303.257 332.16C303.337 332.632 303.31 333.116 303.179 333.577C303.048 334.038 302.816 334.464 302.5 334.823C302.184 335.183 301.792 335.468 301.352 335.657C300.912 335.846 300.436 335.934 299.958 335.915Z" fill="#96D293"/>
<path d="M302.366 348.861H228.121C227.271 348.837 226.456 348.517 225.817 347.955C225.178 347.393 224.755 346.625 224.622 345.784L224.436 344.453C224.374 344.069 224.396 343.676 224.502 343.302C224.607 342.928 224.793 342.581 225.047 342.287C225.301 341.993 225.615 341.757 225.97 341.598C226.324 341.438 226.708 341.358 227.097 341.363H301.354C302.207 341.387 303.023 341.709 303.663 342.274C304.302 342.838 304.723 343.609 304.854 344.453L305.027 345.784C305.087 346.167 305.063 346.559 304.956 346.931C304.849 347.303 304.663 347.648 304.41 347.941C304.156 348.234 303.842 348.468 303.489 348.627C303.136 348.786 302.753 348.866 302.366 348.861Z" fill="#96D293"/>
<path d="M310.097 392.399H198.078C197.014 392.353 195.996 391.954 195.184 391.264C194.371 390.574 193.812 389.633 193.594 388.59C193.479 388.131 193.472 387.653 193.572 387.191C193.673 386.729 193.878 386.297 194.173 385.928C194.468 385.559 194.845 385.264 195.273 385.065C195.701 384.866 196.169 384.768 196.641 384.781H308.66C309.724 384.826 310.742 385.225 311.554 385.915C312.366 386.605 312.926 387.546 313.144 388.59C313.262 389.048 313.271 389.528 313.172 389.991C313.073 390.454 312.867 390.887 312.571 391.257C312.276 391.626 311.898 391.922 311.469 392.12C311.039 392.318 310.569 392.414 310.097 392.399Z" fill="#96D293"/>
<path d="M312.584 405.477H200.539C199.473 405.431 198.453 405.03 197.641 404.337C196.829 403.645 196.271 402.701 196.055 401.655C195.938 401.198 195.928 400.719 196.026 400.257C196.125 399.795 196.329 399.363 196.623 398.993C196.918 398.624 197.293 398.328 197.721 398.129C198.149 397.93 198.617 397.833 199.089 397.846H311.107C312.172 397.889 313.192 398.288 314.004 398.978C314.817 399.668 315.375 400.61 315.591 401.655C315.711 402.111 315.723 402.588 315.627 403.05C315.531 403.512 315.329 403.944 315.038 404.315C314.746 404.685 314.373 404.983 313.947 405.185C313.522 405.386 313.055 405.487 312.584 405.477Z" fill="#96D293"/>
<path d="M315.059 418.609H203.041C201.977 418.563 200.958 418.164 200.146 417.474C199.334 416.785 198.775 415.844 198.557 414.8C198.451 414.345 198.451 413.872 198.556 413.418C198.661 412.963 198.868 412.538 199.162 412.176C199.456 411.813 199.829 411.523 200.252 411.327C200.675 411.131 201.138 411.034 201.604 411.044H313.636C314.701 411.093 315.72 411.495 316.532 412.187C317.343 412.879 317.902 413.822 318.12 414.867C318.223 415.321 318.221 415.794 318.115 416.248C318.008 416.702 317.799 417.126 317.504 417.487C317.209 417.848 316.835 418.137 316.411 418.331C315.988 418.526 315.525 418.621 315.059 418.609Z" fill="#96D293"/>
<path d="M318.213 431.741H243.969C243.097 431.694 242.265 431.363 241.599 430.798C240.933 430.233 240.471 429.465 240.283 428.611L240.031 427.279C239.933 426.903 239.924 426.51 240.005 426.13C240.087 425.75 240.256 425.395 240.499 425.092C240.742 424.789 241.052 424.547 241.405 424.386C241.758 424.225 242.144 424.148 242.532 424.163H316.776C317.644 424.211 318.472 424.542 319.135 425.105C319.797 425.667 320.259 426.431 320.449 427.279L320.715 428.611C320.812 428.988 320.82 429.382 320.739 429.762C320.658 430.143 320.489 430.499 320.246 430.803C320.004 431.106 319.693 431.349 319.341 431.512C318.988 431.675 318.602 431.753 318.213 431.741Z" fill="#96D293"/>
<path d="M343.333 196.992H321.007C316.727 196.988 312.624 195.285 309.598 192.256C306.572 189.227 304.871 185.12 304.867 180.837V156.664C304.871 152.38 306.572 148.273 309.598 145.244C312.624 142.215 316.727 140.512 321.007 140.509H343.333C347.613 140.512 351.716 142.215 354.742 145.244C357.768 148.273 359.469 152.38 359.473 156.664V180.89C359.455 185.164 357.747 189.258 354.723 192.275C351.698 195.292 347.603 196.988 343.333 196.992ZM321.007 144.904C317.906 144.907 314.933 146.142 312.741 148.336C310.548 150.531 309.315 153.507 309.311 156.61V180.837C309.315 183.94 310.548 186.916 312.741 189.111C314.933 191.305 317.906 192.54 321.007 192.543H343.333C346.433 192.54 349.404 191.305 351.595 189.11C353.785 186.915 355.015 183.939 355.015 180.837V156.664C355.015 153.561 353.785 150.586 351.595 148.39C349.404 146.195 346.433 144.96 343.333 144.957L321.007 144.904Z" fill="#96D293"/>
<path d="M349.202 280.165H326.942C322.786 280.169 318.79 278.568 315.785 275.694C312.781 272.821 311.001 268.898 310.815 264.742L309.751 241.009C309.652 238.828 309.996 236.649 310.762 234.605C311.528 232.56 312.7 230.692 314.207 229.114C315.714 227.535 317.525 226.279 319.531 225.421C321.537 224.563 323.696 224.121 325.877 224.121H348.164C352.306 224.138 356.283 225.751 359.269 228.625C362.254 231.5 364.019 235.415 364.197 239.557L365.275 263.277C365.373 265.459 365.03 267.637 364.264 269.682C363.498 271.726 362.326 273.594 360.819 275.172C359.312 276.751 357.5 278.007 355.494 278.865C353.489 279.723 351.33 280.165 349.148 280.165H349.202ZM325.837 228.583C324.257 228.581 322.693 228.901 321.24 229.521C319.787 230.142 318.475 231.051 317.383 232.194C316.291 233.337 315.442 234.69 314.887 236.171C314.332 237.651 314.083 239.229 314.155 240.809L315.233 264.543C315.363 267.551 316.65 270.392 318.825 272.472C321 274.552 323.894 275.71 326.902 275.703H349.202C350.782 275.705 352.345 275.386 353.799 274.765C355.252 274.144 356.564 273.235 357.656 272.092C358.748 270.949 359.597 269.597 360.152 268.116C360.707 266.635 360.956 265.057 360.884 263.477L359.806 239.757C359.672 236.747 358.383 233.904 356.206 231.822C354.03 229.74 351.134 228.58 348.124 228.583H325.837Z" fill="#96D293"/>
<path d="M333.993 357.092C329.937 357.094 326.029 355.565 323.049 352.81C320.07 350.055 318.238 346.276 317.92 342.228L316.017 318.562C315.843 316.385 316.112 314.196 316.806 312.126C317.501 310.056 318.607 308.148 320.058 306.518C321.509 304.888 323.274 303.568 325.249 302.64C327.223 301.711 329.365 301.192 331.545 301.115L353.831 300.342C357.969 300.227 361.995 301.694 365.09 304.446C368.185 307.197 370.116 311.026 370.49 315.152L372.392 338.819C372.564 340.995 372.295 343.184 371.6 345.253C370.904 347.322 369.798 349.229 368.348 350.859C366.897 352.489 365.132 353.808 363.158 354.737C361.185 355.667 359.044 356.187 356.865 356.266L334.578 357.038L333.993 357.092ZM354.417 304.791H353.991L331.704 305.563C330.126 305.621 328.575 305.998 327.146 306.671C325.717 307.345 324.439 308.301 323.389 309.481C322.338 310.662 321.538 312.044 321.034 313.542C320.531 315.041 320.336 316.626 320.461 318.202L322.364 341.869C322.615 344.866 324.005 347.654 326.247 349.656C328.49 351.658 331.415 352.722 334.419 352.63L356.705 351.844C358.284 351.79 359.835 351.416 361.265 350.745C362.695 350.073 363.974 349.119 365.025 347.938C366.075 346.758 366.876 345.377 367.379 343.878C367.882 342.38 368.075 340.794 367.948 339.219L366.046 315.552C365.818 312.622 364.493 309.886 362.338 307.891C360.182 305.896 357.353 304.788 354.417 304.791Z" fill="#96D293"/>
<path d="M351.49 435.524C347.653 435.524 343.941 434.159 341.017 431.673C338.092 429.187 336.145 425.742 335.524 421.952L331.798 398.885C331.43 396.621 331.548 394.305 332.144 392.09C332.74 389.876 333.8 387.813 335.254 386.041C336.707 384.268 338.522 382.826 340.576 381.809C342.63 380.793 344.876 380.226 347.166 380.146L369.253 379.373C373.174 379.272 376.999 380.589 380.029 383.081C383.059 385.573 385.091 389.075 385.752 392.945L389.477 416.012C389.843 418.276 389.723 420.591 389.127 422.805C388.53 425.018 387.47 427.08 386.016 428.852C384.563 430.624 382.75 432.066 380.697 433.083C378.644 434.101 376.399 434.669 374.11 434.751L352.009 435.51L351.49 435.524ZM369.852 383.822H369.439L347.352 384.594C345.697 384.658 344.074 385.072 342.591 385.811C341.108 386.549 339.799 387.595 338.75 388.878C337.701 390.161 336.936 391.652 336.506 393.253C336.076 394.855 335.991 396.529 336.256 398.166L339.994 421.233C340.479 424.037 341.956 426.574 344.154 428.378C346.353 430.183 349.127 431.136 351.969 431.062L374.056 430.289C375.714 430.234 377.341 429.825 378.828 429.09C380.315 428.355 381.629 427.312 382.681 426.029C383.734 424.746 384.501 423.253 384.932 421.65C385.363 420.046 385.447 418.37 385.18 416.731L381.454 393.651C381.005 390.899 379.589 388.397 377.463 386.595C375.336 384.794 372.638 383.81 369.852 383.822Z" fill="#96D293"/>
<path d="M320.807 86.1963H212.501C208.128 86.1963 204.584 89.7442 204.584 94.1207V106.507C204.584 110.883 208.128 114.431 212.501 114.431H320.807C325.179 114.431 328.724 110.883 328.724 106.507V94.1207C328.724 89.7442 325.179 86.1963 320.807 86.1963Z" fill="#96D293"/>
<path d="M320.807 86.1963H212.501C208.128 86.1963 204.584 89.7442 204.584 94.1207V106.507C204.584 110.883 208.128 114.431 212.501 114.431H320.807C325.179 114.431 328.724 110.883 328.724 106.507V94.1207C328.724 89.7442 325.179 86.1963 320.807 86.1963Z" fill="url(#paint14_linear)"/>
<path d="M333.048 186.803L313.542 167.318C312.922 166.697 312.43 165.96 312.094 165.149C311.759 164.338 311.586 163.468 311.586 162.59C311.586 161.712 311.759 160.843 312.094 160.031C312.43 159.22 312.922 158.483 313.542 157.862C314.163 157.241 314.899 156.749 315.71 156.413C316.52 156.077 317.389 155.904 318.266 155.904C319.143 155.904 320.012 156.077 320.822 156.413C321.633 156.749 322.369 157.241 322.989 157.862L332.303 167.185L363.558 130.999C364.717 129.657 366.361 128.831 368.129 128.702C369.897 128.573 371.644 129.153 372.985 130.313C374.325 131.474 375.151 133.12 375.28 134.889C375.408 136.659 374.829 138.407 373.67 139.749L333.048 186.803Z" fill="#96D293"/>
<path d="M342.242 267.965L322.749 248.454C322.129 247.833 321.637 247.096 321.301 246.285C320.966 245.473 320.793 244.604 320.793 243.726C320.793 242.848 320.966 241.978 321.301 241.167C321.637 240.356 322.129 239.619 322.749 238.998C323.37 238.377 324.106 237.884 324.917 237.548C325.727 237.212 326.596 237.039 327.473 237.039C328.35 237.039 329.219 237.212 330.029 237.548C330.84 237.884 331.576 238.377 332.196 238.998L341.51 248.321L372.765 212.135C373.924 210.792 375.568 209.966 377.336 209.837C379.104 209.709 380.851 210.288 382.191 211.449C383.532 212.609 384.358 214.255 384.486 216.025C384.615 217.794 384.036 219.543 382.877 220.885L342.242 267.965Z" fill="#96D293"/>
<path d="M348.935 345.358L329.429 325.807C328.176 324.553 327.473 322.852 327.473 321.079C327.473 319.305 328.176 317.605 329.429 316.351C330.682 315.097 332.381 314.392 334.153 314.392C335.924 314.392 337.623 315.097 338.876 316.351L348.19 325.674L379.444 289.488C380.017 288.824 380.715 288.28 381.499 287.886C382.282 287.492 383.135 287.257 384.009 287.193C384.883 287.129 385.761 287.239 386.593 287.515C387.425 287.791 388.195 288.228 388.858 288.802C389.521 289.375 390.065 290.074 390.458 290.858C390.851 291.642 391.086 292.496 391.15 293.371C391.214 294.246 391.105 295.125 390.829 295.958C390.553 296.791 390.116 297.561 389.543 298.224L348.935 345.358Z" fill="#96D293"/>
<path d="M366.259 423.177L346.766 403.653C345.515 402.399 344.813 400.699 344.814 398.927C344.816 397.155 345.52 395.456 346.773 394.203C348.026 392.951 349.724 392.248 351.494 392.25C353.265 392.251 354.962 392.956 356.213 394.21L365.527 403.533L396.795 367.36C397.954 366.018 399.598 365.192 401.366 365.063C403.134 364.934 404.881 365.514 406.222 366.674C407.563 367.835 408.388 369.481 408.517 371.25C408.645 373.02 408.066 374.768 406.907 376.11L366.259 423.177Z" fill="#96D293"/>
<path d="M526.523 471.51H489.561V479.674H526.523V471.51Z" fill="#96D293"/>
<path d="M526.523 471.51H489.561V479.674H526.523V471.51Z" fill="url(#paint15_linear)"/>
<path d="M526.829 479.9V507.403C526.831 508.275 526.659 509.138 526.325 509.943C525.99 510.748 525.499 511.479 524.88 512.092C524.261 512.706 523.527 513.19 522.719 513.516C521.911 513.843 521.047 514.006 520.176 513.995H495.92C495.055 513.997 494.198 513.828 493.398 513.497C492.598 513.166 491.871 512.681 491.259 512.068C490.647 511.456 490.162 510.728 489.832 509.928C489.501 509.127 489.332 508.269 489.334 507.403V479.9H526.829Z" fill="#96D293"/>
<path d="M526.829 479.9V507.403C526.831 508.275 526.659 509.138 526.325 509.943C525.99 510.748 525.499 511.479 524.88 512.092C524.261 512.706 523.527 513.19 522.719 513.516C521.911 513.843 521.047 514.006 520.176 513.995H495.92C495.055 513.997 494.198 513.828 493.398 513.497C492.598 513.166 491.871 512.681 491.259 512.068C490.647 511.456 490.162 510.728 489.832 509.928C489.501 509.127 489.332 508.269 489.334 507.403V479.9H526.829Z" fill="url(#paint16_linear)"/>
</g>
<defs>
<linearGradient id="paint0_linear" x1="363.545" y1="631.783" x2="393.687" y2="-149.737" gradientUnits="userSpaceOnUse">
<stop stop-color="#010101" stop-opacity="0"/>
<stop offset="0.95" stop-color="#010101"/>
</linearGradient>
<linearGradient id="paint1_linear" x1="13376.8" y1="4987.14" x2="12895.5" y2="4966.45" gradientUnits="userSpaceOnUse">
<stop stop-color="#010101" stop-opacity="0"/>
<stop offset="0.95" stop-color="#010101"/>
</linearGradient>
<linearGradient id="paint2_linear" x1="39551.8" y1="37358.5" x2="32985.5" y2="36965.2" gradientUnits="userSpaceOnUse">
<stop stop-color="#010101" stop-opacity="0"/>
<stop offset="0.95" stop-color="#010101"/>
</linearGradient>
<linearGradient id="paint3_linear" x1="6273.29" y1="27961" x2="9874.21" y2="27591.7" gradientUnits="userSpaceOnUse">
<stop stop-color="#010101" stop-opacity="0"/>
<stop offset="0.95" stop-color="#010101"/>
</linearGradient>
<linearGradient id="paint4_linear" x1="16847.7" y1="2383.38" x2="18009.2" y2="685.366" gradientUnits="userSpaceOnUse">
<stop stop-color="#010101" stop-opacity="0"/>
<stop offset="0.95" stop-color="#010101"/>
</linearGradient>
<linearGradient id="paint5_linear" x1="19086.4" y1="9224.65" x2="18887.3" y2="7677.66" gradientUnits="userSpaceOnUse">
<stop stop-color="#010101" stop-opacity="0"/>
<stop offset="0.95" stop-color="#010101"/>
</linearGradient>
<linearGradient id="paint6_linear" x1="20841.8" y1="9013.92" x2="20642.7" y2="7465.94" gradientUnits="userSpaceOnUse">
<stop stop-color="#010101" stop-opacity="0"/>
<stop offset="0.95" stop-color="#010101"/>
</linearGradient>
<linearGradient id="paint7_linear" x1="26488.8" y1="4824.9" x2="25181.6" y2="5691.28" gradientUnits="userSpaceOnUse">
<stop stop-color="#010101" stop-opacity="0"/>
<stop offset="0.95" stop-color="#010101"/>
</linearGradient>
<linearGradient id="paint8_linear" x1="239.897" y1="-74.1834" x2="285.13" y2="647.093" gradientUnits="userSpaceOnUse">
<stop stop-color="white" stop-opacity="0"/>
<stop offset="0.14" stop-color="white" stop-opacity="0.22"/>
<stop offset="0.3" stop-color="white" stop-opacity="0.45"/>
<stop offset="0.45" stop-color="white" stop-opacity="0.65"/>
<stop offset="0.6" stop-color="white" stop-opacity="0.8"/>
<stop offset="0.73" stop-color="white" stop-opacity="0.91"/>
<stop offset="0.85" stop-color="white" stop-opacity="0.98"/>
<stop offset="0.94" stop-color="white"/>
</linearGradient>
<linearGradient id="paint9_linear" x1="16673.5" y1="155944" x2="188710" y2="41801.4" gradientUnits="userSpaceOnUse">
<stop stop-color="#010101" stop-opacity="0"/>
<stop offset="0.95" stop-color="#010101"/>
</linearGradient>
<linearGradient id="paint10_linear" x1="12337.1" y1="72339.4" x2="-10371.7" y2="72838.4" gradientUnits="userSpaceOnUse">
<stop stop-color="white" stop-opacity="0"/>
<stop offset="0.14" stop-color="white" stop-opacity="0.22"/>
<stop offset="0.3" stop-color="white" stop-opacity="0.45"/>
<stop offset="0.45" stop-color="white" stop-opacity="0.65"/>
<stop offset="0.6" stop-color="white" stop-opacity="0.8"/>
<stop offset="0.73" stop-color="white" stop-opacity="0.91"/>
<stop offset="0.85" stop-color="white" stop-opacity="0.98"/>
<stop offset="0.94" stop-color="white"/>
</linearGradient>
<linearGradient id="paint11_linear" x1="9943.19" y1="13807.4" x2="5829.72" y2="14911.8" gradientUnits="userSpaceOnUse">
<stop stop-color="white" stop-opacity="0"/>
<stop offset="0.14" stop-color="white" stop-opacity="0.22"/>
<stop offset="0.3" stop-color="white" stop-opacity="0.45"/>
<stop offset="0.45" stop-color="white" stop-opacity="0.65"/>
<stop offset="0.6" stop-color="white" stop-opacity="0.8"/>
<stop offset="0.73" stop-color="white" stop-opacity="0.91"/>
<stop offset="0.85" stop-color="white" stop-opacity="0.98"/>
<stop offset="0.94" stop-color="white"/>
</linearGradient>
<linearGradient id="paint12_linear" x1="14931.2" y1="3761.02" x2="14784.8" y2="5874.85" gradientUnits="userSpaceOnUse">
<stop stop-color="white" stop-opacity="0"/>
<stop offset="0.14" stop-color="white" stop-opacity="0.22"/>
<stop offset="0.3" stop-color="white" stop-opacity="0.45"/>
<stop offset="0.45" stop-color="white" stop-opacity="0.65"/>
<stop offset="0.6" stop-color="white" stop-opacity="0.8"/>
<stop offset="0.73" stop-color="white" stop-opacity="0.91"/>
<stop offset="0.85" stop-color="white" stop-opacity="0.98"/>
<stop offset="0.94" stop-color="white"/>
</linearGradient>
<linearGradient id="paint13_linear" x1="6784.05" y1="1796.4" x2="7158.05" y2="1036.69" gradientUnits="userSpaceOnUse">
<stop stop-color="#010101" stop-opacity="0"/>
<stop offset="0.95" stop-color="#010101"/>
</linearGradient>
<linearGradient id="paint14_linear" x1="25118.2" y1="2599.67" x2="25114.1" y2="1730.25" gradientUnits="userSpaceOnUse">
<stop stop-color="white" stop-opacity="0"/>
<stop offset="0.14" stop-color="white" stop-opacity="0.22"/>
<stop offset="0.3" stop-color="white" stop-opacity="0.45"/>
<stop offset="0.45" stop-color="white" stop-opacity="0.65"/>
<stop offset="0.6" stop-color="white" stop-opacity="0.8"/>
<stop offset="0.73" stop-color="white" stop-opacity="0.91"/>
<stop offset="0.85" stop-color="white" stop-opacity="0.98"/>
<stop offset="0.94" stop-color="white"/>
</linearGradient>
<linearGradient id="paint15_linear" x1="14592.6" y1="3323.84" x2="14596" y2="3750.06" gradientUnits="userSpaceOnUse">
<stop stop-color="#010101" stop-opacity="0"/>
<stop offset="0.95" stop-color="#010101"/>
</linearGradient>
<linearGradient id="paint16_linear" x1="14890.3" y1="14413.4" x2="14900.3" y2="12110.5" gradientUnits="userSpaceOnUse">
<stop stop-color="#010101" stop-opacity="0"/>
<stop offset="0.95" stop-color="#010101"/>
</linearGradient>
<clipPath id="clip0">
<rect width="744" height="569" fill="white"/>
</clipPath>
</defs>
</svg>
