<svg width="575" height="649" viewBox="0 0 575 649" fill="none" xmlns="http://www.w3.org/2000/svg">
<g clip-path="url(#clip0)">
<path opacity="0.41" d="M568.99 496.636C566.882 507.547 564.176 518.54 558.665 528.14C558.151 529.036 557.636 529.915 557.005 530.76V530.379L11.7852 528.887V531.241C10.1252 487.5 0.165327 444.24 0.0491285 400.45C0.0126126 375.152 3.30544 349.96 9.843 325.52C16.0015 302.505 25.148 280.021 39.3076 260.853C77.9519 208.507 145.895 189.008 200.923 154.254C259.471 117.295 279.839 34.3228 344.179 8.73824C378.093 -4.79192 417.766 -2.2716 450.468 13.9447C483.169 30.161 508.849 59.5427 522.096 93.5339C539.061 137.126 536.023 185.476 541.451 231.92C548.29 290.617 568.824 346.992 573.804 405.756C576.382 436.126 574.762 466.707 568.99 496.636Z" fill="#96D293"/>
<path opacity="0.66" d="M557.072 530.445V531.142C521.151 603.8 436.857 645.651 397.565 646.679L122.988 649C60.4235 649 11.6533 596.803 11.6533 534.309V531.241V528.887L557.072 530.445Z" fill="#96D293"/>
<path d="M83.4635 556.859C80.2432 558.086 76.3256 560.988 77.886 564.055C78.5788 565.133 79.5959 565.963 80.791 566.426C113.592 583.704 152.004 585.859 189.038 587.683L333.456 594.73C356.414 595.841 380.417 596.77 401.266 587.136C409.203 583.182 416.736 578.468 423.759 573.059C433.719 565.896 443.568 558.639 453.307 551.288C455.747 549.464 458.287 547.341 458.835 544.34C459.382 540.891 456.71 537.575 453.489 536.199C450.162 535.064 446.627 534.668 443.131 535.038C411.226 536.144 379.31 536.591 347.384 536.381C327.132 536.265 306.814 535.917 286.711 533.364C253.977 529.202 222.769 524.741 189.735 528.887C153.515 533.413 117.393 543.843 83.4635 556.859Z" fill="url(#paint0_linear)"/>
<path d="M428.091 95.6064H235.965C218.968 95.6064 205.189 109.37 205.189 126.348V506.336C205.189 523.314 218.968 537.078 235.965 537.078H428.091C445.089 537.078 458.867 523.314 458.867 506.336V126.348C458.867 109.37 445.089 95.6064 428.091 95.6064Z" fill="#96D293"/>
<path d="M428.091 95.6064H235.965C218.968 95.6064 205.189 109.37 205.189 126.348V506.336C205.189 523.314 218.968 537.078 235.965 537.078H428.091C445.089 537.078 458.867 523.314 458.867 506.336V126.348C458.867 109.37 445.089 95.6064 428.091 95.6064Z" fill="url(#paint1_linear)"/>
<path d="M412.305 95.6064H220.179C203.182 95.6064 189.403 109.37 189.403 126.348V506.336C189.403 523.314 203.182 537.078 220.179 537.078H412.305C429.302 537.078 443.081 523.314 443.081 506.336V126.348C443.081 109.37 429.302 95.6064 412.305 95.6064Z" fill="#96D293"/>
<path d="M423.942 146.146V470.985C423.942 477.46 421.368 483.67 416.786 488.25C412.204 492.83 405.989 495.405 399.507 495.409H234.173C230.963 495.409 227.784 494.778 224.819 493.55C221.853 492.322 219.158 490.523 216.889 488.255C214.62 485.987 212.821 483.294 211.594 480.331C210.367 477.368 209.736 474.192 209.738 470.985V146.146C209.736 143.504 210.255 140.888 211.265 138.447C212.275 136.006 213.756 133.788 215.624 131.919C217.492 130.05 219.711 128.566 222.153 127.553C224.595 126.541 227.213 126.018 229.857 126.016H403.79C409.133 126.021 414.256 128.143 418.035 131.917C421.813 135.691 423.938 140.808 423.942 146.146Z" fill="white"/>
<path d="M423.942 363.093V470.986C423.942 477.46 421.368 483.67 416.786 488.25C412.204 492.83 405.989 495.405 399.507 495.41H254.807V363.093H423.942Z" fill="#96D293"/>
<path d="M423.925 363.093V470.986C423.921 477.456 421.348 483.661 416.77 488.239C412.193 492.818 405.985 495.396 399.507 495.41H254.807V363.093H423.925Z" fill="url(#paint2_linear)"/>
<path d="M423.925 425.321V470.986C423.935 477.254 421.52 483.283 417.185 487.815H260.068V425.321H423.925Z" fill="url(#paint3_linear)"/>
<path d="M207.232 126.232L155.59 181.397H384.883L430.897 125.452L207.232 126.232Z" fill="#96D293"/>
<path d="M235.551 126.016L189.287 181.065L385.298 181.264H155.59L156.984 179.954L175.46 162.66L209.589 126L235.551 126.016Z" fill="url(#paint4_linear)"/>
<path d="M303.444 125.22L257.495 181.065L453.506 181.264H223.798L225.192 179.954L268.899 126L303.444 125.22Z" fill="url(#paint5_linear)"/>
<path d="M369.212 125.22L323.264 181.065L289.566 181.264L290.961 179.954L334.668 126L369.212 125.22Z" fill="url(#paint6_linear)"/>
<path d="M431.229 125.22L385.281 181.065L351.583 181.264L352.977 179.954L396.685 126L431.229 125.22Z" fill="url(#paint7_linear)"/>
<path d="M256.948 181.38H289.832C289.281 185.345 287.313 188.977 284.291 191.605C281.269 194.233 277.397 195.681 273.39 195.681C269.383 195.681 265.511 194.233 262.489 191.605C259.467 188.977 257.499 185.345 256.948 181.38Z" fill="#96D293"/>
<path d="M223.549 181.38H256.433C255.882 185.345 253.914 188.977 250.892 191.605C247.87 194.233 243.998 195.681 239.991 195.681C235.984 195.681 232.112 194.233 229.09 191.605C226.068 188.977 224.1 185.345 223.549 181.38Z" fill="#96D293"/>
<path d="M356.547 181.181C356.032 185.162 354.089 188.82 351.078 191.478C348.068 194.136 344.195 195.613 340.177 195.636C336.159 195.658 332.269 194.224 329.229 191.599C326.19 188.975 324.206 185.338 323.646 181.364H356.348L356.547 181.181Z" fill="#96D293"/>
<path d="M385.132 181.181C384.335 189.472 378.226 195.889 370.823 195.889C363.419 195.889 357.393 189.538 356.53 181.364H385.015L385.132 181.181Z" fill="#96D293"/>
<path d="M190.35 181.38H223.234C222.683 185.345 220.715 188.977 217.693 191.605C214.671 194.233 210.799 195.681 206.792 195.681C202.785 195.681 198.913 194.233 195.891 191.605C192.869 188.977 190.901 185.345 190.35 181.38Z" fill="#96D293"/>
<path d="M290.297 181.38H323.148C322.597 185.345 320.629 188.977 317.607 191.605C314.585 194.233 310.713 195.681 306.706 195.681C302.699 195.681 298.827 194.233 295.805 191.605C292.783 188.977 290.815 185.345 290.264 181.38H290.297Z" fill="#96D293"/>
<path d="M156.918 181.38H189.802C189.251 185.345 187.283 188.977 184.261 191.605C181.239 194.233 177.367 195.681 173.36 195.681C169.353 195.681 165.481 194.233 162.459 191.605C159.437 188.977 157.469 185.345 156.918 181.38Z" fill="#96D293"/>
<path d="M256.948 181.38H289.832C289.281 185.345 287.313 188.977 284.291 191.605C281.269 194.233 277.397 195.681 273.39 195.681C269.383 195.681 265.511 194.233 262.489 191.605C259.467 188.977 257.499 185.345 256.948 181.38Z" fill="url(#paint8_linear)"/>
<path d="M223.549 181.38H256.433C255.882 185.345 253.914 188.977 250.892 191.605C247.87 194.233 243.998 195.681 239.991 195.681C235.984 195.681 232.112 194.233 229.09 191.605C226.068 188.977 224.1 185.345 223.549 181.38Z" fill="url(#paint9_linear)"/>
<path d="M356.531 181.38C356.015 185.361 354.072 189.019 351.062 191.677C348.051 194.335 344.178 195.812 340.16 195.835C336.142 195.857 332.253 194.423 329.213 191.798C326.173 189.174 324.189 185.537 323.63 181.563H356.348L356.531 181.38Z" fill="url(#paint10_linear)"/>
<path d="M385.032 181.281C384.252 189.572 378.16 196.005 370.773 196.005C363.386 196.005 357.393 189.638 356.53 181.48H384.916L385.032 181.281Z" fill="url(#paint11_linear)"/>
<path d="M190.35 181.38H223.234C222.683 185.345 220.715 188.977 217.693 191.605C214.671 194.233 210.799 195.681 206.792 195.681C202.785 195.681 198.913 194.233 195.891 191.605C192.869 188.977 190.901 185.345 190.35 181.38Z" fill="url(#paint12_linear)"/>
<path d="M290.297 181.38H323.148C322.597 185.345 320.629 188.977 317.607 191.605C314.585 194.233 310.713 195.681 306.706 195.681C302.699 195.681 298.827 194.233 295.805 191.605C292.783 188.977 290.815 185.345 290.264 181.38H290.297Z" fill="url(#paint13_linear)"/>
<path d="M156.918 181.38H189.802C189.251 185.345 187.283 188.977 184.261 191.605C181.239 194.233 177.367 195.681 173.36 195.681C169.353 195.681 165.481 194.233 162.459 191.605C159.437 188.977 157.469 185.345 156.918 181.38Z" fill="url(#paint14_linear)"/>
<path d="M189.785 181.38L235.235 126.414L268.9 126L223.134 181.38H189.785Z" fill="url(#paint15_linear)"/>
<path d="M256.649 181.38L302.1 126.414L333.706 125.701L289.998 181.38H256.649Z" fill="url(#paint16_linear)"/>
<path d="M323.514 181.38L368.947 126.414L400.57 125.701L356.846 181.38H323.514Z" fill="url(#paint17_linear)"/>
<path d="M384.916 181.48L429.005 172.758L431.395 125.22L384.916 181.48Z" fill="#96D293"/>
<path d="M385.281 181.016L429.37 172.294L431.777 124.756L385.281 181.016Z" fill="url(#paint18_linear)"/>
<path d="M324.326 505.74H289.002C283.813 505.74 279.606 509.941 279.606 515.124C279.606 520.308 283.813 524.509 289.002 524.509H324.326C329.515 524.509 333.722 520.308 333.722 515.124C333.722 509.941 329.515 505.74 324.326 505.74Z" fill="url(#paint19_linear)"/>
<path d="M329.937 315.14C324.526 320.943 321.388 328.405 318.317 335.767L309.669 356.692C309.39 357.169 309.22 357.702 309.171 358.252C309.122 358.803 309.196 359.357 309.387 359.876C309.714 360.291 310.13 360.63 310.603 360.868C311.076 361.106 311.596 361.237 312.126 361.252C316.527 361.917 320.959 362.36 325.405 362.578C347.859 363.971 370.352 364.485 392.884 364.12C395.584 364.263 398.283 363.804 400.785 362.777C406.993 359.643 407.425 351.021 406.379 344.173C405.125 336.193 402.895 328.397 399.739 320.96C398.631 318.012 397.001 315.288 394.925 312.918C389.779 307.529 381.645 306.667 374.159 306.451C359.95 306.103 340.594 303.682 329.937 315.14Z" fill="#96D293"/>
<path d="M313.42 310.348C313.279 309.589 312.862 308.908 312.25 308.437C311.637 307.965 310.872 307.737 310.1 307.795C308.145 307.709 306.185 307.781 304.241 308.01C302.99 308.044 301.787 308.494 300.821 309.287C300.122 310.132 299.689 311.164 299.576 312.255C297.999 320.794 299.825 329.549 300.522 338.204C301.004 344.107 301.054 350.375 304.241 355.349C305.682 357.55 307.653 359.354 309.973 360.597C312.293 361.839 314.888 362.481 317.521 362.462C319.745 362.462 322.268 361.65 323.115 359.61C323.458 358.58 323.555 357.484 323.397 356.41C322.251 340.874 320.011 324.641 313.42 310.348Z" fill="#96D293"/>
<path d="M312.292 302.737C313.338 300.482 314.765 298.426 316.01 296.271C316.364 295.73 316.597 295.119 316.691 294.48C316.731 294.149 316.67 293.813 316.516 293.518C316.362 293.222 316.122 292.979 315.828 292.822C314.583 292.341 313.587 294.065 312.292 294.331C310.997 294.596 310.068 293.568 309.221 292.672C305.529 289.001 301.168 286.069 296.373 284.034C296.126 283.886 295.852 283.789 295.567 283.749C295.281 283.709 294.991 283.727 294.713 283.802C294.198 284.034 294.049 284.946 294.58 285.111C294.066 285.151 293.554 285.023 293.119 284.747C292.655 284.548 291.974 284.531 291.758 284.995C291.542 285.46 292.173 286.14 292.007 286.654C291.442 286.667 290.88 286.577 290.347 286.388C289.783 286.289 289.036 286.388 288.936 287.035C288.894 287.248 288.894 287.468 288.936 287.682C289.011 288.548 289.011 289.419 288.936 290.285C289.197 292.598 290.165 294.775 291.708 296.519C294.786 300.344 297.561 304.402 300.008 308.657C300.596 310.047 301.384 311.343 302.349 312.503C303.71 313.963 308.756 316.035 310.084 313.498C310.715 312.305 310.2 309.685 310.433 308.292C310.806 306.367 311.431 304.499 312.292 302.737Z" fill="url(#paint20_linear)"/>
<path d="M380.783 337.757C381.108 338.807 381.197 339.916 381.045 341.005C380.893 342.094 380.503 343.136 379.903 344.057C378.459 345.815 375.936 346.163 373.662 346.279C362.589 346.86 351.285 344.953 340.462 347.473C338.907 347.67 337.473 348.41 336.412 349.562C335.486 351.198 335.219 353.125 335.665 354.951L336.594 362.86L325.804 360.904C325.4 360.849 325.01 360.714 324.659 360.506C324.148 360.012 323.845 359.342 323.812 358.632C322.928 354.509 322.544 350.295 322.667 346.08C322.811 341.83 324.485 337.773 327.381 334.656C330.125 332.222 333.435 330.512 337.009 329.682C345.309 327.294 354.041 326.597 362.689 325.901C366.424 325.603 372.649 324.774 375.853 327.31C378.525 329.466 380.119 334.59 380.783 337.757Z" fill="url(#paint21_linear)"/>
<path d="M335.1 280.668C334.803 283.376 334.898 286.112 335.382 288.793C335.967 291.145 337.105 293.324 338.702 295.149C340.298 296.974 342.307 298.393 344.562 299.289C347.881 300.599 351.816 300.947 354.09 303.649C356.364 306.352 356.248 309.95 358.588 312.205C359.803 313.22 361.32 313.805 362.903 313.868C364.486 313.931 366.044 313.469 367.336 312.553C369.887 310.63 371.594 307.796 372.101 304.644C372.574 301.523 372.758 298.365 372.648 295.21C372.698 291.001 373.047 286.801 373.694 282.641C374.258 279.747 374.607 276.815 374.74 273.87C374.712 270.462 374.054 267.089 372.798 263.921C369.992 256.543 364.216 249.894 356.563 247.937C353.065 247.074 349.382 247.348 346.05 248.72C342.718 250.091 339.911 252.489 338.038 255.564C336.112 258.665 336.295 261.815 336.062 265.513C335.753 270.543 335.432 275.594 335.1 280.668Z" fill="url(#paint22_linear)"/>
<path d="M332.925 238.237C331.548 237.673 329.688 237.159 328.809 238.353C328.507 238.852 328.362 239.429 328.394 240.011C328.368 242.112 329.072 244.157 330.386 245.798C329.011 245.7 327.647 246.107 326.551 246.942C325.007 248.467 325.771 251.154 327.132 252.828C328.493 254.503 330.369 255.863 331.182 257.803C331.614 258.847 331.714 260.008 332.129 261.119C332.288 261.664 332.598 262.152 333.024 262.528C333.451 262.904 333.975 263.151 334.536 263.241C336.03 263.241 336.976 261.749 337.856 260.505C340.202 257.316 343.683 255.146 347.582 254.439C351.481 253.733 355.503 254.545 358.821 256.708C365.229 261.251 367.005 269.824 368.283 277.567C368.93 278.032 369.312 276.788 369.561 276.042C370.126 274.384 372.715 274.533 373.645 275.942C374.031 276.694 374.202 277.539 374.137 278.382C374.073 279.224 373.776 280.033 373.279 280.718C372.383 282.144 371.072 283.271 370.092 284.647C369.806 284.971 369.657 285.393 369.677 285.825C369.764 286.185 369.968 286.506 370.258 286.737C371.053 287.529 371.895 288.271 372.781 288.958C373.105 289.283 373.495 289.534 373.925 289.694C374.355 289.855 374.814 289.92 375.271 289.887C375.895 289.708 376.444 289.329 376.832 288.809C380.152 285.095 381.447 279.938 382.16 274.981C382.874 270.023 382.824 264.435 378.973 261.45C378.21 260.87 377.313 260.439 376.616 259.792C375.372 258.562 374.35 257.126 373.595 255.548C369.451 248.585 363.067 243.231 355.485 240.359C352.07 238.759 348.251 238.228 344.529 238.834C340.707 239.973 336.609 239.762 332.925 238.237Z" fill="#B7A451"/>
<path d="M313.022 359.71C312.441 360.44 311.91 361.55 312.557 362.214C312.783 362.374 313.04 362.488 313.31 362.547C313.581 362.607 313.861 362.612 314.134 362.562L333.954 361.385C334.277 361.388 334.598 361.332 334.901 361.219C335.897 360.771 335.963 359.428 335.897 358.334L335.548 353.227C335.432 351.386 335.814 350.823 334.021 350.574C331.325 350.454 328.629 350.831 326.069 351.685C321.002 352.965 316.448 355.766 313.022 359.71Z" fill="url(#paint23_linear)"/>
<path d="M423.926 369.029H260.003V417.578H423.926V369.029Z" fill="url(#paint24_linear)"/>
<path d="M302.929 382.857H271.506V416.948H302.929V382.857Z" fill="#96D293"/>
<path d="M302.929 382.857H271.506V416.948H302.929V382.857Z" fill="url(#paint25_linear)"/>
<path d="M343.516 397.631H312.093V416.948H343.516V397.631Z" fill="url(#paint26_linear)"/>
<path d="M298.464 382.857H267.041V416.948H298.464V382.857Z" fill="#96D293"/>
<path d="M337.159 399.571H312.74V417.329H337.159V399.571Z" fill="#96D293"/>
<path d="M302.232 451.785H270.809V485.875H302.232V451.785Z" fill="#96D293"/>
<path d="M336.461 468.498H312.043V486.257H336.461V468.498Z" fill="#96D293"/>
<path d="M366.457 417.329C372.563 417.329 377.512 412.385 377.512 406.286C377.512 400.187 372.563 395.243 366.457 395.243C360.351 395.243 355.401 400.187 355.401 406.286C355.401 412.385 360.351 417.329 366.457 417.329Z" fill="url(#paint27_linear)"/>
<path d="M362.389 417.329C368.495 417.329 373.445 412.385 373.445 406.286C373.445 400.187 368.495 395.243 362.389 395.243C356.284 395.243 351.334 400.187 351.334 406.286C351.334 412.385 356.284 417.329 362.389 417.329Z" fill="#96D293"/>
<path d="M356.381 486.555C362.486 486.555 367.436 481.611 367.436 475.512C367.436 469.413 362.486 464.469 356.381 464.469C350.275 464.469 345.325 469.413 345.325 475.512C345.325 481.611 350.275 486.555 356.381 486.555Z" fill="url(#paint28_linear)"/>
<path d="M352.298 486.555C358.403 486.555 363.353 481.611 363.353 475.512C363.353 469.413 358.403 464.469 352.298 464.469C346.192 464.469 341.242 469.413 341.242 475.512C341.242 481.611 346.192 486.555 352.298 486.555Z" fill="#96D293"/>
<path d="M401.433 417.329C409.574 417.329 416.174 410.737 416.174 402.605C416.174 394.473 409.574 387.881 401.433 387.881C393.292 387.881 386.692 394.473 386.692 402.605C386.692 410.737 393.292 417.329 401.433 417.329Z" fill="url(#paint29_linear)"/>
<path d="M396.004 417.329C404.145 417.329 410.745 410.737 410.745 402.605C410.745 394.473 404.145 387.881 396.004 387.881C387.863 387.881 381.264 394.473 381.264 402.605C381.264 410.737 387.863 417.329 396.004 417.329Z" fill="#96D293"/>
<path d="M387.472 486.041C395.613 486.041 402.213 479.449 402.213 471.317C402.213 463.185 395.613 456.593 387.472 456.593C379.331 456.593 372.731 463.185 372.731 471.317C372.731 479.449 379.331 486.041 387.472 486.041Z" fill="url(#paint30_linear)"/>
<path d="M382.044 486.041C390.185 486.041 396.785 479.449 396.785 471.317C396.785 463.185 390.185 456.593 382.044 456.593C373.903 456.593 367.304 463.185 367.304 471.317C367.304 479.449 373.903 486.041 382.044 486.041Z" fill="#96D293"/>
</g>
<defs>
<linearGradient id="paint0_linear" x1="275.573" y1="441.67" x2="262.803" y2="634.61" gradientUnits="userSpaceOnUse">
<stop offset="0.01"/>
<stop offset="0.13" stop-opacity="0.69"/>
<stop offset="1" stop-opacity="0"/>
</linearGradient>
<linearGradient id="paint1_linear" x1="41767.8" y1="84972.9" x2="99207.8" y2="83634.7" gradientUnits="userSpaceOnUse">
<stop offset="0.01"/>
<stop offset="0.13" stop-opacity="0.69"/>
<stop offset="1" stop-opacity="0"/>
</linearGradient>
<linearGradient id="paint2_linear" x1="41455.5" y1="45820.6" x2="40822.6" y2="23701.6" gradientUnits="userSpaceOnUse">
<stop offset="0.01"/>
<stop offset="0.13" stop-opacity="0.69"/>
<stop offset="1" stop-opacity="0"/>
</linearGradient>
<linearGradient id="paint3_linear" x1="39257.9" y1="15871.3" x2="39601.1" y2="23114.7" gradientUnits="userSpaceOnUse">
<stop offset="0.01"/>
<stop offset="0.13" stop-opacity="0.69"/>
<stop offset="1" stop-opacity="0"/>
</linearGradient>
<linearGradient id="paint4_linear" x1="38330.7" y1="3859.13" x2="38254.1" y2="7925.11" gradientUnits="userSpaceOnUse">
<stop offset="0.01"/>
<stop offset="0.13" stop-opacity="0.69"/>
<stop offset="1" stop-opacity="0"/>
</linearGradient>
<linearGradient id="paint5_linear" x1="47849.1" y1="3877.93" x2="47769.2" y2="8052.56" gradientUnits="userSpaceOnUse">
<stop offset="0.01"/>
<stop offset="0.13" stop-opacity="0.69"/>
<stop offset="1" stop-opacity="0"/>
</linearGradient>
<linearGradient id="paint6_linear" x1="16275.3" y1="3675.05" x2="16045.8" y2="7838.48" gradientUnits="userSpaceOnUse">
<stop offset="0.01"/>
<stop offset="0.13" stop-opacity="0.69"/>
<stop offset="1" stop-opacity="0"/>
</linearGradient>
<linearGradient id="paint7_linear" x1="19312.8" y1="3675.05" x2="19083" y2="7838.52" gradientUnits="userSpaceOnUse">
<stop offset="0.01"/>
<stop offset="0.13" stop-opacity="0.69"/>
<stop offset="1" stop-opacity="0"/>
</linearGradient>
<linearGradient id="paint8_linear" x1="268.286" y1="134.456" x2="280.327" y2="245.353" gradientUnits="userSpaceOnUse">
<stop offset="0.02" stop-color="white" stop-opacity="0"/>
<stop offset="0.32" stop-color="white" stop-opacity="0.39"/>
<stop offset="0.68" stop-color="white" stop-opacity="0.68"/>
<stop offset="1" stop-color="white"/>
</linearGradient>
<linearGradient id="paint9_linear" x1="6080.22" y1="1468.18" x2="6125.86" y2="2433.77" gradientUnits="userSpaceOnUse">
<stop offset="0.01"/>
<stop offset="0.13" stop-opacity="0.69"/>
<stop offset="1" stop-opacity="0"/>
</linearGradient>
<linearGradient id="paint10_linear" x1="8142.82" y1="1389.93" x2="8189.43" y2="2365.99" gradientUnits="userSpaceOnUse">
<stop offset="0.02" stop-color="white" stop-opacity="0"/>
<stop offset="0.32" stop-color="white" stop-opacity="0.39"/>
<stop offset="0.68" stop-color="white" stop-opacity="0.68"/>
<stop offset="1" stop-color="white"/>
</linearGradient>
<linearGradient id="paint11_linear" x1="7659.55" y1="1421.04" x2="7714.4" y2="2398.53" gradientUnits="userSpaceOnUse">
<stop offset="0.01"/>
<stop offset="0.13" stop-opacity="0.69"/>
<stop offset="1" stop-opacity="0"/>
</linearGradient>
<linearGradient id="paint12_linear" x1="5393.95" y1="1498.93" x2="5439.59" y2="2464.66" gradientUnits="userSpaceOnUse">
<stop offset="0.02" stop-color="white" stop-opacity="0"/>
<stop offset="0.32" stop-color="white" stop-opacity="0.39"/>
<stop offset="0.68" stop-color="white" stop-opacity="0.68"/>
<stop offset="1" stop-color="white"/>
</linearGradient>
<linearGradient id="paint13_linear" x1="7452.76" y1="1406.4" x2="7498.41" y2="2371.99" gradientUnits="userSpaceOnUse">
<stop offset="0.01"/>
<stop offset="0.13" stop-opacity="0.69"/>
<stop offset="1" stop-opacity="0"/>
</linearGradient>
<linearGradient id="paint14_linear" x1="4707.76" y1="1529.82" x2="4753.4" y2="2495.55" gradientUnits="userSpaceOnUse">
<stop offset="0.01"/>
<stop offset="0.13" stop-opacity="0.69"/>
<stop offset="1" stop-opacity="0"/>
</linearGradient>
<linearGradient id="paint15_linear" x1="9234.96" y1="5259.25" x2="13005.6" y2="5259.25" gradientUnits="userSpaceOnUse">
<stop offset="0.02" stop-color="white" stop-opacity="0"/>
<stop offset="0.32" stop-color="white" stop-opacity="0.39"/>
<stop offset="0.68" stop-color="white" stop-opacity="0.68"/>
<stop offset="1" stop-color="white"/>
</linearGradient>
<linearGradient id="paint16_linear" x1="12170.3" y1="5281.6" x2="15747.3" y2="5281.6" gradientUnits="userSpaceOnUse">
<stop offset="0.02" stop-color="white" stop-opacity="0"/>
<stop offset="0.32" stop-color="white" stop-opacity="0.39"/>
<stop offset="0.68" stop-color="white" stop-opacity="0.68"/>
<stop offset="1" stop-color="white"/>
</linearGradient>
<linearGradient id="paint17_linear" x1="15341" y1="5281.6" x2="18917.9" y2="5281.6" gradientUnits="userSpaceOnUse">
<stop offset="0.02" stop-color="white" stop-opacity="0"/>
<stop offset="0.32" stop-color="white" stop-opacity="0.39"/>
<stop offset="0.68" stop-color="white" stop-opacity="0.68"/>
<stop offset="1" stop-color="white"/>
</linearGradient>
<linearGradient id="paint18_linear" x1="13208.4" y1="6129.34" x2="10595.8" y2="5072.86" gradientUnits="userSpaceOnUse">
<stop offset="0.01"/>
<stop offset="0.13" stop-opacity="0.69"/>
<stop offset="1" stop-opacity="0"/>
</linearGradient>
<linearGradient id="paint19_linear" x1="10197.9" y1="5879.51" x2="10218.6" y2="6877.06" gradientUnits="userSpaceOnUse">
<stop offset="0.01"/>
<stop offset="0.13" stop-opacity="0.69"/>
<stop offset="1" stop-opacity="0"/>
</linearGradient>
<linearGradient id="paint20_linear" x1="288.903" y1="299.338" x2="316.691" y2="299.338" gradientUnits="userSpaceOnUse">
<stop stop-color="#E5C5D5"/>
<stop offset="0.42" stop-color="#EAD4D1"/>
<stop offset="1" stop-color="#F0E9CB"/>
</linearGradient>
<linearGradient id="paint21_linear" x1="345.326" y1="321.623" x2="370.04" y2="415.768" gradientUnits="userSpaceOnUse">
<stop stop-opacity="0"/>
<stop offset="0.99"/>
</linearGradient>
<linearGradient id="paint22_linear" x1="23332" y1="-44954.3" x2="24315.1" y2="-45349.8" gradientUnits="userSpaceOnUse">
<stop stop-color="#E5C5D5"/>
<stop offset="0.42" stop-color="#EAD4D1"/>
<stop offset="1" stop-color="#F0E9CB"/>
</linearGradient>
<linearGradient id="paint23_linear" x1="5621.22" y1="3021.43" x2="5958.29" y2="3021.43" gradientUnits="userSpaceOnUse">
<stop stop-color="#E5C5D5"/>
<stop offset="0.42" stop-color="#EAD4D1"/>
<stop offset="1" stop-color="#F0E9CB"/>
</linearGradient>
<linearGradient id="paint24_linear" x1="33436.4" y1="10470.7" x2="33610.3" y2="15203.3" gradientUnits="userSpaceOnUse">
<stop offset="0.01"/>
<stop offset="0.13" stop-opacity="0.69"/>
<stop offset="1" stop-opacity="0"/>
</linearGradient>
<linearGradient id="paint25_linear" x1="6034.24" y1="8511.45" x2="4981.29" y2="8767.69" gradientUnits="userSpaceOnUse">
<stop offset="0.01"/>
<stop offset="0.13" stop-opacity="0.69"/>
<stop offset="1" stop-opacity="0"/>
</linearGradient>
<linearGradient id="paint26_linear" x1="6811.7" y1="5094.73" x2="5961.13" y2="5459.91" gradientUnits="userSpaceOnUse">
<stop offset="0.01"/>
<stop offset="0.13" stop-opacity="0.69"/>
<stop offset="1" stop-opacity="0"/>
</linearGradient>
<linearGradient id="paint27_linear" x1="5308.48" y1="5623.23" x2="5080.52" y2="6207.8" gradientUnits="userSpaceOnUse">
<stop offset="0.01"/>
<stop offset="0.13" stop-opacity="0.69"/>
<stop offset="1" stop-opacity="0"/>
</linearGradient>
<linearGradient id="paint28_linear" x1="5164.17" y1="6614.53" x2="4936" y2="7199.1" gradientUnits="userSpaceOnUse">
<stop offset="0.01"/>
<stop offset="0.13" stop-opacity="0.69"/>
<stop offset="1" stop-opacity="0"/>
</linearGradient>
<linearGradient id="paint29_linear" x1="7643.8" y1="7211.58" x2="7238.34" y2="8250.81" gradientUnits="userSpaceOnUse">
<stop offset="0.01"/>
<stop offset="0.13" stop-opacity="0.69"/>
<stop offset="1" stop-opacity="0"/>
</linearGradient>
<linearGradient id="paint30_linear" x1="7381.91" y1="8500.32" x2="6976.45" y2="9539.56" gradientUnits="userSpaceOnUse">
<stop offset="0.01"/>
<stop offset="0.13" stop-opacity="0.69"/>
<stop offset="1" stop-opacity="0"/>
</linearGradient>
<clipPath id="clip0">
<rect width="575" height="649" fill="white"/>
</clipPath>
</defs>
</svg>
