<svg width="793" height="636" viewBox="0 0 793 636" fill="none" xmlns="http://www.w3.org/2000/svg">
<path opacity="0.18" d="M291.005 36.8268C259.016 67.3474 242.342 110.966 211.465 142.351C154.898 199.809 57.0785 211.177 16.8145 281.115C-3.31754 315.96 -4.18211 359.579 7.9218 397.884C20.0257 436.189 44.11 469.675 71.5291 499.084C120.192 551.476 180.711 593.241 247.777 617.706C279.642 629.322 313.484 637.106 347.202 634.511C387.095 631.422 424.395 614 463.671 606.833C505.17 599.295 548.151 603.002 589.404 594.476C630.656 585.827 673.019 560.002 681.788 518.731C687.223 493.029 678.577 465.845 684.382 440.267C694.51 395.536 742.926 371.935 769.604 334.619C783.437 315.219 791.094 292.112 791.959 268.264C792.7 242.933 784.672 216.491 766.145 199.315C752.189 186.341 733.662 179.545 715.877 172.378C634.114 139.386 566.925 89.342 495.289 39.1746C433.905 -3.94966 351.278 -20.5074 291.005 36.8268Z" fill="#96D293"/>
<path d="M616.822 167.806C614.846 180.904 612.005 194.002 607.065 206.235C606.324 207.841 605.706 209.447 604.965 211.054C585.945 251.954 545.434 277.903 520.485 315.466C514.927 323.869 510.234 332.765 506.281 342.033C506.158 342.156 506.158 342.28 506.034 342.527C500.97 354.76 497.389 367.487 495.413 380.585C494.918 380.585 494.424 380.709 493.93 380.585C483.803 380.832 474.91 373.542 468.24 365.51C461.2 357.231 455.148 347.593 445.885 342.156C432.546 334.495 415.378 337.214 402.039 329.676C385.613 320.409 379.808 298.167 381.66 278.52C382.649 268.882 384.872 258.379 380.549 249.977C377.338 243.675 371.039 239.968 365.851 235.396C350.042 221.804 342.137 199.315 343.62 177.938C344.237 169.165 346.337 160.639 349.672 152.484C354.488 140.745 361.405 129.995 370.298 120.851C375.856 115.044 382.155 109.978 386.848 103.305C387.836 102.069 388.577 100.71 389.318 99.3509C392.529 93.5434 394.011 86.6237 392.159 80.3219C391.171 76.9856 389.318 73.7729 389.565 70.3131C389.565 70.1896 389.565 69.9424 389.689 69.8189C390.306 64.5056 395.864 61.6636 400.681 59.8101C419.084 52.8904 440.945 48.195 456.878 59.6865C466.882 66.8533 472.81 79.3334 483.432 85.5116C486.767 87.3651 490.225 88.7243 493.807 89.7128C496.771 90.5778 499.859 91.4428 502.7 92.5548C513.568 96.5089 518.879 103.676 526.537 110.842C527.154 111.46 527.772 112.078 528.513 112.696C536.788 119.986 554.326 118.751 564.207 116.403C573.717 114.179 582.981 108.618 592.614 109.607C603.977 110.719 612.746 120.975 616.205 132.219C619.663 143.464 618.675 156.067 616.822 167.806Z" fill="#96D293"/>
<path d="M614.599 172.996C612.623 185.97 609.906 198.945 604.842 211.178C604.842 211.301 604.842 211.301 604.718 211.425C586.809 255.043 544.075 281.733 518.138 320.78C513.568 327.576 509.616 334.743 506.158 342.28C506.034 342.404 506.034 342.527 506.034 342.774C500.476 354.884 496.524 367.735 494.054 380.832C483.926 381.08 475.034 373.789 468.364 365.758C461.324 357.479 455.272 347.841 446.009 342.404C432.67 334.743 415.502 337.461 402.163 329.924C385.736 320.656 379.931 298.415 381.784 278.768C382.772 269.13 384.995 258.627 380.549 250.224C377.338 243.922 371.039 240.215 365.851 235.643C350.042 222.051 342.137 199.562 343.62 178.186C344.237 169.413 346.213 160.887 349.548 152.731C354.118 142.97 360.417 133.949 367.951 126.165C373.509 120.357 379.808 115.291 384.501 108.619C386.477 105.777 388.083 102.811 389.195 99.4747C390.8 95.0263 391.047 90.2073 389.812 85.5118C388.824 82.052 386.724 78.7158 387.218 75.0088C387.465 73.2789 388.206 71.6725 389.442 70.4369C391.912 67.9656 394.876 66.1121 398.211 65C416.614 58.0804 438.475 53.3849 454.407 64.8765C464.412 72.0432 470.34 84.5233 480.962 90.7016C486.89 94.1614 493.807 95.2735 500.353 97.7448C512.21 102.07 517.397 110.101 526.29 117.886C534.565 125.176 552.103 124.064 561.984 121.593C571.494 119.369 580.757 113.808 590.391 114.797C601.754 116.032 610.523 126.165 613.981 137.533C617.44 148.901 616.452 161.257 614.599 172.996Z" fill="url(#paint0_linear)"/>
<path d="M432.547 129.13C420.814 121.84 406.857 119.616 393.271 117.515C389.936 117.021 386.602 116.527 383.39 117.639C380.92 118.751 378.697 120.357 376.844 122.458C360.294 138.398 343.62 157.056 341.397 180.41C341.027 182.634 341.274 184.858 341.768 187.082C342.879 190.048 345.102 192.272 347.449 194.126C374.992 217.109 409.945 229.218 445.886 227.859C465.153 227.117 484.421 222.422 503.441 225.14C501.218 238.733 486.644 245.776 473.799 249.112C447.368 256.032 419.702 257.267 392.777 252.695L379.932 310.4L494.055 285.44C478.492 310.4 470.217 339.067 469.847 368.352C469.847 370.577 469.97 372.924 471.452 374.407C472.935 375.89 475.405 375.766 477.504 375.519C491.708 373.913 506.9 371.936 517.892 362.174C524.314 356.49 528.637 348.705 531.972 340.55C539.63 321.398 541.853 300.515 549.016 281.239C555.809 262.951 566.925 246.764 574.336 228.724C588.416 194.126 577.176 148.654 535.06 148.901C517.027 148.901 499.489 159.033 481.58 158.539C460.707 158.044 449.221 139.386 432.547 129.13Z" fill="url(#paint1_linear)"/>
<path opacity="0.54" d="M760.217 557.407L755.524 560.373C736.627 571.988 716.619 581.626 695.005 586.692C672.649 592.005 649.43 592.129 626.58 592.376C584.464 592.747 542.224 591.882 500.23 594.971C467.13 597.442 438.229 579.278 416.368 555.059C415.503 554.071 414.515 552.959 413.65 551.97C452.309 539.861 512.211 532.076 579.523 532.076C656.099 532.076 723.165 542.209 760.217 557.407Z" fill="#96D293"/>
<path opacity="0.54" d="M76.9639 592.87L81.6572 589.905C100.554 578.289 120.563 568.651 142.177 563.585C164.532 558.272 187.752 558.148 210.601 557.901C252.718 557.53 294.958 558.395 336.951 555.306C370.051 552.835 398.953 570.999 420.814 595.218C421.678 596.206 422.666 597.318 423.531 598.307C384.872 610.416 324.97 618.201 257.658 618.201C181.082 618.077 114.017 607.945 76.9639 592.87Z" fill="#96D293"/>
<path d="M604.72 518.237L606.449 536.277C606.449 536.277 599.532 546.657 590.516 547.398C581.5 548.016 578.412 543.691 578.412 543.691L579.894 517.248" fill="#F7AD7E"/>
<path d="M578.412 543.815L579.03 533.188L605.461 526.021L606.449 536.277C606.449 536.277 599.532 546.657 590.516 547.398C581.5 548.016 578.412 543.815 578.412 543.815Z" fill="white"/>
<path d="M520.61 514.406L518.634 538.625C518.634 538.625 525.674 549.375 534.937 549.993C544.2 550.734 547.288 546.286 547.288 546.286L545.806 519.102" fill="#F7AD7E"/>
<path d="M547.411 546.286L546.793 535.288L519.745 527.998L518.757 538.501C518.757 538.501 525.797 549.251 535.06 549.869C544.323 550.487 547.411 546.286 547.411 546.286Z" fill="white"/>
<path d="M509.988 283.587C509.988 283.587 508.382 309.906 512.458 388.123C516.534 466.339 517.769 514.777 517.769 514.777C517.769 514.777 521.721 524.044 535.183 524.168C548.646 524.291 549.511 518.731 549.511 518.731L562.603 318.308L576.312 522.809C576.312 522.809 593.974 526.021 606.572 518.978C615.464 514.036 604.596 283.216 604.596 283.216C604.596 283.216 561.491 307.064 509.988 283.587Z" fill="#3F3D56"/>
<path d="M542.594 115.661C542.594 115.661 506.776 132.96 506.035 138.644C505.171 144.328 510.111 283.586 510.111 283.586C510.111 283.586 521.721 298.661 557.292 298.661C593.727 298.661 603.113 288.282 604.719 283.339C606.325 278.52 612.13 139.633 611.389 133.825C610.648 128.018 577.547 115.785 577.547 115.785L542.594 115.661Z" fill="#F3FCFF"/>
<path d="M583.104 169.412L579.893 168.918C581.005 160.516 583.228 143.834 583.228 140.498C583.228 137.162 581.499 122.705 573.594 115.414C570.136 112.202 565.566 110.719 560.873 111.213C541.852 112.943 537.035 125.547 536.788 126.412C535.553 131.107 534.689 135.926 534.071 140.745H530.736C531.354 135.679 532.342 130.613 533.577 125.547V125.423C533.824 124.805 538.764 109.854 560.502 108C566.06 107.383 571.618 109.113 575.694 112.943C584.586 121.098 586.315 136.668 586.315 140.498C586.439 144.946 583.228 168.424 583.104 169.412Z" fill="#96D293"/>
<path d="M583.104 169.412L579.893 168.918C581.005 160.516 583.228 143.834 583.228 140.498C583.228 137.162 581.499 122.705 573.594 115.414C570.136 112.202 565.566 110.719 560.873 111.213C541.852 112.943 537.035 125.547 536.788 126.412C535.553 131.107 534.689 135.926 534.071 140.745H530.736C531.354 135.679 532.342 130.613 533.577 125.547V125.423C533.824 124.805 538.764 109.854 560.502 108C566.06 107.383 571.618 109.113 575.694 112.943C584.586 121.098 586.315 136.668 586.315 140.498C586.439 144.946 583.228 168.424 583.104 169.412Z" fill="url(#paint2_linear)"/>
<path d="M581.746 288.776L582.611 370.699L619.911 366.992L605.583 237.002L581.746 288.776Z" fill="#F3FCFF"/>
<path d="M544.693 115.661L544.199 301.009C556.797 304.839 570.26 303.604 581.993 297.673L572.359 115.538L558.403 118.874L544.693 115.661Z" fill="#96D293"/>
<path d="M544.693 115.661L544.199 301.009C556.797 304.839 570.26 303.604 581.993 297.673L572.359 115.538L558.403 118.874L544.693 115.661Z" fill="#96D293"/>
<path d="M544.94 94.6552C544.94 94.6552 544.693 107.135 544.817 116.279C544.94 123.075 546.916 136.173 559.267 136.173C571.618 136.173 572.977 119.492 572.853 116.279C573.224 111.46 573.224 106.517 572.853 101.698C571.989 93.9139 545.681 89.2184 544.94 94.6552Z" fill="#F7AD7E"/>
<path d="M545.064 108.989C545.064 108.989 546.547 124.805 556.551 122.704C564.826 121.222 571.248 114.796 572.607 106.517C573.348 102.934 572.236 99.3507 569.519 96.8794L545.064 108.989Z" fill="url(#paint3_linear)"/>
<path d="M579.277 95.644C575.448 107.012 564.95 114.179 557.663 114.797C550.376 115.414 542.347 108.742 539.136 100.463C535.925 92.1842 535.431 60.1808 535.431 60.1808C535.307 58.0802 535.801 55.9796 536.666 54.0026C537.654 51.6548 539.507 44.7352 542.1 42.6346C553.71 39.5454 565.938 39.9161 577.424 43.376C579.894 45.4766 581.129 52.2727 581.623 53.5083C581.87 54.2497 581.994 54.9911 582.117 55.856C583.105 63.6406 582.735 85.6352 579.277 95.644Z" fill="#F7AD7E"/>
<path d="M535.184 68.83C533.578 67.8415 531.478 68.2122 530.367 69.5714C529.873 70.5599 529.749 71.5484 529.873 72.5369C529.873 73.5255 529.996 74.6375 530.12 75.6261C530.737 78.3445 532.096 80.9394 534.072 82.9164C534.566 83.4107 535.06 83.9049 535.678 84.2756C536.295 84.6463 537.036 84.6463 537.777 84.5227C538.889 83.9049 539.506 82.7928 539.63 81.5572C540 78.9623 539.753 76.3674 539.012 73.8961C538.271 71.9191 536.913 70.0656 535.184 68.83Z" fill="#F7AD7E"/>
<path d="M583.475 68.3358C585.081 67.3473 587.057 67.5944 588.292 69.0772C588.786 70.0657 588.91 71.0542 588.786 72.0427C588.786 73.0313 588.663 74.1433 588.539 75.1319C587.922 77.8503 586.563 80.4452 584.587 82.4222C584.093 82.9165 583.599 83.4107 582.981 83.7814C582.364 84.1521 581.623 84.1521 580.882 84.0286C579.77 83.4107 579.152 82.2986 579.029 81.063C578.658 78.4681 578.782 75.8733 579.647 73.402C580.511 71.4249 581.746 69.695 583.475 68.3358Z" fill="#F7AD7E"/>
<path d="M544.199 288.776L542.964 370.699L489.979 366.992L510.358 237.002L544.199 288.776Z" fill="#F3FCFF"/>
<path d="M506.776 137.285C506.776 137.285 480.098 202.157 477.134 213.401C474.17 224.646 483.557 258.626 487.262 252.819C498.625 234.902 509.741 206.852 509.741 206.852L506.776 137.285Z" fill="#F3FCFF"/>
<path d="M608.918 130.119C608.918 130.119 635.596 194.99 638.561 206.235C641.525 217.479 632.138 251.46 628.433 245.652C617.07 227.735 605.954 199.686 605.954 199.686L608.918 130.119Z" fill="#F3FCFF"/>
<path d="M614.352 218.468C613.611 219.209 592.367 282.722 592.367 282.722C592.367 282.722 606.077 282.722 616.204 283.587C616.204 283.587 637.078 235.025 637.942 230.701C638.807 226.376 645.106 202.899 631.026 200.057C616.946 197.215 614.352 218.468 614.352 218.468Z" fill="#F3FCFF"/>
<path d="M501.219 225.758C501.96 226.499 523.08 290.012 523.08 290.012C523.08 290.012 509.37 290.012 499.242 290.877C499.242 290.877 478.369 242.315 477.505 237.991C476.64 233.666 470.341 210.189 484.421 207.347C498.501 204.505 501.219 225.758 501.219 225.758Z" fill="#F3FCFF"/>
<path d="M582.487 69.5714C582.487 69.0772 582.363 68.5829 582.24 68.0887C581.622 65.3702 580.634 62.6518 579.523 60.1805C577.67 55.8557 576.064 51.5309 574.212 47.0826C573.965 46.3412 573.594 45.7234 573.347 44.982V44.8584V44.982C573.1 45.2291 572.73 45.4762 572.359 45.5998C570.012 46.4648 567.542 47.2061 565.072 47.7004C561.861 48.1947 558.526 47.9475 555.315 46.959C552.598 46.2176 549.88 43.8699 546.916 43.9935H546.422C543.334 44.117 540.864 46.3412 540.37 49.3068C539.753 56.35 538.27 63.2696 535.8 69.9421C532.713 67.8415 532.342 63.6403 532.342 60.0569C532.342 56.4735 532.342 52.643 532.342 48.9361C532.219 47.0826 532.466 45.3527 532.96 43.6228C533.577 41.7693 535.059 40.4101 536.912 39.9158C538.394 39.6687 540.123 40.1629 541.358 39.298C542.346 38.433 542.84 37.1974 542.964 35.8382C543.211 33.2433 544.199 30.6484 545.805 28.5478C549.386 24.3466 556.056 24.0995 561.367 25.8294C566.678 27.5593 571.371 30.8956 576.558 32.8726C580.264 34.2318 584.216 35.2203 586.439 38.0623C587.427 39.6687 588.045 41.5222 588.292 43.4992C590.021 52.8901 587.798 62.1575 582.487 69.5714Z" fill="#3F3D56"/>
<path d="M583.599 66.1117C583.228 66.8531 582.734 67.5945 582.117 68.0887C581.499 65.3703 580.511 62.6519 579.4 60.1806C577.423 55.1144 575.324 50.0482 573.348 45.1056C574.583 44.3642 575.818 43.87 577.176 43.6228C579.029 43.2521 580.882 43.7464 582.364 44.9821C583.352 46.0941 584.093 47.3298 584.463 48.8126C584.958 51.1603 585.204 53.6316 585.204 56.1029C585.575 59.4392 584.957 62.899 583.599 66.1117Z" fill="url(#paint4_linear)"/>
<path d="M580.635 42.7579C578.288 43.7464 576.065 45.2292 574.212 46.9591C573.965 46.2177 573.595 45.5999 573.348 44.8585V44.735V44.8585C573.101 45.1057 572.73 45.3528 572.36 45.4764C570.013 46.3413 567.543 47.0827 565.073 47.577C561.862 48.0712 558.527 47.8241 555.316 46.8356C552.598 46.0942 549.881 43.7464 546.917 43.87H546.423C546.546 43.3757 546.793 43.0051 546.917 42.3872C548.275 37.9389 549.264 33.9848 554.327 32.6256C557.415 31.8842 560.626 32.1313 563.467 33.4905C566.184 34.6026 568.778 36.4561 571.742 36.9504C573.471 36.9504 575.324 37.1975 577.053 37.5682C579.153 38.8038 580.511 40.6573 580.635 42.7579Z" fill="url(#paint5_linear)"/>
<path d="M504.306 290.63L506.776 301.009L525.549 300.144L520.609 290.012L504.306 290.63Z" fill="#F7AD7E"/>
<path d="M595.95 282.598L590.392 296.19L608.177 297.178L610.524 283.215L595.95 282.598Z" fill="#F7AD7E"/>
<path d="M531.848 299.897H502.947V305.087H531.848V299.897Z" fill="#F3FCFF"/>
<path d="M611.636 296.19H585.081V301.009H611.636V296.19Z" fill="#F3FCFF"/>
<path d="M542.718 177.197H534.813V173.861H540C541.359 165.211 542.471 146.059 534.195 142.722C532.466 141.981 530.49 142.475 529.379 143.958C523.821 149.889 522.833 167.93 523.821 170.154C524.685 171.019 525.797 171.513 527.032 171.389L527.526 174.602C525.179 174.849 522.833 173.984 521.35 172.254C518.88 169.536 520.733 150.63 525.92 143.217C528.514 139.51 531.849 138.274 535.554 139.757C548.523 144.946 543.335 174.602 543.088 175.838L542.718 177.197Z" fill="#96D293"/>
<path d="M542.718 177.197H534.813V173.861H540C541.359 165.211 542.471 146.059 534.195 142.722C532.466 141.981 530.49 142.475 529.379 143.958C523.821 149.889 522.833 167.93 523.821 170.154C524.685 171.019 525.797 171.513 527.032 171.389L527.526 174.602C525.179 174.849 522.833 173.984 521.35 172.254C518.88 169.536 520.733 150.63 525.92 143.217C528.514 139.51 531.849 138.274 535.554 139.757C548.523 144.946 543.335 174.602 543.088 175.838L542.718 177.197Z" fill="url(#paint6_linear)"/>
<path d="M528.553 173.508C528.69 172.082 527.92 170.841 526.834 170.736C525.747 170.632 524.756 171.704 524.619 173.13C524.482 174.557 525.252 175.798 526.338 175.902C527.425 176.006 528.416 174.935 528.553 173.508Z" fill="#96D293"/>
<path d="M536.343 175.75C536.48 174.323 535.71 173.082 534.624 172.978C533.537 172.874 532.546 173.946 532.409 175.372C532.272 176.799 533.042 178.04 534.128 178.144C535.215 178.248 536.206 177.176 536.343 175.75Z" fill="#96D293"/>
<path d="M524.685 172.995C524.809 171.513 525.797 170.4 526.908 170.524C528.02 170.648 528.761 171.883 528.637 173.366C528.514 174.849 527.526 175.961 526.414 175.837C525.303 175.714 524.438 174.478 524.685 172.995Z" fill="url(#paint7_linear)"/>
<path d="M532.466 175.467C532.589 173.984 533.577 172.872 534.689 172.995C535.8 173.119 536.541 174.354 536.418 175.837C536.294 177.32 535.306 178.432 534.195 178.309C533.083 178.185 532.342 176.826 532.466 175.467Z" fill="url(#paint8_linear)"/>
<path d="M581.869 177.32C585.143 177.32 587.797 174.665 587.797 171.389C587.797 168.113 585.143 165.458 581.869 165.458C578.595 165.458 575.94 168.113 575.94 171.389C575.94 174.665 578.595 177.32 581.869 177.32Z" fill="#96D293"/>
<path d="M582.858 174.232C585.177 174.232 587.057 172.351 587.057 170.03C587.057 167.71 585.177 165.829 582.858 165.829C580.538 165.829 578.658 167.71 578.658 170.03C578.658 172.351 580.538 174.232 582.858 174.232Z" fill="url(#paint9_linear)"/>
<path d="M582.981 172.501C584.414 172.501 585.575 171.339 585.575 169.906C585.575 168.473 584.414 167.312 582.981 167.312C581.549 167.312 580.388 168.473 580.388 169.906C580.388 171.339 581.549 172.501 582.981 172.501Z" fill="#F3FCFF"/>
<path d="M579.029 172.007L576.436 173.984C576.436 173.984 577.918 176.579 579.4 176.949L581.252 173.984C581.252 173.984 579.894 173.984 579.029 172.007Z" fill="url(#paint10_linear)"/>
<path d="M631.274 552.711C632.756 553.576 634.485 554.935 634.361 556.912C634.238 557.777 633.991 558.519 633.373 559.137C630.038 563.708 611.512 562.349 606.201 562.226C594.221 562.102 594.715 562.844 582.858 560.619C581.87 560.496 581.005 560.125 580.141 559.631C579.029 558.395 578.288 556.789 578.288 555.059C577.918 551.105 577.917 547.151 578.535 543.197C578.535 542.826 578.782 542.455 579.029 542.085C579.276 541.961 579.647 541.961 580.017 542.085C581.87 542.826 583.846 543.444 585.822 543.938C589.157 544.309 592.368 543.567 595.209 541.837C596.691 540.972 598.05 539.984 599.285 538.995C600.149 538.254 601.878 536.03 602.99 535.906C604.101 535.783 606.078 537.636 607.189 538.254L612.13 541.22L631.274 552.711Z" fill="#3F3D56"/>
<path d="M534.072 543.691C529.625 542.208 525.55 539.984 522.091 536.895C521.474 536.277 520.609 535.783 519.745 535.659C519.251 535.659 518.88 535.783 518.386 535.906C510.111 538.625 502.206 542.455 494.919 547.274C492.943 548.51 490.844 550.363 490.967 552.958C491.091 555.924 494.178 557.283 496.649 557.901C511.346 561.608 526.538 562.473 541.482 560.372C542.841 560.249 544.076 559.878 545.188 559.137C546.423 557.777 547.164 556.171 547.287 554.318C547.905 550.487 548.152 545.05 546.546 541.467C542.964 543.938 538.395 544.803 534.072 543.691Z" fill="#3F3D56"/>
<path d="M545.311 117.762C545.311 117.762 552.598 133.702 556.55 135.802L547.411 141.857L544.693 126.411L545.311 117.762Z" fill="#96D293"/>
<path d="M572.607 117.886C572.607 117.886 566.061 135.432 556.674 135.679L566.308 144.576L573.224 131.849L572.607 117.886Z" fill="#96D293"/>
<path d="M545.311 117.762C545.311 117.762 552.598 133.702 556.55 135.802L547.411 141.857L544.693 126.411L545.311 117.762Z" fill="url(#paint11_linear)"/>
<path d="M572.607 117.886C572.607 117.886 566.061 135.432 556.674 135.679L566.308 144.576L573.224 131.849L572.607 117.886Z" fill="url(#paint12_linear)"/>
<path d="M551.116 139.015L554.204 144.328L551.857 258.626L561.985 272.836L568.778 249.235L559.268 144.575L561.985 140.498L556.674 135.802L551.116 139.015Z" fill="#3F3D56"/>
<path d="M583.599 118.751C583.723 119.121 582.611 119.739 582.487 120.11C582.117 120.851 581.252 120.975 580.388 120.975C577.424 121.222 574.83 123.323 572.483 125.3C571.866 125.794 570.878 126.412 570.137 125.918C569.766 125.67 569.519 125.176 569.395 124.805C569.272 123.323 569.642 121.84 570.384 120.604C571.372 118.504 573.718 113.067 574.212 112.943C575.571 112.696 576.93 112.696 578.288 113.067C579.4 113.561 578.906 113.685 579.029 114.673C579.153 115.662 580.017 115.909 580.758 116.403C581.623 117.021 583.352 117.639 583.599 118.751Z" fill="#96D293"/>
<path d="M574.088 115.044C572.977 117.391 571.865 119.739 570.753 122.21C570.506 122.705 570.383 123.322 570.753 123.817C571.124 124.187 571.865 124.064 572.359 123.693C574.088 122.828 575.694 121.84 577.299 120.728C577.793 120.48 578.164 120.11 578.287 119.739C578.658 118.75 577.917 117.638 578.287 116.65C578.534 115.908 579.152 115.414 579.893 115.167C581.746 114.549 583.598 114.426 585.451 114.796C584.092 113.437 582.24 112.696 580.264 112.696C578.905 112.819 577.546 113.19 576.188 113.19C575.076 113.314 574.582 113.931 574.088 115.044Z" fill="url(#paint13_linear)"/>
<path d="M531.848 118.133C532.589 117.515 533.33 117.144 533.453 116.156C533.453 115.167 532.959 115.167 533.947 114.549C535.182 114.055 536.664 113.808 538.023 113.931C538.517 113.931 541.481 119.121 542.716 121.098C543.705 122.21 544.199 123.693 544.199 125.176C544.199 125.67 543.952 126.041 543.581 126.411C542.84 126.906 541.975 126.411 541.234 126.041C538.641 124.434 535.923 122.581 532.836 122.705C532.095 122.705 531.107 122.828 530.613 122.087C530.365 121.716 529.254 121.345 529.254 120.851C529.501 119.615 531.107 118.75 531.848 118.133Z" fill="#96D293"/>
<path d="M535.924 114.302C534.565 114.426 533.207 114.179 531.725 114.302C529.748 114.426 528.019 115.414 526.784 117.021C528.637 116.403 530.489 116.279 532.342 116.65C533.083 116.774 533.824 117.268 534.195 118.009C534.689 118.998 534.071 120.233 534.565 121.098C534.812 121.469 535.306 121.84 535.677 121.963C537.406 122.828 539.135 123.57 540.988 124.311C541.482 124.558 542.223 124.682 542.593 124.187C542.964 123.693 542.717 123.075 542.346 122.581C540.988 120.233 539.629 118.009 538.271 115.785C537.777 114.92 537.282 114.302 535.924 114.302Z" fill="url(#paint14_linear)"/>
<path d="M350.412 211.053C348.066 226.375 344.854 241.574 338.926 255.907C338.185 257.761 337.32 259.738 336.456 261.591C314.347 309.288 267.043 339.561 237.895 383.427C231.349 393.188 225.915 403.568 221.345 414.442C221.221 414.565 221.221 414.812 221.098 414.936C215.17 429.146 211.094 444.097 208.747 459.296C208.13 459.296 207.635 459.419 207.018 459.419C195.285 459.79 184.786 451.14 177.005 441.873C168.854 432.111 161.69 420.867 150.821 414.689C135.259 405.668 115.251 408.881 99.5648 400.108C80.4209 389.234 73.6279 363.286 75.8511 340.426C76.9627 329.058 79.6799 316.949 74.4925 307.063C70.6637 299.773 63.5001 295.325 57.3247 290.135C38.7983 274.319 29.6586 248.123 31.3877 223.039C32.1288 212.783 34.4755 202.774 38.4278 193.26C43.9857 179.544 52.1373 166.941 62.5121 156.314C69.0581 149.518 76.3451 143.587 81.903 135.802C83.0146 134.319 84.0027 132.713 84.7437 131.107C88.449 124.311 90.3017 116.279 88.0785 108.865C86.8434 105.034 84.7437 101.204 84.9908 97.2498C84.9908 97.0027 84.9908 96.8791 85.1143 96.632C85.8553 90.4537 92.4013 87.1175 97.9592 85.0169C119.45 76.9851 144.893 71.4247 163.543 84.7697C175.153 93.1722 182.193 107.629 194.543 114.92C198.372 117.02 202.448 118.627 206.771 119.862C210.229 120.851 213.811 121.839 217.146 123.075C229.867 127.647 236.043 136.049 245.059 144.452C245.8 145.193 246.541 145.934 247.405 146.552C257.039 155.078 277.418 153.596 289.152 150.877C300.267 148.282 311.013 141.733 322.376 142.969C335.591 144.328 345.966 156.19 349.918 169.412C353.994 183.004 352.512 197.338 350.412 211.053Z" fill="#96D293"/>
<path d="M347.819 216.985C345.472 232.183 342.261 247.258 336.456 261.468C336.456 261.592 336.456 261.715 336.332 261.839C315.459 312.748 265.561 343.762 235.302 389.358C229.991 397.266 225.297 405.669 221.345 414.442C221.222 414.565 221.222 414.812 221.098 414.936C214.676 429.146 209.982 444.097 207.141 459.419C195.408 459.79 185.033 451.141 177.129 441.873C168.977 432.112 161.814 420.867 150.945 414.689C135.383 405.669 115.374 409.005 99.8119 400.108C80.668 389.234 73.875 363.286 76.0981 340.426C77.2097 329.182 79.9269 316.949 74.7395 307.064C70.9108 299.773 63.7472 295.325 57.5717 290.135C39.0454 274.319 29.9057 248.123 31.6348 223.039C32.3759 212.783 34.7225 202.775 38.5513 193.384C43.9857 181.892 51.1493 171.513 60.0419 162.369C66.5879 155.696 73.875 149.642 79.4329 141.981C81.7796 138.768 83.6322 135.185 84.8673 131.354C86.8434 126.164 87.0905 120.48 85.6084 115.167C84.4968 111.089 82.0266 107.135 82.6441 102.934C82.8912 100.957 83.8792 99.1035 85.2378 97.6207C88.0785 94.7787 91.6603 92.5545 95.4891 91.3189C116.98 83.2872 142.423 77.8503 161.073 91.1953C172.806 99.5978 179.722 114.055 192.073 121.345C198.99 125.423 207.141 126.782 214.676 129.501C228.509 134.567 234.561 143.958 244.935 153.101C254.569 161.627 274.948 160.268 286.681 157.426C297.797 154.831 308.543 148.282 319.905 149.518C333.121 150.877 343.496 162.74 347.448 175.961C351.277 188.935 349.918 203.269 347.819 216.985Z" fill="url(#paint15_linear)"/>
<path d="M135.383 165.829C121.673 157.426 105.37 154.708 89.5607 152.236C85.732 151.619 81.7797 151.124 78.0744 152.484C75.1102 153.843 72.5165 155.696 70.4168 158.044C51.1494 176.579 31.6349 198.45 29.0412 225.634C28.6707 228.229 28.7942 230.824 29.5352 233.295C30.7703 236.755 33.4875 239.35 36.2047 241.574C68.3171 268.388 109.199 282.474 151.068 280.991C173.547 280.126 196.026 274.689 218.257 277.779C215.664 293.595 198.619 301.874 183.675 305.704C152.797 313.736 120.562 315.219 89.1902 309.782L74.1221 377.125L207.265 347.964C189.109 377.001 179.352 410.487 178.981 444.715C178.981 447.186 179.105 450.152 180.834 451.758C182.563 453.488 185.404 453.365 187.874 452.994C204.424 451.14 222.21 448.793 235.055 437.425C242.589 430.752 247.653 421.608 251.481 412.217C260.374 389.852 262.968 365.51 271.366 343.021C279.271 321.644 292.239 302.739 300.885 281.733C317.312 241.45 304.096 188.317 255.063 188.565C234.067 188.565 213.564 200.303 192.567 199.809C168.236 199.562 154.774 177.814 135.383 165.829Z" fill="url(#paint16_linear)"/>
<path d="M204.672 396.772L214.306 561.484L229.744 562.596L264.821 391.953L279.766 564.821H295.204L322.376 399.367L264.821 366.869L204.672 396.772Z" fill="#25233A"/>
<path d="M406.362 183.745C406.362 183.745 409.327 177.196 407.35 165.458C405.374 153.719 418.219 137.161 418.219 137.161C420.319 138.273 421.43 140.498 421.06 142.845L430.2 118.997C430.2 118.997 434.646 116.773 439.216 129.5C443.786 142.228 440.204 153.225 438.969 159.28C436.869 169.535 427.606 177.073 427.112 181.892C426.618 185.722 425.753 189.429 424.765 193.136L406.362 183.745Z" fill="url(#paint17_linear)"/>
<path d="M264.574 146.305C264.574 146.305 223.816 146.182 220.358 148.529C216.9 150.877 207.883 156.438 202.079 171.018C196.274 185.599 166.261 265.793 166.261 265.793C166.261 265.793 163.914 274.072 171.942 282.351C179.97 290.629 205.413 320.656 205.413 320.656L195.409 396.278C195.409 396.278 258.399 400.973 265.809 382.068C265.809 382.068 288.782 395.165 322.5 399.243L333.616 403.444L334.604 260.479C343.867 271.724 358.441 277.161 372.892 274.813C397.841 270.983 421.554 239.226 432.176 198.944L397.717 180.78C397.717 180.78 384.625 232.43 362.764 223.534C347.449 217.232 347.449 193.754 345.72 177.197C344.732 168.176 338.309 160.886 329.54 158.785L300.392 151.866L264.574 146.305Z" fill="white"/>
<path d="M234.438 297.796L229.868 396.154C229.868 396.154 201.584 397.266 195.285 396.278L205.289 320.656L234.438 297.796Z" fill="#96D293"/>
<path d="M234.438 297.796L229.868 396.154C229.868 396.154 201.584 397.266 195.285 396.278L205.289 320.656L234.438 297.796Z" fill="url(#paint18_linear)"/>
<path d="M334.48 260.726L325.217 239.844L313.113 398.007L333.492 403.568L334.48 260.726Z" fill="#96D293"/>
<path d="M334.48 260.726L325.217 239.844L313.113 398.007L333.492 403.568L334.48 260.726Z" fill="url(#paint19_linear)"/>
<path d="M262.598 161.875C262.598 161.875 285.076 177.197 297.551 166.323L264.45 306.446L262.598 161.875Z" fill="#25233A"/>
<path d="M268.278 124.681C268.278 124.681 257.904 164.593 265.314 173.242C272.725 181.892 295.944 182.633 297.674 166.446C299.403 150.259 307.06 128.635 307.06 128.635L268.278 124.681Z" fill="url(#paint20_linear)"/>
<path opacity="0.19" d="M267.167 134.443C267.167 134.443 276.06 156.685 283.717 160.268C291.375 163.851 298.044 161.257 299.032 158.044C300.02 154.955 303.973 138.273 303.973 138.273L267.167 134.443Z" fill="url(#paint21_linear)"/>
<path d="M321.758 102.687C321.758 128.017 307.555 148.529 289.893 148.529C272.231 148.529 258.027 128.017 258.027 102.687C258.027 77.3558 273.59 68.0884 291.251 68.0884C308.913 68.0884 321.758 77.4793 321.758 102.687Z" fill="url(#paint22_linear)"/>
<path d="M334.109 88.2297C332.874 95.1493 329.045 101.328 324.476 106.641C324.476 106.147 324.476 105.776 324.352 105.282C323.858 100.215 323.117 95.0257 320.894 90.4538C318.547 85.3877 314.224 81.0629 308.79 79.9508C305.208 79.2094 301.256 79.8272 297.551 80.0744C294.463 80.1979 291.499 80.0744 288.905 78.5916C287.67 77.7266 286.435 76.9852 285.076 76.3674C277.419 73.5254 272.355 87.2411 271.984 92.5545C271.614 98.6091 272.602 104.911 270.502 110.595C268.649 109.854 268.032 107.629 267.291 105.776C266.55 103.922 265.191 101.822 263.215 102.193C262.227 102.44 261.362 103.057 260.868 103.922C259.263 106.394 259.757 109.73 260.745 112.448C261.856 115.167 263.586 117.638 264.574 120.48C266.303 125.052 266.056 130.242 263.956 134.567C259.633 128.635 256.546 121.963 254.816 114.92L250.123 118.997L250.37 101.451C250.617 87.859 251.358 73.1547 260.127 62.8988C266.92 54.9907 277.419 51.2837 287.793 50.2952C299.28 49.3067 311.384 51.5308 320.647 58.3269C330.157 64.9994 336.086 76.8617 334.109 88.2297Z" fill="#3F3D56"/>
<path d="M329.415 88.2297C325.957 99.7213 324.351 105.158 324.351 105.158C323.857 100.092 323.116 94.9022 320.893 90.3303C318.546 85.2641 314.224 80.9394 308.789 79.8273C305.207 79.0859 301.255 79.7037 297.55 79.9508C297.55 79.9508 311.506 72.6605 317.558 70.807C323.734 68.9536 332.873 76.7382 329.415 88.2297Z" fill="#25233A"/>
<path opacity="0.19" d="M267.168 113.808C267.168 113.808 263.957 112.572 264.945 110.101C265.933 107.629 265.068 106.27 263.957 106.023C262.845 105.776 259.881 108.247 262.969 113.931C266.303 119.368 267.168 113.808 267.168 113.808Z" fill="url(#paint23_linear)"/>
<path d="M260.128 141.116L250.865 144.328C249.259 144.946 248.024 146.305 247.777 147.912L239.502 190.542L255.435 193.137L247.16 204.628L264.451 297.796L263.216 143.34C263.216 141.981 262.104 140.992 260.869 140.992C260.622 140.992 260.375 141.116 260.128 141.116Z" fill="#96D293"/>
<path d="M300.268 151.989L310.149 155.573L313.113 199.191H298.909L304.961 211.424L264.45 306.569C264.45 306.446 295.451 184.734 300.268 151.989Z" fill="#96D293"/>
<path d="M260.128 141.116L250.865 144.328C249.259 144.946 248.024 146.305 247.777 147.912L239.502 190.542L255.435 193.137L247.16 204.628L264.451 297.796L263.216 143.34C263.216 141.981 262.104 140.992 260.869 140.992C260.622 140.992 260.375 141.116 260.128 141.116Z" fill="url(#paint24_linear)"/>
<path d="M300.268 151.989L310.149 155.573L313.113 199.191H298.909L304.961 211.424L264.45 306.569C264.45 306.446 295.451 184.734 300.268 151.989Z" fill="url(#paint25_linear)"/>
<path d="M219.617 195.113L205.29 269.129L234.438 297.796L219.617 195.113Z" fill="#96D293"/>
<path d="M219.617 195.113L205.29 269.129L234.438 297.796L229.004 260.109L219.617 195.113Z" fill="url(#paint26_linear)"/>
<path d="M234.438 297.796L213.318 324.239L205.29 320.779L231.968 295.325L234.438 297.796Z" fill="#25233A"/>
<path d="M232.092 300.762C232.092 300.762 238.514 314.725 239.502 322.633L213.318 324.116L232.092 300.762Z" fill="url(#paint27_linear)"/>
<path d="M210.477 324.239L252.1 322.756C252.1 322.756 249.136 365.386 248.889 370.082C248.641 374.777 203.808 377.99 203.808 377.99L210.477 324.239Z" fill="white"/>
<path d="M330.898 325.722L290.017 322.88C290.017 322.88 285.571 365.263 285.818 369.958C286.065 374.654 327.687 380.832 327.687 380.832L330.898 325.722Z" fill="white"/>
<path d="M210.477 324.239L252.1 322.756C252.1 322.756 249.136 365.386 248.889 370.082C248.641 374.777 203.808 377.99 203.808 377.99L210.477 324.239Z" fill="#96D293"/>
<path d="M210.477 324.239L252.1 322.756C252.1 322.756 249.136 365.386 248.889 370.082C248.641 374.777 203.808 377.99 203.808 377.99L210.477 324.239Z" fill="url(#paint28_linear)"/>
<path d="M330.898 325.722L290.017 322.88C290.017 322.88 285.571 365.263 285.818 369.958C286.065 374.654 327.687 380.832 327.687 380.832L330.898 325.722Z" fill="#96D293"/>
<path d="M330.898 325.722L290.017 322.88C290.017 322.88 285.571 365.263 285.818 369.958C286.065 374.654 327.687 380.832 327.687 380.832L330.898 325.722Z" fill="url(#paint29_linear)"/>
<path d="M400.681 182.634L402.78 179.174L431.064 195.114L432.052 199.068L400.681 182.634Z" fill="#25233A"/>
<path d="M260.992 207.223C260.128 207.223 259.51 206.482 259.633 205.74C260.745 190.789 257.287 179.297 250.37 174.972C246.912 172.748 242.466 172.748 239.007 174.849C229.991 180.162 227.274 194.372 227.768 205.74C227.892 206.482 227.398 207.223 226.657 207.347C225.915 207.47 225.174 206.976 225.051 206.234C225.051 206.111 225.051 205.987 225.051 205.987C224.31 190.047 229.003 177.444 237.649 172.501C241.972 169.783 247.53 169.783 251.976 172.625C260.004 177.691 263.833 189.8 262.598 205.987C262.351 206.605 261.733 207.223 260.992 207.223Z" fill="#25233A"/>
<path d="M230.733 207.347C230.733 209.694 228.88 211.548 226.533 211.548C224.187 211.548 222.334 209.694 222.334 207.347C222.334 204.999 224.187 203.146 226.533 203.146C228.88 203.269 230.733 205.123 230.733 207.347Z" fill="#96D293"/>
<path d="M264.573 207.964C264.573 210.312 262.721 212.166 260.374 212.166C258.027 212.166 256.175 210.312 256.175 207.964C256.175 205.617 258.027 203.763 260.374 203.763C262.721 203.763 264.573 205.617 264.573 207.964Z" fill="#96D293"/>
<path d="M230.733 207.347C230.733 209.694 228.88 211.548 226.533 211.548C224.187 211.548 222.334 209.694 222.334 207.347C222.334 204.999 224.187 203.146 226.533 203.146C228.88 203.269 230.733 205.123 230.733 207.347Z" fill="url(#paint30_linear)"/>
<path d="M264.573 207.964C264.573 210.312 262.721 212.166 260.374 212.166C258.027 212.166 256.175 210.312 256.175 207.964C256.175 205.617 258.027 203.763 260.374 203.763C262.721 203.763 264.573 205.617 264.573 207.964Z" fill="url(#paint31_linear)"/>
<path d="M304.961 246.393C309.463 246.393 313.113 242.742 313.113 238.238C313.113 233.734 309.463 230.083 304.961 230.083C300.459 230.083 296.81 233.734 296.81 238.238C296.81 242.742 300.459 246.393 304.961 246.393Z" fill="#96D293"/>
<path d="M304.961 246.393C309.463 246.393 313.113 242.742 313.113 238.238C313.113 233.734 309.463 230.083 304.961 230.083C300.459 230.083 296.81 233.734 296.81 238.238C296.81 242.742 300.459 246.393 304.961 246.393Z" fill="url(#paint32_linear)"/>
<path d="M305.332 243.18C308.47 243.18 311.013 240.636 311.013 237.496C311.013 234.357 308.47 231.812 305.332 231.812C302.194 231.812 299.65 234.357 299.65 237.496C299.65 240.636 302.194 243.18 305.332 243.18Z" fill="#96D293"/>
<path d="M307.184 239.844C310.322 239.844 312.866 237.299 312.866 234.16C312.866 231.021 310.322 228.476 307.184 228.476C304.047 228.476 301.503 231.021 301.503 234.16C301.503 237.299 304.047 239.844 307.184 239.844Z" fill="#96D293"/>
<path d="M307.184 239.844C310.322 239.844 312.866 237.299 312.866 234.16C312.866 231.021 310.322 228.476 307.184 228.476C304.047 228.476 301.503 231.021 301.503 234.16C301.503 237.299 304.047 239.844 307.184 239.844Z" fill="url(#paint33_linear)"/>
<path d="M216.035 568.651L216.406 561.484L229.621 562.72L227.892 573.347C227.892 573.347 221.346 583.479 216.035 568.651Z" fill="url(#paint34_linear)"/>
<path d="M293.846 574.335L293.352 564.82L279.766 564.697V576.683C279.766 576.683 288.535 589.286 293.846 574.335Z" fill="url(#paint35_linear)"/>
<path d="M216.034 568.651C216.034 568.651 190.962 581.007 188.121 585.456C186.145 588.792 184.786 592.252 183.922 595.959C183.922 595.959 199.237 596.206 208.747 593.117C218.257 590.028 229.744 586.568 229.744 586.568V570.257C229.744 570.257 229.497 568.404 226.78 570.504C224.062 572.605 221.222 574.706 218.752 573.346C216.281 571.74 217.516 568.527 216.034 568.651Z" fill="#96D293"/>
<path d="M294.463 572.358C294.463 572.358 316.324 585.95 318.918 590.645C320.647 594.105 321.759 597.689 322.376 601.519C322.376 601.519 307.061 600.654 297.921 596.824C288.658 592.993 277.419 588.668 277.419 588.668L278.654 572.358C278.654 572.358 279.025 570.504 281.618 572.852C284.212 575.2 289.029 577.918 291.623 576.683C294.093 575.447 292.981 572.111 294.463 572.358Z" fill="#96D293"/>
<path d="M216.034 568.651C216.034 568.651 190.962 581.007 188.121 585.456C186.145 588.792 184.786 592.252 183.922 595.959C183.922 595.959 199.237 596.206 208.747 593.117C218.257 590.028 229.744 586.568 229.744 586.568V570.257C229.744 570.257 229.497 568.404 226.78 570.504C224.062 572.605 221.222 574.706 218.752 573.346C216.281 571.74 217.516 568.527 216.034 568.651Z" fill="url(#paint36_linear)"/>
<path d="M294.463 572.358C294.463 572.358 316.324 585.95 318.918 590.645C320.647 594.105 321.759 597.689 322.376 601.519C322.376 601.519 307.061 600.654 297.921 596.824C288.658 592.993 277.419 588.668 277.419 588.668L278.654 572.358C278.654 572.358 279.025 570.504 281.618 572.852C284.212 575.2 289.029 577.918 291.623 576.683C294.093 575.447 292.981 572.111 294.463 572.358Z" fill="url(#paint37_linear)"/>
<path d="M311.26 155.573C311.136 155.943 309.901 155.696 309.654 155.943C308.913 156.314 308.172 155.82 307.554 155.449C305.084 153.966 301.873 154.09 298.909 154.214C298.044 154.214 297.056 154.214 296.686 153.349C296.562 152.978 296.562 152.484 296.809 151.989C297.55 150.754 298.662 149.889 300.02 149.271C301.997 148.282 306.937 145.44 307.307 145.564C308.543 146.182 309.531 147.047 310.395 148.035C311.013 149.024 310.519 148.777 310.025 149.642C309.531 150.507 310.148 151.124 310.395 151.989C310.642 153.101 311.63 154.584 311.26 155.573Z" fill="#96D293"/>
<path d="M238.019 146.8C238.76 146.182 239.501 145.811 239.501 144.823C239.501 143.834 239.007 143.834 239.995 143.216C241.23 142.722 242.589 142.475 243.948 142.475C244.442 142.475 247.406 147.418 248.764 149.271C249.752 150.383 250.246 151.742 250.37 153.225C250.37 153.72 250.123 154.09 249.876 154.461C249.258 154.955 248.27 154.584 247.529 154.09C244.936 152.484 242.218 150.878 239.254 151.001C238.513 151.001 237.525 151.125 237.155 150.507C236.907 150.136 235.796 149.765 235.796 149.395C235.796 148.283 237.402 147.418 238.019 146.8Z" fill="#96D293"/>
<path d="M306.197 146.923C303.974 148.159 301.75 149.394 299.527 150.877C299.033 151.124 298.539 151.619 298.663 152.113C298.786 152.607 299.404 152.854 300.021 152.978C301.874 153.225 303.727 153.348 305.703 153.472C306.197 153.472 306.691 153.472 307.185 153.225C308.049 152.731 308.173 151.371 308.914 150.754C309.532 150.383 310.396 150.259 311.014 150.506C312.743 151.001 312.496 150.877 312.866 150.506C313.36 149.889 314.225 149.889 312.619 148.777C311.508 148.035 310.149 147.664 309.038 146.8C308.049 146.058 307.308 146.305 306.197 146.923Z" fill="url(#paint38_linear)"/>
<path d="M245.183 172.501C244.442 172.501 243.825 171.883 243.825 171.142C243.578 157.179 249.506 148.653 254.447 143.957C257.534 140.868 261.363 138.52 265.439 137.038C266.18 136.791 266.921 137.161 267.168 137.903C267.415 138.644 267.045 139.385 266.304 139.633C265.439 139.88 246.295 146.429 246.666 171.142C246.542 171.883 245.925 172.501 245.183 172.501Z" fill="#25233A"/>
<path d="M307.061 235.643C306.32 235.643 305.702 235.025 305.702 234.284C305.702 234.037 305.702 233.913 305.826 233.666L313.73 217.108C331.392 162.74 301.627 147.788 301.38 147.665C300.639 147.294 300.392 146.429 300.762 145.811C301.133 145.07 301.997 144.823 302.615 145.193C302.985 145.317 311.013 149.271 316.571 160.392C321.759 170.524 325.834 188.688 316.324 218.22L316.201 218.344L308.296 235.025C308.049 235.272 307.555 235.643 307.061 235.643Z" fill="#25233A"/>
<defs>
<linearGradient id="paint0_linear" x1="340.351" y1="203.762" x2="606.469" y2="237.601" gradientUnits="userSpaceOnUse">
<stop stop-opacity="0"/>
<stop offset="0.99"/>
</linearGradient>
<linearGradient id="paint1_linear" x1="387.307" y1="258.925" x2="587.982" y2="206.207" gradientUnits="userSpaceOnUse">
<stop stop-opacity="0"/>
<stop offset="0.99"/>
</linearGradient>
<linearGradient id="paint2_linear" x1="556.278" y1="162.863" x2="564.908" y2="85.43" gradientUnits="userSpaceOnUse">
<stop offset="0.02" stop-color="white" stop-opacity="0"/>
<stop offset="0.39" stop-color="white" stop-opacity="0.39"/>
<stop offset="1" stop-color="white"/>
</linearGradient>
<linearGradient id="paint3_linear" x1="561.723" y1="73.1198" x2="556.797" y2="131.86" gradientUnits="userSpaceOnUse">
<stop offset="0.01"/>
<stop offset="0.83" stop-opacity="0.07"/>
<stop offset="1" stop-opacity="0"/>
</linearGradient>
<linearGradient id="paint4_linear" x1="574.457" y1="55.7506" x2="586.305" y2="55.7506" gradientUnits="userSpaceOnUse">
<stop offset="0.01"/>
<stop offset="0.83" stop-opacity="0.07"/>
<stop offset="1" stop-opacity="0"/>
</linearGradient>
<linearGradient id="paint5_linear" x1="546.403" y1="40.2969" x2="580.655" y2="40.2969" gradientUnits="userSpaceOnUse">
<stop offset="0.01"/>
<stop offset="0.83" stop-opacity="0.07"/>
<stop offset="1" stop-opacity="0"/>
</linearGradient>
<linearGradient id="paint6_linear" x1="532.251" y1="175.353" x2="531.63" y2="117.652" gradientUnits="userSpaceOnUse">
<stop offset="0.02" stop-color="white" stop-opacity="0"/>
<stop offset="0.39" stop-color="white" stop-opacity="0.39"/>
<stop offset="1" stop-color="white"/>
</linearGradient>
<linearGradient id="paint7_linear" x1="524.626" y1="173.244" x2="528.578" y2="173.244" gradientUnits="userSpaceOnUse">
<stop offset="0.01"/>
<stop offset="0.83" stop-opacity="0.07"/>
<stop offset="1" stop-opacity="0"/>
</linearGradient>
<linearGradient id="paint8_linear" x1="532.422" y1="175.601" x2="536.374" y2="175.601" gradientUnits="userSpaceOnUse">
<stop offset="0.01"/>
<stop offset="0.83" stop-opacity="0.07"/>
<stop offset="1" stop-opacity="0"/>
</linearGradient>
<linearGradient id="paint9_linear" x1="584.491" y1="161.97" x2="581.298" y2="177.489" gradientUnits="userSpaceOnUse">
<stop offset="0.01"/>
<stop offset="0.83" stop-opacity="0.07"/>
<stop offset="1" stop-opacity="0"/>
</linearGradient>
<linearGradient id="paint10_linear" x1="580.242" y1="157.681" x2="577.925" y2="184.178" gradientUnits="userSpaceOnUse">
<stop offset="0.01"/>
<stop offset="0.83" stop-opacity="0.07"/>
<stop offset="1" stop-opacity="0"/>
</linearGradient>
<linearGradient id="paint11_linear" x1="552.077" y1="114.588" x2="548.045" y2="159.706" gradientUnits="userSpaceOnUse">
<stop offset="0.02" stop-color="white" stop-opacity="0"/>
<stop offset="0.39" stop-color="white" stop-opacity="0.39"/>
<stop offset="1" stop-color="white"/>
</linearGradient>
<linearGradient id="paint12_linear" x1="566.581" y1="115.888" x2="562.549" y2="161.006" gradientUnits="userSpaceOnUse">
<stop offset="0.02" stop-color="white" stop-opacity="0"/>
<stop offset="0.39" stop-color="white" stop-opacity="0.39"/>
<stop offset="1" stop-color="white"/>
</linearGradient>
<linearGradient id="paint13_linear" x1="570.522" y1="118.384" x2="585.544" y2="118.384" gradientUnits="userSpaceOnUse">
<stop stop-opacity="0"/>
<stop offset="0.99"/>
</linearGradient>
<linearGradient id="paint14_linear" x1="542.227" y1="118.76" x2="527.311" y2="120.551" gradientUnits="userSpaceOnUse">
<stop stop-opacity="0"/>
<stop offset="0.99"/>
</linearGradient>
<linearGradient id="paint15_linear" x1="27.7958" y1="252.94" x2="338.33" y2="292.428" gradientUnits="userSpaceOnUse">
<stop stop-opacity="0"/>
<stop offset="0.99"/>
</linearGradient>
<linearGradient id="paint16_linear" x1="82.5891" y1="317.311" x2="316.757" y2="255.793" gradientUnits="userSpaceOnUse">
<stop stop-opacity="0"/>
<stop offset="0.99"/>
</linearGradient>
<linearGradient id="paint17_linear" x1="412.214" y1="219.075" x2="431.252" y2="116.677" gradientUnits="userSpaceOnUse">
<stop stop-color="#ECC4D7"/>
<stop offset="0.42" stop-color="#EFD4D1"/>
<stop offset="1" stop-color="#F2EAC9"/>
</linearGradient>
<linearGradient id="paint18_linear" x1="195.294" y1="347.333" x2="234.422" y2="347.333" gradientUnits="userSpaceOnUse">
<stop offset="0.01" stop-color="white" stop-opacity="0"/>
<stop offset="0.13" stop-color="white" stop-opacity="0.17"/>
<stop offset="0.37" stop-color="white" stop-opacity="0.46"/>
<stop offset="0.59" stop-color="white" stop-opacity="0.68"/>
<stop offset="0.77" stop-color="white" stop-opacity="0.85"/>
<stop offset="0.91" stop-color="white" stop-opacity="0.95"/>
<stop offset="1" stop-color="white" stop-opacity="0.99"/>
</linearGradient>
<linearGradient id="paint19_linear" x1="346.553" y1="322.276" x2="308.314" y2="321.118" gradientUnits="userSpaceOnUse">
<stop offset="0.01" stop-color="white" stop-opacity="0"/>
<stop offset="0.13" stop-color="white" stop-opacity="0.17"/>
<stop offset="0.37" stop-color="white" stop-opacity="0.46"/>
<stop offset="0.59" stop-color="white" stop-opacity="0.68"/>
<stop offset="0.77" stop-color="white" stop-opacity="0.85"/>
<stop offset="0.91" stop-color="white" stop-opacity="0.95"/>
<stop offset="1" stop-color="white" stop-opacity="0.99"/>
</linearGradient>
<linearGradient id="paint20_linear" x1="292.054" y1="155.511" x2="358.547" y2="206.15" gradientUnits="userSpaceOnUse">
<stop stop-color="#ECC4D7"/>
<stop offset="0.42" stop-color="#EFD4D1"/>
<stop offset="1" stop-color="#F2EAC9"/>
</linearGradient>
<linearGradient id="paint21_linear" x1="325.789" y1="132.285" x2="255.699" y2="156.654" gradientUnits="userSpaceOnUse">
<stop stop-color="#183866"/>
<stop offset="1" stop-color="#1A7FC1"/>
</linearGradient>
<linearGradient id="paint22_linear" x1="258.076" y1="108.333" x2="321.739" y2="108.333" gradientUnits="userSpaceOnUse">
<stop stop-color="#ECC4D7"/>
<stop offset="0.42" stop-color="#EFD4D1"/>
<stop offset="1" stop-color="#F2EAC9"/>
</linearGradient>
<linearGradient id="paint23_linear" x1="269.218" y1="109.518" x2="260.119" y2="112.685" gradientUnits="userSpaceOnUse">
<stop stop-color="#183866"/>
<stop offset="1" stop-color="#1A7FC1"/>
</linearGradient>
<linearGradient id="paint24_linear" x1="221.869" y1="227.366" x2="287.962" y2="214.502" gradientUnits="userSpaceOnUse">
<stop offset="0.01" stop-color="white" stop-opacity="0"/>
<stop offset="0.13" stop-color="white" stop-opacity="0.17"/>
<stop offset="0.37" stop-color="white" stop-opacity="0.46"/>
<stop offset="0.59" stop-color="white" stop-opacity="0.68"/>
<stop offset="0.77" stop-color="white" stop-opacity="0.85"/>
<stop offset="0.91" stop-color="white" stop-opacity="0.95"/>
<stop offset="1" stop-color="white" stop-opacity="0.99"/>
</linearGradient>
<linearGradient id="paint25_linear" x1="318.515" y1="247.929" x2="260.066" y2="216.286" gradientUnits="userSpaceOnUse">
<stop offset="0.01" stop-color="white" stop-opacity="0"/>
<stop offset="0.13" stop-color="white" stop-opacity="0.17"/>
<stop offset="0.37" stop-color="white" stop-opacity="0.46"/>
<stop offset="0.59" stop-color="white" stop-opacity="0.68"/>
<stop offset="0.77" stop-color="white" stop-opacity="0.85"/>
<stop offset="0.91" stop-color="white" stop-opacity="0.95"/>
<stop offset="1" stop-color="white" stop-opacity="0.99"/>
</linearGradient>
<linearGradient id="paint26_linear" x1="202.661" y1="248.608" x2="226.65" y2="246.506" gradientUnits="userSpaceOnUse">
<stop offset="0.01" stop-color="white" stop-opacity="0"/>
<stop offset="0.13" stop-color="white" stop-opacity="0.17"/>
<stop offset="0.37" stop-color="white" stop-opacity="0.46"/>
<stop offset="0.59" stop-color="white" stop-opacity="0.68"/>
<stop offset="0.77" stop-color="white" stop-opacity="0.85"/>
<stop offset="0.91" stop-color="white" stop-opacity="0.95"/>
<stop offset="1" stop-color="white" stop-opacity="0.99"/>
</linearGradient>
<linearGradient id="paint27_linear" x1="223.99" y1="336.25" x2="230.778" y2="299.765" gradientUnits="userSpaceOnUse">
<stop stop-color="#ECC4D7"/>
<stop offset="0.42" stop-color="#EFD4D1"/>
<stop offset="1" stop-color="#F2EAC9"/>
</linearGradient>
<linearGradient id="paint28_linear" x1="229.582" y1="295.602" x2="227.291" y2="367.534" gradientUnits="userSpaceOnUse">
<stop offset="0.01" stop-color="white" stop-opacity="0"/>
<stop offset="0.13" stop-color="white" stop-opacity="0.17"/>
<stop offset="0.37" stop-color="white" stop-opacity="0.46"/>
<stop offset="0.59" stop-color="white" stop-opacity="0.68"/>
<stop offset="0.77" stop-color="white" stop-opacity="0.85"/>
<stop offset="0.91" stop-color="white" stop-opacity="0.95"/>
<stop offset="1" stop-color="white" stop-opacity="0.99"/>
</linearGradient>
<linearGradient id="paint29_linear" x1="311.838" y1="282.551" x2="306.477" y2="380.503" gradientUnits="userSpaceOnUse">
<stop offset="0.01" stop-color="white" stop-opacity="0"/>
<stop offset="0.13" stop-color="white" stop-opacity="0.17"/>
<stop offset="0.37" stop-color="white" stop-opacity="0.46"/>
<stop offset="0.59" stop-color="white" stop-opacity="0.68"/>
<stop offset="0.77" stop-color="white" stop-opacity="0.85"/>
<stop offset="0.91" stop-color="white" stop-opacity="0.95"/>
<stop offset="1" stop-color="white" stop-opacity="0.99"/>
</linearGradient>
<linearGradient id="paint30_linear" x1="224.854" y1="204.824" x2="232.243" y2="216.046" gradientUnits="userSpaceOnUse">
<stop stop-opacity="0"/>
<stop offset="0.99"/>
</linearGradient>
<linearGradient id="paint31_linear" x1="259.534" y1="205.862" x2="263.976" y2="216.122" gradientUnits="userSpaceOnUse">
<stop stop-opacity="0"/>
<stop offset="0.99"/>
</linearGradient>
<linearGradient id="paint32_linear" x1="296.908" y1="238.279" x2="313.123" y2="238.279" gradientUnits="userSpaceOnUse">
<stop stop-opacity="0"/>
<stop offset="0.99"/>
</linearGradient>
<linearGradient id="paint33_linear" x1="307.592" y1="225.558" x2="306.155" y2="258.966" gradientUnits="userSpaceOnUse">
<stop stop-opacity="0"/>
<stop offset="0.99"/>
</linearGradient>
<linearGradient id="paint34_linear" x1="216.049" y1="569.078" x2="229.697" y2="569.078" gradientUnits="userSpaceOnUse">
<stop stop-color="#ECC4D7"/>
<stop offset="0.42" stop-color="#EFD4D1"/>
<stop offset="1" stop-color="#F2EAC9"/>
</linearGradient>
<linearGradient id="paint35_linear" x1="293.832" y1="573.172" x2="279.749" y2="573.172" gradientUnits="userSpaceOnUse">
<stop stop-color="#ECC4D7"/>
<stop offset="0.42" stop-color="#EFD4D1"/>
<stop offset="1" stop-color="#F2EAC9"/>
</linearGradient>
<linearGradient id="paint36_linear" x1="183.87" y1="582.281" x2="229.697" y2="582.281" gradientUnits="userSpaceOnUse">
<stop stop-opacity="0"/>
<stop offset="0.99"/>
</linearGradient>
<linearGradient id="paint37_linear" x1="277.395" y1="586.545" x2="322.388" y2="586.545" gradientUnits="userSpaceOnUse">
<stop stop-opacity="0"/>
<stop offset="0.99"/>
</linearGradient>
<linearGradient id="paint38_linear" x1="301.696" y1="147.703" x2="310.645" y2="154.018" gradientUnits="userSpaceOnUse">
<stop stop-opacity="0"/>
<stop offset="0.99"/>
</linearGradient>
</defs>
</svg>
