<svg width="23" height="23" viewBox="0 0 23 23" fill="none" xmlns="http://www.w3.org/2000/svg">
<g clip-path="url(#clip0)">
<path d="M7.90625 9.70229H15.0938C15.4909 9.70229 15.8125 9.38065 15.8125 8.98354V8.26479C15.8125 7.86768 15.4909 7.54604 15.0938 7.54604H7.90625C7.50914 7.54604 7.1875 7.86768 7.1875 8.26479V8.98354C7.1875 9.38065 7.50914 9.70229 7.90625 9.70229ZM7.1875 13.296C7.1875 13.6931 7.50914 14.0148 7.90625 14.0148H15.0938C15.4909 14.0148 15.8125 13.6931 15.8125 13.296V12.5773C15.8125 12.1802 15.4909 11.8585 15.0938 11.8585H7.90625C7.50914 11.8585 7.1875 12.1802 7.1875 12.5773V13.296ZM11.5 18.7374C10.7624 18.7374 10.0248 18.5101 9.39496 18.0551L0 11.2683V20.8429C0 22.0338 0.965371 22.9992 2.15625 22.9992H20.8438C22.0346 22.9992 23 22.0338 23 20.8429V11.2683L13.605 18.0551C12.9752 18.5097 12.2376 18.7374 11.5 18.7374ZM22.1739 7.31918C21.7763 7.00742 21.3994 6.71408 20.8438 6.29451V4.31166C20.8438 3.12078 19.8784 2.15541 18.6875 2.15541H15.2038C15.0672 2.05658 14.9401 1.96404 14.7977 1.86072C14.0426 1.30953 12.5422 -0.0165606 11.5 -0.000837962C10.4578 -0.0165606 8.95787 1.30953 8.20228 1.86072C8.05988 1.96404 7.93275 2.05658 7.79619 2.15541H4.3125C3.12162 2.15541 2.15625 3.12078 2.15625 4.31166V6.29451C1.60057 6.71363 1.22367 7.00742 0.826113 7.31918C0.568782 7.52085 0.360684 7.7784 0.217563 8.07235C0.0744413 8.36629 4.42843e-05 8.68894 0 9.01588L0 9.4943L4.3125 12.6096V4.31166H18.6875V12.6096L23 9.4943V9.01588C23 8.35373 22.6954 7.72797 22.1739 7.31918Z" fill="black"/>
</g>
<defs>
<clipPath id="clip0">
<rect width="23" height="23" fill="white"/>
</clipPath>
</defs>
</svg>
