<svg width="136" height="80" viewBox="0 0 136 80" fill="none" xmlns="http://www.w3.org/2000/svg">
<path d="M120.485 40.1646C120.48 43.3536 122.212 46.2752 125.039 48.3454C127.493 50.1419 130.652 51.2235 133.971 51.4811L133.971 69.791L133.971 69.791L133.971 69.8004C133.977 70.8171 133.709 71.8441 133.156 72.8284C132.6 73.8163 131.762 74.7493 130.66 75.5568C129.558 76.3644 128.225 77.0212 126.731 77.4747C125.238 77.9278 123.628 78.1645 121.994 78.166L13.5632 78.166L13.562 78.166C11.9227 78.1672 10.3054 77.9328 8.80529 77.4809C7.30452 77.0289 5.96446 76.3726 4.85452 75.5645C3.74463 74.7564 2.89851 73.8216 2.33519 72.8308C1.7739 71.8435 1.49934 70.8127 1.49983 69.7917L1.49983 69.791L1.49983 51.4849C4.82837 51.2352 8.00135 50.1576 10.4672 48.361C13.3087 46.2908 15.0538 43.3638 15.0538 40.166C15.0538 36.9682 13.3087 34.0412 10.4672 31.971C8.00135 30.1744 4.82837 29.0969 1.49984 28.8471L1.49982 10.5471C1.49982 10.5459 1.49984 10.5447 1.49984 10.5436C1.50936 8.50405 2.62478 6.41113 4.86466 4.77921C7.11298 3.14115 10.2348 2.17315 13.557 2.16602L121.982 2.16603C125.305 2.17316 128.427 3.14161 130.676 4.78029C132.916 6.41307 134.031 8.50704 134.039 10.5473L134.039 28.8502C132.63 28.9556 131.242 29.2099 129.919 29.6088C128.13 30.1484 126.481 30.9463 125.072 31.9721C123.664 32.9978 122.512 34.2404 121.713 35.646C120.912 37.0548 120.485 38.5921 120.485 40.1646ZM120.485 40.1646C120.485 40.1651 120.485 40.1656 120.485 40.166L121.985 40.166L120.485 40.1631C120.485 40.1636 120.485 40.1641 120.485 40.1646ZM60.9972 11.5141L59.4972 11.5141L59.4972 13.0141L59.4972 22.8891L59.4972 24.3891L60.9972 24.3891L74.5511 24.3891L76.0511 24.3891L76.0511 22.8891L76.0511 13.0141L76.0511 11.5141L74.5511 11.5141L60.9972 11.5141ZM60.9972 33.732L59.4972 33.732L59.4972 35.232L59.4972 45.1069L59.4972 46.6069L60.9972 46.6069L74.5511 46.607L76.0511 46.607L76.0511 45.107L76.0511 35.232L76.0511 33.732L74.5511 33.732L60.9972 33.732ZM60.9972 55.9498L59.4972 55.9498L59.4972 57.4498L59.4972 67.3231L59.4972 68.8231L60.9972 68.8231L74.5511 68.8231L76.0511 68.8231L76.0511 67.3231L76.0511 57.4498L76.0511 55.9498L74.5511 55.9498L60.9972 55.9498Z" fill="#EAF6E9" stroke="#96D293" stroke-width="3"/>
</svg>
