<svg width="29" height="29" viewBox="0 0 29 29" fill="none" xmlns="http://www.w3.org/2000/svg">
<path d="M14.8863 9.60916C12.2907 9.60916 10.1883 11.7115 10.1883 14.3072C10.1883 16.9028 12.2907 19.0052 14.8863 19.0052C17.482 19.0052 19.5844 16.9028 19.5844 14.3072C19.5844 11.7115 17.482 9.60916 14.8863 9.60916ZM25.3864 13.1327C24.8461 8.23499 20.9585 4.34738 16.0608 3.80711V1.38763H13.7118V3.80711C8.81415 4.34738 4.92655 8.23499 4.38627 13.1327H1.9668V15.4817H4.38627C4.92655 20.3794 8.81415 24.267 13.7118 24.8072V27.2267H16.0608V24.8072C20.9585 24.267 24.8461 20.3794 25.3864 15.4817H27.8059V13.1327H25.3864ZM14.8863 22.5287C10.341 22.5287 6.66481 18.8525 6.66481 14.3072C6.66481 9.76184 10.341 6.08565 14.8863 6.08565C19.4317 6.08565 23.1079 9.76184 23.1079 14.3072C23.1079 18.8525 19.4317 22.5287 14.8863 22.5287Z" fill="#263238"/>
</svg>
